<svg width="30" height="30" viewBox="0 0 30 30" fill="none" xmlns="http://www.w3.org/2000/svg">
<path d="M29.9655 22.1745L26.9655 1.1745C26.8909 0.841413 26.7051 0.54364 26.4388 0.330174C26.1724 0.116708 25.8413 0.000263868 25.5 0H21V3H24.297L25.7385 16.989C24.9477 16.6691 24.1031 16.5031 23.25 16.5C20.3205 16.5 17.8455 18.387 16.914 21H13.0845C12.153 18.387 9.678 16.5 6.7485 16.5C5.868 16.5 5.031 16.6815 4.26 16.989L5.703 3H9V0H4.5C4.15877 5.85567e-05 3.82777 0.116457 3.56161 0.329985C3.29545 0.543512 3.11005 0.841405 3.036 1.1745L0.0359999 22.1745L0.1065 22.191C0.0434997 22.5407 0.00789137 22.8948 0 23.25C0 26.9715 3.0285 30 6.75 30C10.215 30 13.0455 27.366 13.4235 24H16.5765C16.9545 27.366 19.785 30 23.25 30C26.9715 30 30 26.9715 30 23.25C30 22.887 29.949 22.5375 29.8935 22.191L29.9655 22.1745ZM6.75 27C4.683 27 3 25.317 3 23.25C3 21.183 4.683 19.5 6.75 19.5C8.817 19.5 10.5 21.183 10.5 23.25C10.5 25.317 8.817 27 6.75 27ZM23.25 27C21.1815 27 19.5 25.317 19.5 23.25C19.5 21.183 21.1815 19.5 23.25 19.5C25.3185 19.5 27 21.183 27 23.25C27 25.317 25.3185 27 23.25 27Z" fill="black"/>
</svg>
