<svg width="66" height="66" viewBox="0 0 66 66" fill="none" xmlns="http://www.w3.org/2000/svg">
<path d="M25.8438 17.8682C25.5763 18.1416 25.3641 18.4664 25.2193 18.8239C25.0745 19.1815 25 19.5647 25 19.9518C25 20.3389 25.0745 20.7221 25.2193 21.0797C25.3641 21.4372 25.5763 21.762 25.8438 22.0354L37.0391 33.5026L25.8438 44.9698C25.3043 45.5224 25.0012 46.2718 25.0012 47.0533C25.0012 47.8348 25.3043 48.5843 25.8438 49.1369C26.3833 49.6896 27.115 50 27.878 50C28.641 50 29.3727 49.6896 29.9122 49.1369L43.1562 35.5714C43.4237 35.298 43.6359 34.9732 43.7807 34.6157C43.9255 34.2581 44 33.8749 44 33.4878C44 33.1007 43.9255 32.7175 43.7807 32.3599C43.6359 32.0024 43.4237 31.6776 43.1562 31.4042L29.9122 17.8386C28.8158 16.7156 26.9691 16.7156 25.8438 17.8682Z" fill="black"/>
<path d="M63 33C63 40.9565 59.8393 48.5871 54.2132 54.2132C48.5871 59.8393 40.9565 63 33 63C25.0435 63 17.4129 59.8393 11.7868 54.2132C6.16071 48.5871 3 40.9565 3 33C3 25.0435 6.16071 17.4129 11.7868 11.7868C17.4129 6.16071 25.0435 3 33 3C40.9565 3 48.5871 6.16071 54.2132 11.7868C59.8393 17.4129 63 25.0435 63 33Z" stroke="black" stroke-width="4.16667" stroke-linecap="round"/>
</svg>
