<svg width="32" height="32" viewBox="0 0 32 32" fill="none" xmlns="http://www.w3.org/2000/svg">
<path d="M22.526 16.7553L24.8793 12.5764C25.0864 12.1879 25.1945 11.7571 25.1947 11.32M22.526 16.7553L17.886 3.99862C18.508 3.44153 19.2844 3.07237 20.1199 2.93638C20.9554 2.80039 21.8138 2.9035 22.5897 3.23305C23.3656 3.5626 24.0253 4.10427 24.488 4.79166C24.9508 5.47905 25.1963 6.28228 25.1947 7.10287V11.32M22.526 16.7553L22.526 16.7553M22.526 16.7553L22.526 16.7553M25.1947 11.32H24.9447M25.1947 11.32L24.9447 11.3199V7.10287V7.10236C24.9462 6.3322 24.7158 5.57769 24.2807 4.93127C23.8454 4.28476 23.2241 3.77413 22.4919 3.46315C21.7597 3.15215 20.9492 3.0547 20.1601 3.18313C19.371 3.31156 18.6387 3.66008 18.0527 4.18486C17.9523 4.27484 17.7985 4.26889 17.7053 4.17142L16.3901 2.79635C16.3434 2.74745 16.3184 2.68168 16.321 2.61406C16.3236 2.54644 16.3534 2.48275 16.4038 2.43754C17.3376 1.59897 18.503 1.04355 19.7566 0.838381C21.0102 0.633216 22.2985 0.787024 23.4636 1.28129C24.6288 1.77557 25.6208 2.5892 26.317 3.62341C27.0132 4.65772 27.3829 5.86727 27.3798 7.1035L27.1298 7.10287L24.9447 11.32M24.9447 11.32C24.9445 11.7149 24.847 12.1044 24.66 12.4563M24.9447 11.32L31.25 22.2431L31.25 22.2437L31.25 27.2512C31.25 27.3893 31.1381 27.5012 31 27.5012H24.7109C24.5728 27.5012 24.4609 27.3893 24.4609 27.2512V25.3769C24.4609 25.2389 24.5728 25.1269 24.7109 25.1269H28.8149M24.66 12.4563L22.3081 16.6327C22.2429 16.7486 22.2798 16.8953 22.3921 16.9665L27.7777 20.3796L27.9115 20.1685M24.66 12.4563C24.6596 12.4572 24.6591 12.458 24.6587 12.4588L24.8793 12.5764L24.6615 12.4537L24.66 12.4563ZM27.9115 20.1685L27.7777 20.3796C28.0985 20.583 28.3608 20.8602 28.5416 21.1854C28.7224 21.5106 28.8162 21.8739 28.8149 22.2422V22.2431V25.1269M27.9115 20.1685C28.267 20.3938 28.5587 20.7016 28.7602 21.064C28.9616 21.4263 29.0663 21.8316 29.0649 22.2431M27.9115 20.1685L22.526 16.7553M28.8149 25.1269V25.3769L29.0649 22.2431M28.8149 25.1269H29.0649V22.2431M22.526 16.7553L29.0649 22.2431M17.1203 17.3458L17.1202 17.3458L15.7386 19.7992L19.429 22.1378C20.0885 22.5552 20.6307 23.1261 21.0057 23.7993C21.3807 24.4726 21.5763 25.2265 21.5742 25.9925M17.1203 17.3458L2.92506 22.1379C2.26639 22.5546 1.72468 23.1246 1.34981 23.7967C0.975037 24.4686 0.779082 25.2211 0.780235 25.9858L0.780241 25.9848L1.03024 25.9863L0.780236 25.9868L0.750005 30.9985C0.749603 31.0651 0.775764 31.129 0.822691 31.1762C0.869618 31.2235 0.933435 31.25 1 31.25H21.3242C21.4623 31.25 21.5742 31.1381 21.5742 31V25.9925M17.1203 17.3458L17.122 17.3426C17.5031 16.642 17.703 15.8618 17.704 15.0691V15.0688V10.8517V10.8515C17.7027 9.16623 17.0112 7.55198 15.784 6.36238C14.557 5.17304 12.8947 4.50502 11.1621 4.50246H11.1617C7.56473 4.50246 4.62584 7.34347 4.62584 10.8517V15.0682C4.62204 15.8609 4.81991 16.642 5.20146 17.3423L5.20144 17.3423L5.20316 17.3454L6.59294 19.8132L2.92525 22.1378L17.1203 17.3458ZM21.5742 25.9925L21.3242 25.9918H21.5742V25.9925ZM29.1047 18.389L25.4143 16.0504L29.1047 18.389ZM19.1391 25.9919V28.8757H3.19785L3.21511 25.9933L3.2151 25.991C3.21379 25.6226 3.30753 25.2594 3.48832 24.9342C3.66914 24.6089 3.93151 24.3317 4.25232 24.1284L9.6151 20.7296C9.72745 20.6584 9.76437 20.5116 9.6991 20.3957L7.33939 16.2057C7.15465 15.8534 7.05934 15.4641 7.06094 15.0698V15.0688V10.8517C7.06094 9.80215 7.49132 8.79394 8.26013 8.04931C9.0292 7.30441 10.074 6.88457 11.1649 6.88457C12.2559 6.88457 13.3007 7.30441 14.0697 8.04931C14.8385 8.79394 15.2689 9.80215 15.2689 10.8517V15.0687C15.2689 15.0687 15.2689 15.0687 15.2689 15.0688C15.2687 15.4637 15.1713 15.8532 14.9843 16.2051L12.6324 20.3815C12.5671 20.4974 12.604 20.6441 12.7164 20.7153L18.1019 24.1284C18.1019 24.1284 18.1019 24.1284 18.1019 24.1284C18.4227 24.3318 18.6851 24.609 18.8659 24.9342C19.0467 25.2594 19.1404 25.6227 19.1391 25.991V25.9919Z" fill="black" stroke="black" stroke-width="0.5" stroke-linejoin="round"/>
</svg>
