<?xml version="1.0" encoding="UTF-8" standalone="no"?>
<!-- Created with Inkscape (http://www.inkscape.org/) -->

<svg
   width="10.583333cm"
   height="6.2347016cm"
   viewBox="0 0 105.83333 62.347017"
   version="1.1"
   id="svg1"
   inkscape:version="1.3 (0e150ed6c4, 2023-07-21)"
   xml:space="preserve"
   sodipodi:docname="under-armour.svg"
   xmlns:inkscape="http://www.inkscape.org/namespaces/inkscape"
   xmlns:sodipodi="http://sodipodi.sourceforge.net/DTD/sodipodi-0.dtd"
   xmlns="http://www.w3.org/2000/svg"
   xmlns:svg="http://www.w3.org/2000/svg"><sodipodi:namedview
     id="namedview1"
     pagecolor="#ffffff"
     bordercolor="#bebebe"
     borderopacity="1"
     inkscape:showpageshadow="false"
     inkscape:pageopacity="0"
     inkscape:pagecheckerboard="false"
     inkscape:deskcolor="#3f3f3f"
     inkscape:document-units="px"
     showguides="true"
     showborder="true"
     borderlayer="true"
     labelstyle="default"
     shape-rendering="auto"
     inkscape:zoom="0.16959091"
     inkscape:cx="61.913694"
     inkscape:cy="26.53444"
     inkscape:window-width="1366"
     inkscape:window-height="745"
     inkscape:window-x="-8"
     inkscape:window-y="-8"
     inkscape:window-maximized="1"
     inkscape:current-layer="layer1" /><defs
     id="defs1"><clipPath
       clipPathUnits="userSpaceOnUse"
       id="clipPath16"><path
         d="M 507.03,858.5 H 612.06 V -0.39 H 507.03 Z"
         id="path18"
         inkscape:connector-curvature="0"
         style="clip-rule:evenodd" /></clipPath><clipPath
       clipPathUnits="userSpaceOnUse"
       id="clipPath22"><path
         d="M 0,858 H 1207 V 0 H 0 Z"
         id="path24"
         inkscape:connector-curvature="0" /></clipPath><clipPath
       clipPathUnits="userSpaceOnUse"
       id="clipPath28"><path
         d="m 0.24,857.76 h 1207.2 V 0 H 0.24 Z"
         id="path30"
         inkscape:connector-curvature="0" /></clipPath><clipPath
       clipPathUnits="userSpaceOnUse"
       id="clipPath40"><path
         d="M 507.03,858.5 H 611.91 V 729.75 H 507.03 Z"
         id="path42"
         inkscape:connector-curvature="0"
         style="clip-rule:evenodd" /></clipPath><clipPath
       clipPathUnits="userSpaceOnUse"
       id="clipPath46"><path
         d="M 0,858 H 1207 V 0 H 0 Z"
         id="path48"
         inkscape:connector-curvature="0" /></clipPath><clipPath
       clipPathUnits="userSpaceOnUse"
       id="clipPath52"><path
         d="m 0.24,857.76 h 1207.2 V 0 H 0.24 Z"
         id="path54"
         inkscape:connector-curvature="0" /></clipPath><clipPath
       clipPathUnits="userSpaceOnUse"
       id="clipPath64"><path
         d="M 0,858 H 1207 V 0 H 0 Z"
         id="path66"
         inkscape:connector-curvature="0" /></clipPath><clipPath
       clipPathUnits="userSpaceOnUse"
       id="clipPath70"><path
         d="m 0.24,857.76 h 1207.2 V 0 H 0.24 Z"
         id="path72"
         inkscape:connector-curvature="0" /></clipPath><clipPath
       clipPathUnits="userSpaceOnUse"
       id="clipPath80"><path
         d="M -0.23,858.5 H 612.06 V -0.39 H -0.23 Z"
         id="path82"
         inkscape:connector-curvature="0"
         style="clip-rule:evenodd" /></clipPath><clipPath
       clipPathUnits="userSpaceOnUse"
       id="clipPath86"><path
         d="M 0,858 H 1207 V 0 H 0 Z"
         id="path88"
         inkscape:connector-curvature="0" /></clipPath><clipPath
       clipPathUnits="userSpaceOnUse"
       id="clipPath92"><path
         d="m 0.24,857.76 h 1207.2 V 0 H 0.24 Z"
         id="path94"
         inkscape:connector-curvature="0" /></clipPath><clipPath
       clipPathUnits="userSpaceOnUse"
       id="clipPath122"><path
         d="M 0,858 H 1207 V 0 H 0 Z"
         id="path124"
         inkscape:connector-curvature="0" /></clipPath><clipPath
       clipPathUnits="userSpaceOnUse"
       id="clipPath128"><path
         d="m 0.24,857.76 h 1207.2 V 0 H 0.24 Z"
         id="path130"
         inkscape:connector-curvature="0" /></clipPath></defs><g
     inkscape:label="Camada 1"
     inkscape:groupmode="layer"
     id="layer1"
     transform="translate(208.86341,-295.47039)"><g
       fill-rule="evenodd"
       clip-rule="evenodd"
       id="g3"
       transform="matrix(0.62053821,0,0,0.62053821,-75.404531,443.12959)"><g
         id="g26"
         style="fill:#000000;fill-opacity:1"
         transform="translate(-4.8843483,-263.75481)"><path
           d="m 54.503959,70.973951 -25.237031,14.467091 4.983044,8.518911 h 33.596015 z"
           style="fill:#000000;fill-opacity:1"
           id="path9" /><path
           d="M 84.081012,45.094049 58.843981,59.560989 78.77706,93.959953 v 0.322114 h 7.232867 v -0.322114 h 26.361043 z"
           style="fill:#000000;fill-opacity:1"
           id="path8" /><path
           d="M 112.85406,18.570974 87.617934,33.038064 122.82,93.959953 h 33.59601 z"
           style="fill:#000000;fill-opacity:1"
           id="path7" /><g
           id="g25"
           style="fill:#000000;fill-opacity:1"><path
             d="m 168.15004,103.60498 c -0.46219,0 -0.91313,0.0157 -1.35231,0.0464 -0.43918,0.0307 -0.86659,0.0765 -1.28198,0.13659 -0.41538,0.0601 -0.81873,0.13457 -1.20954,0.22272 -0.39081,0.0881 -0.7691,0.19008 -1.13455,0.30495 -0.36545,0.11487 -0.71799,0.24269 -1.0573,0.38295 -0.3393,0.14026 -0.6654,0.29288 -0.97778,0.45719 -0.31238,0.16432 -0.61105,0.34034 -0.89571,0.52737 -0.28467,0.18704 -0.55537,0.38506 -0.81154,0.59348 -0.25617,0.20842 -0.4979,0.42719 -0.72479,0.65567 -0.22689,0.22848 -0.43896,0.46675 -0.63579,0.71395 -0.19683,0.2472 -0.3784,0.50342 -0.54439,0.76801 -0.16598,0.2646 -0.31636,0.53751 -0.45072,0.81816 -0.13435,0.28065 -0.2527,0.56901 -0.35464,0.86439 -0.10194,0.29538 -0.18741,0.59779 -0.25615,0.90656 -0.0687,0.30877 -0.1208,0.62382 -0.15556,0.94465 -0.0348,0.32084 -0.0523,0.64743 -0.0523,0.97899 0,0.38188 0.0251,0.75624 0.0738,1.12145 0.0487,0.36521 0.12084,0.72123 0.21505,1.06663 0.0942,0.34541 0.21037,0.68018 0.34696,1.00264 0.13658,0.32246 0.29357,0.63262 0.46939,0.92899 0.17581,0.29638 0.37044,0.57902 0.58233,0.84617 0.2119,0.26715 0.44111,0.51877 0.68594,0.75356 0.24483,0.23478 0.5053,0.45263 0.77991,0.6519 0.27461,0.19928 0.56329,0.38 0.86454,0.54062 0.4825,0.24125 1.00516,0.4624 1.56539,0.66591 0.56023,0.20352 1.15804,0.38939 1.79097,0.5602 0.63294,0.17081 1.30105,0.32655 2.00166,0.46969 0.7006,0.14314 1.43386,0.27375 2.19711,0.39425 0.7635,0.12075 1.51694,0.22135 2.22031,0.33943 0.35169,0.059 0.69086,0.12236 1.01242,0.19487 0.32156,0.0725 0.62563,0.15412 0.90701,0.24952 0.28137,0.0954 0.54005,0.20463 0.77117,0.33236 0.23113,0.12773 0.43472,0.27401 0.60553,0.44349 0.17081,0.16947 0.30887,0.36213 0.4093,0.58278 0.10044,0.22065 0.16312,0.4693 0.18312,0.75055 0,0.18087 -0.0251,0.36924 -0.0753,0.56049 -0.0502,0.19126 -0.12559,0.38546 -0.22604,0.57767 -0.10045,0.19221 -0.22595,0.38248 -0.37663,0.56622 -0.15067,0.18374 -0.32646,0.36092 -0.52737,0.52677 -0.2009,0.16584 -0.42696,0.32033 -0.6781,0.45885 -0.25115,0.13852 -0.52732,0.261 -0.82871,0.36277 -0.30138,0.10177 -0.62796,0.18294 -0.97959,0.23853 -0.35162,0.0556 -0.72831,0.0857 -1.13018,0.0857 -0.60275,-0.0203 -1.14769,-0.0781 -1.63993,-0.16761 -0.49224,-0.0895 -0.93176,-0.21086 -1.32354,-0.3578 -0.39178,-0.14694 -0.7359,-0.31959 -1.03727,-0.51201 -0.30137,-0.19242 -0.55996,-0.40452 -0.78096,-0.63052 -0.221,-0.226 -0.4044,-0.46583 -0.55508,-0.7135 -0.15068,-0.24767 -0.26875,-0.5032 -0.35916,-0.76063 -0.0904,-0.25744 -0.15318,-0.51678 -0.19336,-0.77208 -0.0402,-0.2553 -0.0577,-0.50658 -0.0577,-0.74783 h -7.71702 c 0.0202,0.37168 0.0579,0.73581 0.11294,1.09193 0.055,0.35612 0.12732,0.70421 0.21655,1.04374 0.0892,0.33954 0.19539,0.67062 0.3182,0.99255 0.12281,0.32192 0.26227,0.63473 0.41804,0.93802 0.15576,0.3033 0.32783,0.59702 0.51592,0.88066 0.1881,0.28364 0.39221,0.55715 0.612,0.82011 0.2198,0.26297 0.45526,0.51531 0.70612,0.75657 0.25087,0.24127 0.51712,0.47146 0.79843,0.69001 0.28132,0.21855 0.57766,0.42548 0.88879,0.62028 0.31113,0.19481 0.63701,0.37751 0.97733,0.54755 0.34033,0.17004 0.69519,0.32739 1.06408,0.47165 0.36889,0.14425 0.75187,0.27544 1.1487,0.39289 0.39683,0.11745 0.80739,0.2212 1.23153,0.31082 0.42414,0.0896 0.86188,0.16512 1.3127,0.22588 0.45082,0.0608 0.91488,0.1069 1.39176,0.13779 0.47688,0.0309 0.96655,0.0465 1.46886,0.0465 0.904,0 1.78542,-0.0427 2.63579,-0.13162 0.85036,-0.0889 1.66972,-0.22388 2.4495,-0.40855 0.38989,-0.0923 0.76986,-0.19716 1.13892,-0.31474 0.36907,-0.11757 0.72714,-0.248 1.07326,-0.39168 0.34612,-0.14368 0.68037,-0.30056 1.00143,-0.4712 0.32106,-0.17064 0.62894,-0.35495 0.92282,-0.55342 0.29387,-0.19847 0.57361,-0.41105 0.83819,-0.6382 0.26457,-0.22716 0.51407,-0.46899 0.74723,-0.7257 0.23315,-0.25671 0.45003,-0.52833 0.64964,-0.81545 0.19962,-0.28712 0.38194,-0.58966 0.54589,-0.90806 0.16396,-0.3184 0.30949,-0.6527 0.43566,-1.00323 0.12618,-0.35054 0.23298,-0.71728 0.31926,-1.10082 0.0863,-0.38354 0.15211,-0.78386 0.19637,-1.20126 0.0443,-0.4174 0.0669,-0.85199 0.067,-1.30412 0,-0.48225 -0.0452,-0.94684 -0.13312,-1.39296 -0.0879,-0.44612 -0.21835,-0.87371 -0.38913,-1.28183 -0.17078,-0.40812 -0.38187,-0.79674 -0.63052,-1.16497 -0.24865,-0.36823 -0.53491,-0.71607 -0.85641,-1.04254 -0.3215,-0.32646 -0.6782,-0.63156 -1.06754,-0.91438 -0.38933,-0.28283 -0.8113,-0.54336 -1.26345,-0.78066 -0.45216,-0.23731 -0.93451,-0.45147 -1.44447,-0.64137 -0.50996,-0.1899 -1.04752,-0.35557 -1.61026,-0.4962 -0.58263,-0.16087 -1.18795,-0.29915 -1.80107,-0.42391 -0.61311,-0.12476 -1.23411,-0.23605 -1.8482,-0.34289 -1.22817,-0.21369 -2.42867,-0.4097 -3.48361,-0.66095 -0.52747,-0.12562 -1.01859,-0.26505 -1.45847,-0.42737 -0.43988,-0.16232 -0.82849,-0.34765 -1.15127,-0.56487 -0.16138,-0.10861 -0.30637,-0.22513 -0.43294,-0.35087 -0.12658,-0.12575 -0.2348,-0.26069 -0.32287,-0.40585 -0.0881,-0.14516 -0.15606,-0.30058 -0.20194,-0.46743 -0.0459,-0.16685 -0.0697,-0.34514 -0.0697,-0.53595 0.0403,-0.24113 0.10564,-0.46206 0.19457,-0.66426 0.0889,-0.20219 0.20136,-0.38553 0.33581,-0.55131 0.13446,-0.16577 0.29091,-0.31403 0.46774,-0.4459 0.17683,-0.13186 0.3741,-0.24739 0.59016,-0.34786 0.21607,-0.10047 0.45097,-0.18593 0.70311,-0.25751 0.25215,-0.0716 0.52149,-0.12933 0.80656,-0.17454 0.57016,-0.0904 1.20315,-0.13056 1.88615,-0.13056 0.5425,0 1.02216,0.0377 1.44658,0.10677 0.42441,0.0691 0.79355,0.16944 1.11497,0.29501 0.32142,0.12557 0.59504,0.27623 0.82855,0.44575 0.23351,0.16951 0.42692,0.35793 0.5876,0.55884 0.16069,0.2009 0.28874,0.4144 0.39169,0.63413 0.10295,0.21974 0.1808,0.44578 0.24109,0.67179 0.1206,0.45201 0.17093,0.90402 0.21143,1.30577 h 7.23197 c -0.0301,-0.35156 -0.0765,-0.69626 -0.13885,-1.0335 -0.0624,-0.33724 -0.14076,-0.66703 -0.23462,-0.98893 -0.0939,-0.3219 -0.20314,-0.63596 -0.32768,-0.94149 -0.12454,-0.30554 -0.26435,-0.6026 -0.41879,-0.89075 -0.15445,-0.28815 -0.32363,-0.56738 -0.50719,-0.83713 -0.18357,-0.26975 -0.38143,-0.53003 -0.59333,-0.78036 -0.2119,-0.25033 -0.43776,-0.49069 -0.67721,-0.72058 -0.23945,-0.22988 -0.4926,-0.44936 -0.75882,-0.65778 -0.26622,-0.20842 -0.54554,-0.40573 -0.83774,-0.59167 -0.2922,-0.18594 -0.59729,-0.36041 -0.91469,-0.52285 -0.3174,-0.16243 -0.64711,-0.31295 -0.98892,-0.45087 -0.34182,-0.13791 -0.69562,-0.2632 -1.06107,-0.37557 -0.36544,-0.11237 -0.74249,-0.21176 -1.13078,-0.29757 -0.38829,-0.0858 -0.7879,-0.15802 -1.19825,-0.21624 -0.41035,-0.0582 -0.83152,-0.10245 -1.26315,-0.13207 -0.43164,-0.0296 -0.87368,-0.0447 -1.3258,-0.0447 z"
             style="fill:#000000;fill-opacity:1"
             id="path16" /><path
             d="m 136.96693,103.60604 c -0.25621,0 -0.51103,0.006 -0.76424,0.0191 -0.25322,0.0127 -0.50485,0.0318 -0.75476,0.0569 -0.24992,0.0251 -0.4981,0.0564 -0.74437,0.0937 -0.24627,0.0373 -0.49062,0.0807 -0.73293,0.12981 -0.24231,0.0492 -0.48257,0.1041 -0.72057,0.16475 -0.23801,0.0606 -0.47376,0.127 -0.70718,0.19893 -0.23341,0.0719 -0.46451,0.14945 -0.69302,0.23236 -0.2285,0.0829 -0.45443,0.17118 -0.67765,0.26474 -0.22323,0.0935 -0.44377,0.19231 -0.6614,0.29621 -0.21762,0.1039 -0.43233,0.21293 -0.64407,0.32693 -0.21174,0.114 -0.4205,0.23296 -0.62601,0.35675 -0.20551,0.12379 -0.40776,0.2524 -0.60673,0.38566 -0.19896,0.13327 -0.39462,0.27123 -0.5867,0.41367 -0.19208,0.14246 -0.38058,0.28943 -0.56547,0.44078 -0.18489,0.15136 -0.3661,0.307 -0.54348,0.46699 -0.17738,0.15998 -0.35092,0.3243 -0.52044,0.49258 -0.16953,0.16827 -0.33498,0.34053 -0.49635,0.51682 -0.16136,0.17629 -0.31863,0.35661 -0.4715,0.54062 -0.15286,0.18402 -0.3014,0.3718 -0.44544,0.56321 -0.14404,0.19142 -0.28359,0.38647 -0.41849,0.58505 -0.13491,0.19857 -0.26519,0.40069 -0.39064,0.60613 -0.12544,0.20543 -0.24606,0.4142 -0.36172,0.62615 -0.11565,0.21196 -0.22636,0.42708 -0.3319,0.64528 -0.10554,0.21821 -0.20591,0.43949 -0.30103,0.66365 -0.0951,0.22417 -0.18489,0.45115 -0.26925,0.68098 -0.0844,0.22982 -0.16331,0.46249 -0.23658,0.69768 -0.0733,0.2352 -0.14098,0.47293 -0.20285,0.7132 -0.0619,0.24027 -0.11791,0.48308 -0.16806,0.7281 -0.0501,0.24505 -0.0944,0.49245 -0.13252,0.74196 -0.0381,0.24953 -0.07,0.5012 -0.0958,0.75492 -0.0257,0.25372 -0.0452,0.50935 -0.0583,0.76695 -0.0131,0.25761 -0.0196,0.51719 -0.0196,0.77841 0,0.25615 0.007,0.51092 0.0196,0.76409 0.013,0.25317 0.0325,0.50475 0.0583,0.75461 0.0257,0.24987 0.0577,0.49801 0.0958,0.74422 0.0381,0.24622 0.0824,0.4905 0.13252,0.73278 0.0502,0.24227 0.10619,0.4824 0.16806,0.72042 0.0619,0.23802 0.12957,0.47393 0.20285,0.70733 0.0733,0.23339 0.15222,0.46427 0.23658,0.69271 0.0844,0.22844 0.17414,0.45445 0.26925,0.67766 0.0951,0.22322 0.19549,0.44373 0.30103,0.66139 0.10554,0.21767 0.21625,0.4325 0.3319,0.64423 0.11566,0.21174 0.23628,0.42035 0.36172,0.62586 0.12545,0.2055 0.25573,0.40791 0.39064,0.60688 0.1349,0.19896 0.27445,0.39447 0.41849,0.58655 0.14404,0.19207 0.29258,0.38071 0.44544,0.56561 0.15287,0.18491 0.31014,0.36608 0.4715,0.54349 0.16137,0.1774 0.32682,0.35105 0.49635,0.52059 0.16952,0.16954 0.34306,0.33499 0.52044,0.49634 0.17738,0.16136 0.35859,0.31862 0.54348,0.4715 0.18489,0.15289 0.37339,0.30138 0.56547,0.44545 0.19208,0.14407 0.38774,0.28372 0.5867,0.41864 0.19897,0.13493 0.40122,0.26516 0.60673,0.39064 0.20551,0.12546 0.41427,0.24619 0.62601,0.36186 0.21174,0.11568 0.42645,0.22634 0.64407,0.33191 0.21763,0.10556 0.43817,0.20604 0.6614,0.30118 0.22322,0.0951 0.44915,0.1849 0.67765,0.26925 0.22851,0.0844 0.45961,0.16329 0.69302,0.23658 0.23342,0.0733 0.46917,0.14095 0.70718,0.20285 0.238,0.0619 0.47826,0.11805 0.72057,0.16821 0.24231,0.0502 0.48666,0.0943 0.73293,0.13237 0.24627,0.0381 0.49445,0.0702 0.74437,0.0959 0.24991,0.0257 0.50154,0.0452 0.75476,0.0583 0.25321,0.013 0.50803,0.0196 0.76424,0.0196 0.21094,0 0.41994,-0.004 0.62706,-0.0113 0.20713,-0.007 0.41238,-0.0185 0.61562,-0.0333 0.20323,-0.0147 0.40445,-0.0332 0.60372,-0.0551 0.19926,-0.0219 0.39659,-0.0473 0.59182,-0.0762 0.19522,-0.0289 0.38835,-0.0613 0.57947,-0.097 0.19111,-0.0357 0.38022,-0.0748 0.56712,-0.11716 0.18691,-0.0424 0.3717,-0.0881 0.55433,-0.13704 0.18262,-0.0489 0.36309,-0.10105 0.54137,-0.15631 0.17828,-0.0553 0.35439,-0.11367 0.52827,-0.17514 0.17388,-0.0615 0.34553,-0.126 0.51487,-0.19351 0.16935,-0.0675 0.33641,-0.13804 0.50117,-0.21143 0.16476,-0.0734 0.32721,-0.14963 0.48731,-0.22875 0.1601,-0.0791 0.31781,-0.16107 0.47315,-0.24576 0.15535,-0.0847 0.30832,-0.1721 0.45885,-0.26218 0.30108,-0.18015 0.59251,-0.37092 0.87388,-0.57179 v 1.92801 h 7.23407 v -28.93403 h -7.23407 v 2.24998 c -0.14062,-0.11044 -0.28442,-0.21707 -0.43114,-0.32001 -0.14672,-0.10294 -0.29637,-0.20218 -0.44891,-0.29772 -0.15254,-0.0955 -0.30787,-0.18737 -0.46593,-0.27558 -0.15805,-0.0882 -0.31882,-0.1728 -0.48204,-0.25374 -0.16321,-0.081 -0.32901,-0.15832 -0.4971,-0.23206 -0.16809,-0.0738 -0.33847,-0.14386 -0.5111,-0.21053 -0.17264,-0.0667 -0.34749,-0.1298 -0.52436,-0.18944 -0.17687,-0.0597 -0.35576,-0.11581 -0.53655,-0.16851 -0.1808,-0.0527 -0.36346,-0.10204 -0.54785,-0.14788 -0.1844,-0.0459 -0.37053,-0.0882 -0.55824,-0.12725 -0.37542,-0.0781 -0.75715,-0.14282 -1.14389,-0.19426 -0.38674,-0.0515 -0.77858,-0.0897 -1.17415,-0.11506 -0.39557,-0.0254 -0.79487,-0.0379 -1.19675,-0.0379 z m 0.32001,6.58999 c 0.14068,0 0.28052,0.004 0.41954,0.0112 0.13903,0.007 0.27724,0.0186 0.41443,0.0333 0.13718,0.0147 0.27336,0.033 0.40855,0.0548 0.1352,0.0217 0.26941,0.0468 0.40238,0.0755 0.26594,0.0571 0.52726,0.1278 0.78337,0.21113 0.25611,0.0833 0.50703,0.17934 0.7519,0.28732 0.24488,0.10799 0.48384,0.22781 0.71606,0.35886 0.23222,0.13104 0.45769,0.2733 0.67585,0.42587 0.21817,0.15256 0.42891,0.3154 0.63158,0.48791 0.20267,0.17252 0.39727,0.35472 0.58308,0.54559 0.18582,0.19088 0.36283,0.39048 0.53038,0.59815 0.16756,0.20767 0.32564,0.42342 0.47346,0.64633 0.14782,0.22291 0.28546,0.45296 0.41217,0.68956 0.1267,0.23659 0.24247,0.47973 0.34666,0.72841 0.10418,0.24866 0.19669,0.50298 0.27693,0.76213 0.0803,0.25917 0.14824,0.5232 0.20315,0.79136 0.0549,0.26816 0.0968,0.54048 0.12499,0.81605 0.0141,0.13779 0.0248,0.27629 0.0319,0.41563 0.007,0.13934 0.0107,0.27946 0.0107,0.42015 0,0.14062 -0.004,0.28043 -0.0107,0.41939 -0.007,0.13896 -0.0178,0.277 -0.0319,0.41413 -0.0282,0.27425 -0.0701,0.54475 -0.12499,0.81063 -0.0549,0.26587 -0.1229,0.52727 -0.20315,0.78337 -0.0802,0.25609 -0.17275,0.50689 -0.27693,0.75175 -0.10419,0.24485 -0.21996,0.48368 -0.34666,0.7159 -0.12671,0.23222 -0.26435,0.45783 -0.41217,0.67601 -0.14782,0.21816 -0.3059,0.42887 -0.47346,0.63157 -0.16755,0.2027 -0.34456,0.39739 -0.53038,0.58324 -0.18581,0.18584 -0.38041,0.36281 -0.58308,0.53038 -0.20267,0.16757 -0.41341,0.32574 -0.63158,0.47361 -0.21816,0.14786 -0.44363,0.28544 -0.67585,0.41216 -0.23222,0.12672 -0.47118,0.24259 -0.71606,0.34681 -0.24487,0.10423 -0.49579,0.19679 -0.7519,0.27709 -0.25611,0.0803 -0.51743,0.14836 -0.78337,0.2033 -0.26594,0.0549 -0.53654,0.0968 -0.81093,0.12499 -0.1372,0.0141 -0.27524,0.0248 -0.41428,0.0319 -0.13903,0.007 -0.279,0.0107 -0.41969,0.0107 -0.14063,0 -0.28058,-0.004 -0.41985,-0.0107 -0.13927,-0.007 -0.27791,-0.0178 -0.41563,-0.0319 -0.27544,-0.0282 -0.54753,-0.07 -0.8156,-0.12499 -0.26806,-0.0549 -0.53196,-0.12299 -0.79105,-0.2033 -0.25909,-0.0803 -0.51339,-0.17286 -0.76199,-0.27709 -0.2486,-0.10422 -0.49159,-0.22009 -0.7281,-0.34681 -0.23652,-0.12672 -0.46655,-0.2643 -0.68941,-0.41216 -0.22286,-0.14787 -0.43853,-0.30604 -0.64618,-0.47361 -0.20766,-0.16757 -0.4073,-0.34454 -0.59815,-0.53038 -0.19084,-0.18585 -0.37295,-0.38054 -0.54544,-0.58324 -0.17249,-0.2027 -0.33536,-0.41341 -0.48791,-0.63157 -0.15255,-0.21818 -0.29482,-0.44379 -0.42587,-0.67601 -0.13105,-0.23222 -0.25088,-0.47105 -0.35886,-0.7159 -0.10797,-0.24486 -0.20399,-0.49566 -0.28733,-0.75175 -0.0833,-0.2561 -0.154,-0.5175 -0.21112,-0.78337 -0.0286,-0.13294 -0.0538,-0.26698 -0.0755,-0.40208 -0.0217,-0.1351 -0.0398,-0.27127 -0.0545,-0.4084 -0.0146,-0.13714 -0.0257,-0.2753 -0.0331,-0.41428 -0.007,-0.13898 -0.0113,-0.27877 -0.0113,-0.41939 0,-0.14069 0.004,-0.28082 0.0113,-0.42015 0.007,-0.13933 0.0185,-0.27785 0.0331,-0.41563 0.0146,-0.13778 0.0328,-0.27477 0.0545,-0.41081 0.0217,-0.13605 0.0469,-0.27116 0.0755,-0.40524 0.0571,-0.26818 0.12779,-0.53231 0.21112,-0.79151 0.0833,-0.25919 0.17936,-0.51344 0.28733,-0.76213 0.10798,-0.24869 0.22781,-0.49179 0.35886,-0.72841 0.13105,-0.23662 0.27332,-0.46678 0.42587,-0.68971 0.15255,-0.22293 0.31542,-0.43863 0.48791,-0.64633 0.17249,-0.2077 0.3546,-0.40741 0.54544,-0.5983 0.19085,-0.19089 0.39049,-0.37308 0.59815,-0.54559 0.20765,-0.17251 0.42332,-0.33534 0.64618,-0.48791 0.22286,-0.15257 0.45289,-0.29483 0.68941,-0.42587 0.23651,-0.13105 0.4795,-0.25089 0.7281,-0.35886 0.2486,-0.10797 0.5029,-0.20402 0.76199,-0.28733 0.25909,-0.0833 0.52299,-0.15388 0.79105,-0.21097 0.13404,-0.0286 0.26909,-0.0537 0.40509,-0.0754 0.136,-0.0217 0.27294,-0.0399 0.41066,-0.0545 0.13772,-0.0146 0.27624,-0.0257 0.41548,-0.0331 0.13925,-0.007 0.27922,-0.0112 0.41985,-0.0112 z"
             style="fill:#000000;fill-opacity:1"
             id="path20" /><path
             d="m 112.533,93.959953 v 12.215007 c -0.32162,-0.22087 -0.64829,-0.42666 -0.97989,-0.61772 -0.33161,-0.19107 -0.6681,-0.36744 -1.00971,-0.52933 -0.34161,-0.16188 -0.68834,-0.30925 -1.03998,-0.44258 -0.35164,-0.13333 -0.70826,-0.25255 -1.06995,-0.35796 -0.36168,-0.1054 -0.72846,-0.19703 -1.10021,-0.27513 -0.37175,-0.0781 -0.74848,-0.14266 -1.13033,-0.19411 -0.38186,-0.0514 -0.76877,-0.0898 -1.16076,-0.1152 -0.39198,-0.0254 -0.78904,-0.038 -1.19117,-0.038 -0.25615,0 -0.51092,0.006 -0.7641,0.019 -0.25317,0.0127 -0.50475,0.0317 -0.75461,0.0569 -0.24986,0.0251 -0.498,0.0565 -0.74421,0.0938 -0.24622,0.0373 -0.49051,0.0805 -0.73278,0.12966 -0.24227,0.0491 -0.48244,0.10421 -0.72042,0.16489 -0.237993,0.0607 -0.473796,0.127 -0.707177,0.19893 -0.233383,0.0719 -0.46442,0.1495 -0.692868,0.23236 -0.228447,0.0829 -0.454306,0.17104 -0.677507,0.26459 -0.223201,0.0936 -0.443758,0.19243 -0.661394,0.29636 -0.217636,0.10394 -0.432352,0.21294 -0.644076,0.32694 -0.211724,0.11399 -0.420492,0.23296 -0.626005,0.35675 -0.205515,0.12378 -0.407778,0.25239 -0.60673,0.38566 -0.198952,0.13326 -0.394618,0.27122 -0.586701,0.41367 -0.192083,0.14246 -0.380583,0.28942 -0.565468,0.44078 -0.184885,0.15136 -0.366142,0.30719 -0.543481,0.46713 -0.177341,0.15995 -0.350768,0.32401 -0.520291,0.49228 -0.169523,0.16828 -0.334983,0.34069 -0.496347,0.51698 -0.161364,0.17629 -0.318633,0.35646 -0.471499,0.54047 -0.152866,0.18401 -0.30137,0.37191 -0.445447,0.56336 -0.144077,0.19145 -0.283729,0.38647 -0.418642,0.58504 -0.134913,0.19858 -0.265189,0.40073 -0.390632,0.60613 -0.125443,0.2054 -0.246053,0.41405 -0.361719,0.62601 -0.115665,0.21195 -0.226367,0.42722 -0.331901,0.64543 -0.105536,0.2182 -0.205908,0.43934 -0.301031,0.6635 -0.09512,0.22416 -0.185013,0.4513 -0.269407,0.68112 -0.08439,0.22983 -0.163293,0.46234 -0.236578,0.69754 -0.07328,0.23519 -0.140978,0.47308 -0.202845,0.71335 -0.06187,0.24025 -0.117908,0.48291 -0.168059,0.72795 -0.05015,0.24505 -0.09441,0.49243 -0.13252,0.74196 -0.03811,0.24953 -0.07005,0.50119 -0.09578,0.75491 -0.02572,0.25372 -0.04513,0.5095 -0.05813,0.76711 -0.01299,0.25761 -0.01958,0.51704 -0.01958,0.77825 0,0.25616 0.0066,0.51093 0.01958,0.7641 0.013,0.25317 0.03241,0.50474 0.05813,0.75461 0.02573,0.24986 0.05767,0.49812 0.09578,0.74437 0.03811,0.24625 0.08237,0.4905 0.13252,0.73277 0.05015,0.24228 0.106192,0.48259 0.168059,0.72058 0.06187,0.23798 0.12956,0.47363 0.202845,0.70702 0.07328,0.2334 0.152184,0.46454 0.236578,0.69302 0.08439,0.22848 0.174284,0.45429 0.269407,0.67751 0.09512,0.22321 0.195495,0.44376 0.301031,0.66139 0.105534,0.21763 0.216236,0.43234 0.331901,0.64408 0.115666,0.21173 0.236276,0.42049 0.361719,0.626 0.125443,0.20551 0.255719,0.40777 0.390632,0.60673 0.134913,0.19897 0.274565,0.39459 0.418642,0.5867 0.144077,0.19212 0.292581,0.38072 0.445447,0.56562 0.152866,0.1849 0.310135,0.36611 0.471499,0.54348 0.161364,0.17737 0.326824,0.35091 0.496347,0.52044 0.169523,0.16954 0.34295,0.33514 0.520291,0.4965 0.177339,0.16136 0.358596,0.31847 0.543481,0.47135 0.184885,0.15288 0.373385,0.30153 0.565468,0.4456 0.192083,0.14407 0.387749,0.28356 0.586701,0.41849 0.198952,0.13493 0.401215,0.26531 0.60673,0.39078 0.205513,0.12547 0.414281,0.24604 0.626005,0.36172 0.211724,0.11568 0.42644,0.22649 0.644076,0.33205 0.217636,0.10557 0.438193,0.2059 0.661394,0.30103 0.223201,0.0951 0.44906,0.18502 0.677507,0.26941 0.228448,0.0844 0.459485,0.16328 0.692868,0.23658 0.233381,0.0733 0.469184,0.14098 0.707177,0.20284 0.23798,0.0619 0.47815,0.11791 0.72042,0.16806 0.24227,0.0502 0.48656,0.0945 0.73278,0.13267 0.24621,0.0381 0.49435,0.07 0.74421,0.0958 0.24986,0.0257 0.50144,0.0451 0.75461,0.0581 0.25318,0.013 0.50795,0.0196 0.7641,0.0196 0.40213,0 0.80173,-0.0151 1.1978,-0.0446 0.39607,-0.0295 0.78857,-0.0735 1.17671,-0.13132 0.38815,-0.0578 0.77185,-0.12934 1.15022,-0.21414 0.37835,-0.0848 0.75141,-0.18281 1.11813,-0.29335 0.36672,-0.11053 0.72711,-0.23351 1.08034,-0.36849 0.35322,-0.13498 0.69928,-0.28195 1.03712,-0.44018 0.33783,-0.15822 0.66743,-0.32775 0.98802,-0.50794 0.32059,-0.1802 0.63216,-0.37107 0.93366,-0.57194 v 1.92801 h 7.07204 V 93.959953 Z m -8.51996,16.236077 c 0.29143,0 0.57969,0.0151 0.86409,0.0444 0.28439,0.0294 0.56488,0.073 0.84074,0.13011 0.27587,0.0571 0.54705,0.12779 0.81289,0.21112 0.26584,0.0833 0.52633,0.17935 0.78066,0.28733 0.25434,0.10799 0.50257,0.22781 0.74392,0.35886 0.24135,0.13104 0.47582,0.2733 0.70266,0.42587 0.22684,0.15256 0.44603,0.3154 0.65687,0.48791 0.21085,0.17252 0.41334,0.35472 0.60673,0.54559 0.19339,0.19088 0.37764,0.39048 0.55207,0.59815 0.17443,0.20767 0.33905,0.42342 0.49303,0.64633 0.15398,0.22291 0.2973,0.45296 0.42934,0.68956 0.13204,0.23659 0.2528,0.47973 0.36141,0.72841 0.10862,0.24865 0.20513,0.50297 0.28884,0.76213 0.0837,0.25917 0.15459,0.5232 0.21188,0.79136 0.0573,0.26816 0.10102,0.5405 0.13041,0.81605 0.0294,0.27555 0.0444,0.5544 0.0444,0.83578 0,0.28125 -0.015,0.5594 -0.0444,0.83367 -0.0294,0.27427 -0.0731,0.5446 -0.13041,0.81048 -0.0573,0.26586 -0.12815,0.52727 -0.21188,0.78337 -0.0837,0.25609 -0.18035,0.50689 -0.28899,0.75175 -0.10863,0.24485 -0.22935,0.48368 -0.36142,0.7159 -0.13206,0.23222 -0.27548,0.45783 -0.42948,0.67601 -0.154,0.21815 -0.31861,0.42887 -0.49303,0.63157 -0.17443,0.2027 -0.35866,0.39739 -0.55207,0.58324 -0.1934,0.18584 -0.39585,0.36281 -0.60673,0.53038 -0.21087,0.16757 -0.43018,0.32574 -0.65703,0.47361 -0.22683,0.14786 -0.4613,0.28544 -0.70265,0.41216 -0.24135,0.12672 -0.4896,0.24259 -0.74392,0.34681 -0.25432,0.10423 -0.5147,0.19679 -0.78051,0.27709 -0.26581,0.0803 -0.53706,0.14836 -0.81289,0.2033 -0.27583,0.0549 -0.55627,0.0968 -0.84059,0.12499 -0.28434,0.0282 -0.57257,0.0426 -0.86394,0.0426 -0.27125,0 -0.54064,-0.0145 -0.80732,-0.0426 -0.26667,-0.0282 -0.53063,-0.07 -0.79105,-0.12499 -0.26043,-0.0549 -0.51728,-0.12299 -0.76982,-0.2033 -0.25254,-0.0803 -0.50077,-0.17286 -0.74377,-0.27709 -0.243,-0.10422 -0.48079,-0.22009 -0.71259,-0.34681 -0.231809,-0.12672 -0.457623,-0.2643 -0.676607,-0.41216 -0.218984,-0.14787 -0.431144,-0.30604 -0.635643,-0.47361 -0.204499,-0.16757 -0.401338,-0.34454 -0.589713,-0.53038 -0.188375,-0.18585 -0.368223,-0.38054 -0.538813,-0.58324 -0.170591,-0.2027 -0.331924,-0.41342 -0.483095,-0.63157 -0.151171,-0.21818 -0.292292,-0.44379 -0.422407,-0.67601 -0.130114,-0.23222 -0.249224,-0.47105 -0.356598,-0.7159 -0.107375,-0.24486 -0.202975,-0.49566 -0.285972,-0.75175 -0.083,-0.2561 -0.153391,-0.51751 -0.210375,-0.78337 -0.05698,-0.26588 -0.100493,-0.53621 -0.129809,-0.81048 -0.02932,-0.27427 -0.04442,-0.55242 -0.04442,-0.83367 0,-0.28138 0.0151,-0.56022 0.04442,-0.83578 0.02932,-0.27556 0.07281,-0.54788 0.129809,-0.81605 0.057,-0.26818 0.127499,-0.53231 0.210526,-0.79151 0.08303,-0.25919 0.178577,-0.51344 0.285971,-0.76214 0.107395,-0.24869 0.226494,-0.49178 0.356599,-0.7284 0.130104,-0.23662 0.271214,-0.46678 0.422407,-0.68971 0.15119,-0.22293 0.312476,-0.43863 0.483094,-0.64633 0.170619,-0.2077 0.350574,-0.40741 0.538964,-0.5983 0.18839,-0.19089 0.385332,-0.37308 0.589864,-0.54559 0.20453,-0.17251 0.416654,-0.33534 0.635643,-0.48791 0.218987,-0.15257 0.444797,-0.29483 0.676605,-0.42587 0.2318,-0.13105 0.46961,-0.25089 0.71259,-0.35886 0.24299,-0.10797 0.4911,-0.20402 0.74362,-0.28733 0.25251,-0.0833 0.50943,-0.15388 0.76982,-0.21097 0.26039,-0.0571 0.52429,-0.10066 0.7909,-0.12996 0.26661,-0.0293 0.53598,-0.0443 0.80717,-0.0443 z"
             style="fill:#000000;fill-opacity:1"
             id="path21" /><path
             d="m 78.77706,93.959953 v 7.233017 h 7.232867 v -7.233017 z m 0,9.966087 v 28.93403 h 7.232867 v -28.93403 z"
             style="fill:#000000;fill-opacity:1"
             id="path25" /><path
             d="m 26.21295,103.60604 c -0.256186,0 -0.511048,0.006 -0.764548,0.0191 -0.2535,0.0127 -0.505639,0.0318 -0.756116,0.0569 -0.250476,0.0251 -0.499379,0.0564 -0.746477,0.0937 -0.247098,0.0373 -0.492393,0.0807 -0.735786,0.12981 -0.243393,0.0492 -0.48484,0.1041 -0.724191,0.16475 -0.23935,0.0606 -0.476604,0.127 -0.71154,0.19893 -0.234936,0.0719 -0.467506,0.14945 -0.697687,0.23236 -0.23018,0.0829 -0.457973,0.17118 -0.683079,0.26474 -0.225104,0.0935 -0.447601,0.19231 -0.667267,0.29621 -0.219665,0.1039 -0.4365,0.21293 -0.650401,0.32693 -0.2139,0.114 -0.424827,0.23296 -0.632631,0.35675 -0.207803,0.12379 -0.412484,0.2524 -0.613807,0.38566 -0.201323,0.13327 -0.399259,0.27122 -0.593779,0.41367 -0.19452,0.14246 -0.385626,0.28943 -0.572997,0.44078 -0.187372,0.15136 -0.371008,0.307 -0.550861,0.46699 -0.179853,0.15998 -0.355924,0.3243 -0.527971,0.49258 -0.172046,0.16827 -0.340149,0.34053 -0.504026,0.51682 -0.163878,0.17629 -0.32353,0.35661 -0.478879,0.54062 -0.155347,0.18402 -0.306346,0.3718 -0.452826,0.56321 -0.14648,0.19142 -0.288443,0.38647 -0.425719,0.58505 -0.137277,0.19857 -0.269823,0.40069 -0.39756,0.60613 -0.127736,0.20543 -0.250664,0.4142 -0.368495,0.62615 -0.11783,0.21196 -0.230617,0.42708 -0.338226,0.64528 -0.10761,0.21821 -0.210043,0.43949 -0.307055,0.66365 -0.09701,0.22417 -0.188616,0.45115 -0.274677,0.68098 -0.08606,0.22982 -0.166578,0.46249 -0.241397,0.69768 -0.07482,0.2352 -0.143858,0.47293 -0.207062,0.7132 -0.0632,0.24027 -0.120571,0.48307 -0.171824,0.7281 -0.05125,0.24505 -0.09642,0.49244 -0.135381,0.74196 -0.03896,0.24953 -0.07172,0.5012 -0.09803,0.75492 -0.02632,0.25372 -0.0463,0.50935 -0.05963,0.76695 -0.01334,0.25761 -0.02003,0.51719 -0.02003,0.77841 0,0.25615 0.0067,0.51092 0.02003,0.76409 0.01334,0.25317 0.03332,0.50475 0.05963,0.75461 0.02632,0.24987 0.05907,0.49801 0.09803,0.74422 0.03896,0.24622 0.08413,0.4905 0.135381,0.73278 0.05125,0.24227 0.108621,0.4824 0.171824,0.72042 0.0632,0.23802 0.132243,0.47393 0.207062,0.70733 0.07482,0.23339 0.155336,0.46427 0.241397,0.69271 0.08606,0.22844 0.177666,0.45445 0.274677,0.67766 0.09701,0.22322 0.199445,0.44373 0.307055,0.66139 0.107609,0.21767 0.220396,0.4325 0.338226,0.64423 0.117831,0.21174 0.240759,0.42035 0.368495,0.62586 0.127737,0.2055 0.260283,0.40791 0.39756,0.60688 0.137276,0.19896 0.279239,0.39447 0.425719,0.58655 0.14648,0.19207 0.297479,0.38071 0.452826,0.56561 0.155349,0.18491 0.315001,0.36608 0.478879,0.54349 0.163877,0.1774 0.33198,0.35105 0.504026,0.52059 0.172047,0.16954 0.348118,0.33499 0.527971,0.49634 0.179853,0.16136 0.363489,0.31862 0.550861,0.4715 0.187371,0.15289 0.378477,0.30138 0.572997,0.44545 0.19452,0.14407 0.392456,0.28372 0.593779,0.41864 0.201323,0.13493 0.406004,0.26516 0.613807,0.39064 0.207804,0.12547 0.418731,0.24619 0.632631,0.36186 0.213901,0.11568 0.430736,0.22634 0.650401,0.33191 0.219666,0.10556 0.442163,0.20604 0.667267,0.30118 0.225106,0.0951 0.452899,0.1849 0.683079,0.26925 0.230181,0.0844 0.462751,0.16329 0.697687,0.23658 0.234936,0.0733 0.47219,0.14095 0.71154,0.20285 0.239351,0.0619 0.480798,0.11805 0.724191,0.16821 0.243393,0.0502 0.488688,0.0943 0.735786,0.13237 0.247098,0.0381 0.496001,0.0702 0.746477,0.0959 0.250477,0.0257 0.502616,0.0452 0.756116,0.0583 0.2535,0.013 0.508362,0.0196 0.764548,0.0196 0.200938,0 0.401317,-0.004 0.600857,-0.0113 0.19954,-0.007 0.398243,-0.0185 0.596038,-0.0333 0.197794,-0.0147 0.394575,-0.0332 0.590315,-0.0551 0.19574,-0.0219 0.390442,-0.0473 0.58384,-0.0762 0.193398,-0.0289 0.385584,-0.0613 0.57631,-0.097 0.190726,-0.0357 0.379984,-0.0748 0.567727,-0.11716 0.375485,-0.0848 0.744702,-0.18282 1.106389,-0.29335 0.361687,-0.11054 0.715841,-0.23363 1.061212,-0.36865 0.172686,-0.0675 0.343119,-0.13804 0.511255,-0.21143 0.168136,-0.0734 0.333978,-0.14963 0.497251,-0.22875 0.163273,-0.0791 0.324056,-0.16107 0.482191,-0.24576 0.158134,-0.0847 0.313622,-0.17209 0.466228,-0.26218 0.152608,-0.0901 0.30241,-0.18282 0.449212,-0.27814 0.146802,-0.0953 0.290604,-0.19322 0.431292,-0.29365 v 1.92801 h 7.232868 v -28.93403 h -7.232868 v 2.24998 c -0.15075,-0.11044 -0.303989,-0.21707 -0.459603,-0.32001 -0.155614,-0.10294 -0.313604,-0.20218 -0.473758,-0.29772 -0.160154,-0.0955 -0.322457,-0.18737 -0.486859,-0.27558 -0.164402,-0.0882 -0.330904,-0.1728 -0.499208,-0.25374 -0.168305,-0.081 -0.338455,-0.15832 -0.510352,-0.23206 -0.171897,-0.0738 -0.345541,-0.14386 -0.520742,-0.21053 -0.175201,-0.0667 -0.351905,-0.1298 -0.530079,-0.18944 -0.178175,-0.0597 -0.35782,-0.11581 -0.538663,-0.16851 -0.180843,-0.0527 -0.362995,-0.10203 -0.546192,-0.14788 -0.183197,-0.0459 -0.367432,-0.0882 -0.552668,-0.12725 -0.370471,-0.0781 -0.744715,-0.14282 -1.121448,-0.19426 -0.376734,-0.0515 -0.755993,-0.0897 -1.136508,-0.11506 -0.380514,-0.0254 -0.762287,-0.0379 -1.144037,-0.0379 z m 0.160982,6.58999 c 0.145687,0 0.2904,0.004 0.434153,0.0112 0.143752,0.007 0.286544,0.0186 0.428129,0.0333 0.141584,0.0147 0.282083,0.0329 0.421352,0.0547 0.13927,0.0217 0.27731,0.0469 0.414125,0.0755 0.273628,0.0571 0.542156,0.12779 0.804906,0.21112 0.262751,0.0833 0.519725,0.17935 0.770271,0.28733 0.250547,0.10799 0.494721,0.22781 0.73172,0.35886 0.236999,0.13104 0.466824,0.2733 0.688952,0.42587 0.222129,0.15256 0.436486,0.3154 0.64242,0.48791 0.205934,0.17252 0.403447,0.35472 0.591821,0.54559 0.188375,0.19088 0.367676,0.39048 0.537157,0.59815 0.169481,0.20767 0.329141,0.42342 0.478426,0.64633 0.149285,0.22291 0.28818,0.45296 0.415932,0.68956 0.127751,0.23659 0.24436,0.47973 0.349219,0.72841 0.10486,0.24866 0.197959,0.50297 0.278593,0.76213 0.08063,0.25917 0.148802,0.5232 0.2039,0.79136 0.0551,0.26816 0.09705,0.54048 0.125291,0.81605 0.01412,0.13779 0.02493,0.27629 0.03208,0.41563 0.0071,0.13934 0.01069,0.27946 0.01069,0.42015 0,0.14062 -0.0035,0.28043 -0.01069,0.41939 -0.0071,0.13896 -0.01796,0.277 -0.03208,0.41413 -0.02824,0.27425 -0.07019,0.54475 -0.125291,0.81063 -0.0551,0.26587 -0.123266,0.52727 -0.2039,0.78337 -0.08063,0.25609 -0.173733,0.50689 -0.278593,0.75175 -0.104859,0.24485 -0.221468,0.48368 -0.349219,0.7159 -0.127752,0.23222 -0.266647,0.45783 -0.415932,0.67601 -0.149285,0.21816 -0.308945,0.42887 -0.478426,0.63157 -0.169481,0.2027 -0.348782,0.39739 -0.537157,0.58324 -0.188374,0.18584 -0.385887,0.36281 -0.591821,0.53038 -0.205934,0.16757 -0.420291,0.32574 -0.64242,0.47361 -0.222128,0.14786 -0.451953,0.28544 -0.688952,0.41216 -0.236999,0.12672 -0.481173,0.24259 -0.73172,0.34681 -0.250546,0.10423 -0.50752,0.19679 -0.770271,0.27709 -0.26275,0.0803 -0.531278,0.14836 -0.804906,0.2033 -0.273629,0.0549 -0.552439,0.0968 -0.835628,0.12499 -0.141594,0.0141 -0.284252,0.0248 -0.427978,0.0319 -0.143727,0.007 -0.288466,0.0107 -0.434153,0.0107 -0.281312,0 -0.560143,-0.0145 -0.835628,-0.0426 -0.275484,-0.0282 -0.547624,-0.07 -0.815749,-0.12499 -0.268125,-0.0549 -0.532177,-0.12299 -0.791354,-0.2033 -0.259176,-0.0803 -0.513479,-0.17286 -0.762139,-0.27709 -0.24866,-0.10422 -0.491697,-0.22009 -0.728256,-0.34681 -0.236559,-0.12672 -0.46664,-0.2643 -0.689555,-0.41216 -0.222914,-0.14787 -0.438628,-0.30604 -0.646335,-0.47361 -0.207706,-0.16757 -0.407406,-0.34454 -0.598296,-0.53038 -0.19089,-0.18585 -0.372933,-0.38054 -0.545439,-0.58324 -0.172507,-0.2027 -0.335478,-0.41341 -0.488065,-0.63157 -0.152586,-0.21818 -0.294911,-0.44379 -0.42602,-0.67601 -0.13111,-0.23222 -0.251005,-0.47105 -0.359008,-0.7159 -0.108004,-0.24486 -0.204,-0.49566 -0.287327,-0.75175 -0.08333,-0.2561 -0.153987,-0.5175 -0.211128,-0.78337 -0.02857,-0.13294 -0.05384,-0.26698 -0.0756,-0.40208 -0.02175,-0.1351 -0.03999,-0.27127 -0.05466,-0.4084 -0.01468,-0.13714 -0.02584,-0.2753 -0.03328,-0.41428 -0.0074,-0.13898 -0.01114,-0.27877 -0.01114,-0.41939 0,-0.14069 0.0037,-0.28082 0.01114,-0.42015 0.0074,-0.13933 0.0186,-0.27785 0.03328,-0.41563 0.01468,-0.13778 0.03291,-0.27477 0.05466,-0.41081 0.02175,-0.13605 0.04702,-0.27116 0.0756,-0.40524 0.05715,-0.26818 0.127771,-0.53231 0.211128,-0.79151 0.08336,-0.25919 0.179454,-0.51344 0.287477,-0.76214 0.108023,-0.24869 0.227909,-0.49178 0.359008,-0.7284 0.1311,-0.23662 0.273414,-0.46678 0.426021,-0.68971 0.152607,-0.22293 0.315642,-0.43863 0.488215,-0.64633 0.172573,-0.2077 0.354684,-0.40741 0.54559,-0.5983 0.190905,-0.19089 0.390633,-0.37308 0.598296,-0.54559 0.207664,-0.17251 0.423265,-0.33534 0.646185,-0.48791 0.222919,-0.15257 0.453107,-0.29483 0.689705,-0.42587 0.236598,-0.13105 0.479608,-0.25089 0.728256,-0.35886 0.248648,-0.10797 0.502989,-0.20402 0.762139,-0.28733 0.25915,-0.0833 0.523112,-0.15388 0.791203,-0.21097 0.134046,-0.0286 0.269095,-0.0538 0.405089,-0.0755 0.135994,-0.0217 0.272932,-0.0399 0.410661,-0.0545 0.137727,-0.0146 0.276236,-0.0257 0.415479,-0.0331 0.139243,-0.007 0.279222,-0.0112 0.419847,-0.0112 z"
             style="fill:#000000;fill-opacity:1"
             id="path23" /><path
             d="m 68.006065,93.959953 v 12.216067 c -0.301373,-0.22088 -0.61031,-0.42666 -0.926433,-0.61773 -0.316125,-0.19106 -0.639554,-0.36744 -0.969804,-0.52932 -0.330248,-0.16189 -0.667317,-0.30926 -1.011065,-0.44259 -0.34375,-0.13333 -0.694197,-0.25255 -1.050822,-0.35795 -0.356624,-0.10541 -0.719593,-0.197 -1.088469,-0.27513 -0.368875,-0.0781 -0.743659,-0.14282 -1.124159,-0.19426 -0.380499,-0.0515 -0.766709,-0.0897 -1.158192,-0.11506 -0.391484,-0.0254 -0.788244,-0.0379 -1.190118,-0.0379 -0.261218,0 -0.520794,0.006 -0.778704,0.0191 -0.25791,0.0127 -0.514155,0.0318 -0.768464,0.0569 -0.254309,0.0251 -0.506786,0.0564 -0.75717,0.0937 -0.250384,0.0373 -0.498676,0.0807 -0.744821,0.12981 -0.246144,0.0492 -0.490116,0.1041 -0.73172,0.16475 -0.241603,0.0606 -0.48084,0.127 -0.717564,0.19893 -0.236724,0.0719 -0.470975,0.14945 -0.702505,0.23236 -0.231531,0.0829 -0.460344,0.17118 -0.686392,0.26474 -0.226049,0.0935 -0.449285,0.19231 -0.669526,0.29621 -0.220242,0.1039 -0.437489,0.21293 -0.651606,0.32693 -0.214117,0.114 -0.425085,0.23296 -0.632782,0.35675 -0.207697,0.12379 -0.412124,0.2524 -0.613054,0.38566 -0.20093,0.13327 -0.398412,0.27122 -0.592273,0.41367 -0.193861,0.14246 -0.384101,0.28943 -0.570588,0.44078 -0.186487,0.15136 -0.369192,0.307 -0.547999,0.46699 -0.178808,0.15998 -0.353719,0.3243 -0.524507,0.49258 -0.170789,0.16827 -0.337499,0.34053 -0.499961,0.51682 -0.162462,0.17629 -0.320676,0.35661 -0.474511,0.54062 -0.153835,0.18402 -0.303259,0.3718 -0.448158,0.56321 -0.1449,0.19142 -0.285275,0.38647 -0.420901,0.58505 -0.135625,0.19857 -0.266545,0.40069 -0.39259,0.60613 -0.126044,0.20543 -0.247214,0.4142 -0.363375,0.62615 -0.11616,0.21196 -0.227321,0.42708 -0.333257,0.64528 -0.105935,0.21821 -0.206645,0.43949 -0.302085,0.66365 -0.09544,0.22417 -0.18555,0.45115 -0.270159,0.68098 -0.08461,0.22982 -0.163718,0.46249 -0.23718,0.69768 -0.07346,0.2352 -0.141269,0.47293 -0.203298,0.7132 -0.06203,0.24027 -0.11828,0.48307 -0.168511,0.7281 -0.05023,0.24505 -0.0944,0.49244 -0.132519,0.74196 -0.03812,0.24953 -0.07018,0.5012 -0.09593,0.75492 -0.02575,0.25372 -0.04525,0.50935 -0.05828,0.76695 -0.01303,0.25761 -0.01958,0.51719 -0.01958,0.77841 0,0.25615 0.0066,0.51092 0.01958,0.76409 0.01303,0.25317 0.03253,0.50475 0.05828,0.75461 0.02575,0.24987 0.05777,0.49801 0.09593,0.74422 0.03815,0.24622 0.08243,0.4905 0.13267,0.73278 0.05024,0.24227 0.106373,0.4824 0.16836,0.72042 0.06199,0.23802 0.129826,0.47393 0.203298,0.70733 0.07347,0.23339 0.152688,0.46427 0.23733,0.69271 0.08464,0.22844 0.174711,0.45445 0.27016,0.67766 0.09545,0.22322 0.196267,0.44373 0.302235,0.66139 0.105968,0.21767 0.217087,0.4325 0.333257,0.64423 0.116171,0.21174 0.237336,0.42035 0.363376,0.62586 0.126039,0.2055 0.256954,0.40791 0.392589,0.60688 0.135636,0.19896 0.276007,0.39447 0.420901,0.58655 0.144895,0.19207 0.294314,0.38071 0.448158,0.56561 0.153844,0.18491 0.312166,0.36608 0.474661,0.54349 0.162496,0.1774 0.329165,0.35105 0.499961,0.52059 0.170797,0.16954 0.345703,0.33499 0.524508,0.49634 0.178804,0.16136 0.361506,0.31862 0.547999,0.4715 0.186492,0.15289 0.376729,0.30138 0.570588,0.44545 0.193858,0.14407 0.39134,0.28372 0.592273,0.41864 0.200931,0.13493 0.405357,0.26516 0.613054,0.39064 0.207697,0.12547 0.418666,0.24619 0.632782,0.36186 0.214115,0.11568 0.4314,0.22634 0.651605,0.33191 0.220206,0.10556 0.443333,0.20604 0.669376,0.30118 0.226042,0.0951 0.454857,0.1849 0.686392,0.26925 0.231535,0.0844 0.465792,0.16329 0.702505,0.23658 0.236713,0.0733 0.475954,0.14095 0.717564,0.20285 0.241611,0.0619 0.485593,0.11805 0.73172,0.16821 0.246128,0.0502 0.494465,0.0943 0.744822,0.13237 0.250356,0.0381 0.502733,0.0702 0.757019,0.0959 0.254285,0.0257 0.510427,0.0452 0.768313,0.0583 0.257886,0.013 0.517517,0.0196 0.778704,0.0196 0.379071,0.002 0.757068,-0.0114 1.133345,-0.0382 0.376277,-0.0269 0.750837,-0.0678 1.122804,-0.12228 0.371967,-0.0545 0.741413,-0.12268 1.107594,-0.20435 0.36618,-0.0817 0.729097,-0.17682 1.088017,-0.28522 0.35892,-0.10841 0.713903,-0.23003 1.064073,-0.36473 0.350171,-0.13471 0.695532,-0.2825 1.035462,-0.44304 0.339929,-0.16055 0.674422,-0.33392 1.002632,-0.51984 0.32821,-0.18592 0.65014,-0.3844 0.965135,-0.59528 v 1.92801 h 7.232868 V 93.959953 Z m -8.358081,16.236077 c 0.281313,0 0.560131,0.0151 0.835628,0.0444 0.275496,0.0294 0.547638,0.073 0.815749,0.13011 0.268112,0.0571 0.532168,0.12779 0.791354,0.21112 0.259186,0.0833 0.513503,0.17935 0.762139,0.28733 0.248636,0.10799 0.491572,0.22781 0.728106,0.35886 0.236534,0.13104 0.466669,0.2733 0.689554,0.42587 0.222886,0.15256 0.438538,0.3154 0.646185,0.48791 0.207646,0.17252 0.407286,0.35472 0.598146,0.54559 0.190858,0.19088 0.372955,0.39048 0.545439,0.59815 0.172484,0.20767 0.335357,0.42342 0.487913,0.64633 0.152558,0.22291 0.294786,0.45296 0.425871,0.68956 0.131085,0.23659 0.251027,0.47973 0.359008,0.72841 0.10798,0.24866 0.20399,0.50297 0.287327,0.76213 0.08334,0.25917 0.154,0.5232 0.211128,0.79136 0.05713,0.26816 0.100762,0.5405 0.13011,0.81605 0.02935,0.27555 0.04442,0.5544 0.04442,0.83578 0,0.28125 -0.01508,0.5594 -0.04442,0.83367 -0.02935,0.27427 -0.07298,0.5446 -0.13011,0.81048 -0.05713,0.26587 -0.127792,0.52727 -0.211128,0.78337 -0.08334,0.25609 -0.179347,0.50689 -0.287327,0.75175 -0.107981,0.24485 -0.227923,0.48368 -0.359008,0.7159 -0.131085,0.23222 -0.273313,0.45783 -0.425871,0.67601 -0.152556,0.21816 -0.315429,0.42887 -0.487913,0.63157 -0.172484,0.2027 -0.354581,0.39739 -0.545439,0.58324 -0.19086,0.18584 -0.3905,0.36281 -0.598146,0.53038 -0.207647,0.16757 -0.423299,0.32574 -0.646185,0.47361 -0.222885,0.14786 -0.45302,0.28544 -0.689554,0.41216 -0.236534,0.12672 -0.47947,0.24259 -0.728106,0.34681 -0.248636,0.10423 -0.502953,0.19679 -0.762139,0.27709 -0.259186,0.0803 -0.523242,0.14836 -0.791354,0.2033 -0.268111,0.0549 -0.540261,0.0968 -0.815749,0.12499 -0.275488,0.0282 -0.554315,0.0426 -0.835628,0.0426 -0.281311,0 -0.560139,-0.0145 -0.835627,-0.0426 -0.275488,-0.0282 -0.547638,-0.07 -0.815749,-0.12499 -0.268112,-0.0549 -0.532055,-0.12299 -0.791203,-0.2033 -0.259149,-0.0803 -0.513503,-0.17286 -0.76214,-0.27709 -0.248636,-0.10422 -0.491684,-0.22009 -0.728256,-0.34681 -0.236572,-0.12672 -0.466669,-0.2643 -0.689554,-0.41216 -0.222886,-0.14787 -0.438538,-0.30604 -0.646185,-0.47361 -0.207646,-0.16757 -0.407286,-0.34454 -0.598146,-0.53038 -0.190858,-0.18585 -0.372955,-0.38054 -0.545439,-0.58324 -0.172484,-0.2027 -0.335356,-0.41341 -0.487914,-0.63157 -0.152556,-0.21818 -0.294822,-0.44379 -0.42587,-0.67601 -0.131047,-0.23222 -0.250877,-0.47105 -0.358857,-0.7159 -0.107981,-0.24486 -0.203991,-0.49566 -0.287327,-0.75175 -0.08334,-0.2561 -0.154001,-0.5175 -0.211128,-0.78337 -0.05713,-0.26588 -0.100762,-0.53621 -0.130111,-0.81048 -0.02935,-0.27427 -0.04442,-0.55242 -0.04442,-0.83367 0,-0.28138 0.01508,-0.56023 0.04442,-0.83578 0.02935,-0.27555 0.07298,-0.54789 0.130111,-0.81605 0.05713,-0.26816 0.127791,-0.53219 0.211128,-0.79136 0.08334,-0.25916 0.179346,-0.51347 0.287327,-0.76213 0.10798,-0.24868 0.22781,-0.49182 0.358857,-0.72841 0.131048,-0.2366 0.273314,-0.46665 0.42587,-0.68956 0.152558,-0.22291 0.31543,-0.43866 0.487914,-0.64633 0.172484,-0.20767 0.354581,-0.40727 0.545439,-0.59815 0.19086,-0.19087 0.3905,-0.37307 0.598146,-0.54559 0.207647,-0.17251 0.423299,-0.33535 0.646185,-0.48791 0.222885,-0.15257 0.452982,-0.29483 0.689554,-0.42587 0.236572,-0.13105 0.47962,-0.25087 0.728256,-0.35886 0.248637,-0.10798 0.502991,-0.20399 0.76214,-0.28733 0.259148,-0.0833 0.523091,-0.154 0.791203,-0.21112 0.268111,-0.0571 0.540253,-0.10076 0.815749,-0.13011 0.275497,-0.0293 0.554316,-0.0444 0.835627,-0.0444 z"
             style="fill:#000000;fill-opacity:1"
             id="path22" /></g></g></g><path
       d="m -477.74881,345.48757 q -4.7287,-0.18803 -7.7506,-2.58956 a 15.424708,15.424708 0 0 1 -1.61,-1.61114 10.039571,10.039571 0 0 1 -1.7452,-3.14011 c -1.1416,-3.42046 -0.5539,-7.90714 1.6833,-12.83066 1.914,-4.21534 4.8649,-8.3969 10.0204,-14.18623 0.7498,-0.85342 3.0095,-3.34502 3.0241,-3.34502 0.015,0 -0.1182,0.21279 -0.2724,0.47287 -1.3398,2.24278 -2.4849,4.88525 -3.1098,7.17305 -1.002,3.66928 -0.8804,6.81953 0.3581,9.26159 0.8523,1.68208 2.3137,3.14011 3.9575,3.94062 2.8777,1.41074 7.0931,1.52671 12.2351,0.33776 0.3546,-0.0811 17.9016,-4.74113 39.0053,-10.35819 21.1037,-5.61708 38.3636,-10.19045 38.3636,-10.18707 0,0.003 -49.0179,20.98323 -74.4675,31.86272 -4.0307,1.72262 -5.1082,2.15834 -7.0031,2.82373 -4.8436,1.70348 -9.1816,2.51524 -12.6888,2.37564 z"
       id="path1-8"
       style="stroke-width:0.112589" /><path
       d="m -247.88199,300.3375 c -0.1541,0.005 -0.3095,0.0272 -0.4632,0.0626 -0.1538,0.0352 -0.3058,0.0834 -0.4529,0.13892 -0.1471,0.0556 -0.2893,0.11867 -0.4235,0.18395 -0.2685,0.13056 -0.5051,0.2702 -0.6847,0.37684 -0.3211,0.19055 -0.6251,0.39011 -0.9134,0.59774 -0.2882,0.20768 -0.5607,0.42328 -0.8187,0.64575 -0.258,0.22248 -0.5014,0.45183 -0.7317,0.68687 -0.2304,0.23503 -0.4477,0.47583 -0.653,0.72118 -0.2053,0.24536 -0.3989,0.49527 -0.5819,0.74867 -0.183,0.25339 -0.3555,0.51015 -0.5188,0.76934 -0.3265,0.51839 -0.6162,1.04622 -0.8797,1.57425 -0.2635,0.52803 -0.5008,1.05626 -0.7224,1.57589 -0.2216,0.51963 -0.4276,1.03062 -0.6284,1.52381 -0.2008,0.49319 -0.3963,0.96846 -0.5974,1.41714 -0.201,0.44871 -0.4075,0.87078 -0.63,1.25697 -0.1775,0.30848 -0.3689,0.60667 -0.572,0.89274 -0.203,0.28604 -0.4178,0.55991 -0.6419,0.81959 -0.2242,0.25963 -0.4578,0.50507 -0.6987,0.73438 -0.2409,0.22936 -0.4891,0.44264 -0.7423,0.63767 -0.2532,0.19508 -0.5114,0.37211 -0.7724,0.52895 -0.2611,0.15688 -0.5249,0.29356 -0.7894,0.40823 -0.2645,0.11472 -0.5296,0.2072 -0.7931,0.27576 -0.2635,0.0686 -0.5255,0.11316 -0.7836,0.13168 -0.3865,0.0288 -0.7805,0.0308 -1.1803,0.006 -0.3998,-0.0248 -0.8053,-0.0756 -1.2144,-0.1532 -0.4091,-0.0775 -0.8219,-0.18156 -1.236,-0.31168 -0.4142,-0.13015 -0.8299,-0.28643 -1.245,-0.46883 -0.5049,-0.22131 -0.9811,-0.45075 -1.4291,-0.68354 -0.448,-0.23276 -0.8678,-0.46879 -1.2595,-0.70363 -0.3916,-0.23483 -0.7552,-0.46843 -1.0911,-0.69595 -0.336,-0.22755 -0.6441,-0.44915 -0.9248,-0.65998 -0.5614,-0.42175 -1.0127,-0.80079 -1.3566,-1.09966 -0.3439,-0.29887 -0.5802,-0.51759 -0.7111,-0.61867 -0.2712,-0.20935 -1.0011,-0.8833 -2.05,-1.78176 -0.5245,-0.44924 -1.1287,-0.95451 -1.7952,-1.48597 -0.6666,-0.53147 -1.3954,-1.08922 -2.1692,-1.64289 -0.7737,-0.55367 -1.5922,-1.10326 -2.4382,-1.61909 -0.423,-0.25792 -0.8528,-0.50755 -1.2873,-0.74475 -0.4346,-0.23719 -0.8738,-0.46215 -1.3155,-0.67114 -0.4417,-0.209 -0.8858,-0.402 -1.3303,-0.57527 -0.4445,-0.17328 -0.8893,-0.32676 -1.3322,-0.45679 -0.4429,-0.13004 -0.8839,-0.23652 -1.3208,-0.31584 -0.437,-0.0793 -0.87,-0.13147 -1.2967,-0.15255 0,0 -0.2119,-0.4244 -0.4504,-0.85203 -0.1192,-0.21383 -0.2449,-0.42851 -0.3543,-0.59139 -0.1093,-0.16287 -0.2023,-0.27399 -0.2554,-0.28067 -0.062,-0.008 -0.1251,0 -0.1876,0.0252 -0.062,0.0236 -0.1247,0.0608 -0.1866,0.10768 -0.1238,0.0939 -0.2458,0.22639 -0.3638,0.36483 -0.118,0.13844 -0.2319,0.28295 -0.3392,0.40059 -0.1072,0.11764 -0.2077,0.20852 -0.2993,0.24 -0.043,0.014 -0.09,0.007 -0.1393,-0.0172 -0.05,-0.024 -0.1016,-0.0644 -0.1557,-0.11596 -0.1081,-0.10312 -0.2235,-0.25068 -0.3391,-0.39999 -0.1157,-0.14928 -0.2313,-0.30052 -0.3399,-0.41071 -0.054,-0.0551 -0.1067,-0.0998 -0.1565,-0.1292 -0.05,-0.0292 -0.097,-0.043 -0.1403,-0.036 -0.043,0.006 -0.086,0.032 -0.13,0.073 -0.044,0.0411 -0.088,0.0976 -0.1327,0.16619 -0.09,0.13716 -0.1853,0.32212 -0.2904,0.52627 -0.1051,0.20416 -0.2205,0.42756 -0.3512,0.64139 -0.1308,0.21384 -0.2771,0.41815 -0.4444,0.58435 -0.1222,0.11972 -0.2521,0.20764 -0.3832,0.28151 -0.1312,0.0739 -0.2635,0.13368 -0.3907,0.197 -0.1272,0.0634 -0.2494,0.1304 -0.3599,0.21848 -0.1105,0.0881 -0.2096,0.19731 -0.2906,0.34543 -0.062,0.11024 -0.083,0.25996 -0.1054,0.42743 -0.023,0.16748 -0.048,0.35275 -0.1172,0.53371 -0.034,0.0908 -0.079,0.17112 -0.1319,0.24392 -0.052,0.0728 -0.1124,0.13795 -0.1767,0.19823 -0.1286,0.12052 -0.2745,0.22144 -0.4118,0.32432 -0.1372,0.10287 -0.2659,0.20771 -0.3603,0.33627 -0.047,0.0643 -0.086,0.13448 -0.1126,0.21336 -0.027,0.0788 -0.042,0.16635 -0.042,0.26519 -4e-4,0.10676 0.012,0.2028 0.035,0.29019 0.023,0.0874 0.057,0.16612 0.1,0.23852 0.086,0.14488 0.2078,0.26436 0.3518,0.37599 0.1439,0.11168 0.3097,0.21556 0.4833,0.32952 0.1735,0.11391 0.3548,0.23787 0.5293,0.38963 0.2723,0.24331 0.4214,0.44903 0.585,0.62359 0.082,0.0873 0.1671,0.16687 0.2732,0.23939 0.1062,0.0725 0.2331,0.13788 0.398,0.19716 0.07,0.024 0.1451,0.0348 0.2234,0.0364 0.078,0 0.1602,-0.006 0.2449,-0.0204 0.1696,-0.0284 0.3506,-0.0814 0.5377,-0.13352 0.187,-0.0521 0.38,-0.10316 0.5734,-0.12712 0.097,-0.012 0.1934,-0.0172 0.2896,-0.0124 0.096,0.005 0.1918,0.0196 0.286,0.0478 0.1546,0.0459 0.3074,0.0886 0.4521,0.13684 0.1446,0.0482 0.281,0.10188 0.4024,0.16968 0.1215,0.0678 0.228,0.14975 0.313,0.25447 0.085,0.10472 0.1482,0.23228 0.1833,0.39127 0.031,0.14672 0.046,0.31356 0.039,0.47955 -0.01,0.166 -0.035,0.3312 -0.091,0.47479 -0.028,0.0718 -0.063,0.1382 -0.1048,0.19656 -0.042,0.0584 -0.092,0.10864 -0.1501,0.14844 -0.058,0.0396 -0.1243,0.069 -0.1995,0.085 -0.075,0.016 -0.1594,0.0188 -0.2532,0.006 -0.1264,-0.0144 -0.4642,-0.114 -0.9386,-0.1918 -0.2372,-0.0388 -0.5087,-0.0724 -0.8049,-0.0872 -0.2963,-0.0148 -0.6173,-0.0108 -0.954,0.0248 -0.4067,0.0462 -0.8277,0.11404 -1.2333,0.21808 -0.2028,0.052 -0.4017,0.11323 -0.5931,0.18519 -0.1913,0.072 -0.375,0.15472 -0.5475,0.25032 -0.1725,0.0956 -0.3338,0.20411 -0.48,0.32699 -0.1462,0.12292 -0.2774,0.2602 -0.3898,0.41403 -0.1125,0.15388 -0.2061,0.32416 -0.2774,0.51263 -0.071,0.18848 -0.1202,0.3952 -0.1428,0.62195 -0.012,0.12656 0,0.25604 0.023,0.38511 0.027,0.12908 0.072,0.25792 0.1337,0.38324 0.061,0.12527 0.1381,0.24695 0.228,0.36211 0.09,0.1152 0.1926,0.22372 0.3057,0.32247 0.1131,0.0987 0.2365,0.1878 0.3673,0.26376 0.1308,0.076 0.269,0.13896 0.4122,0.1858 0.1431,0.0469 0.2911,0.0775 0.4411,0.0889 0.1499,0.0112 0.3019,0.004 0.4532,-0.0268 0.1046,-0.0204 0.1898,-0.0538 0.2599,-0.0974 0.07,-0.0436 0.1251,-0.0974 0.1689,-0.15896 0.044,-0.0616 0.077,-0.13096 0.1023,-0.20528 0.026,-0.0743 0.044,-0.15359 0.06,-0.23543 0.031,-0.16364 0.05,-0.33708 0.09,-0.49959 0.02,-0.0812 0.045,-0.1598 0.079,-0.23296 0.034,-0.0732 0.078,-0.14084 0.1346,-0.20067 0.037,-0.0384 0.086,-0.0638 0.144,-0.0773 0.059,-0.0136 0.1271,-0.0156 0.2051,-0.007 0.156,0.0168 0.3497,0.0739 0.575,0.15999 0.4508,0.17216 1.0285,0.45943 1.6859,0.76583 0.3287,0.15319 0.6771,0.31115 1.0397,0.46199 0.3626,0.1508 0.7392,0.29447 1.1239,0.41895 0.3846,0.12452 0.7773,0.22984 1.1722,0.30407 0.3948,0.0742 0.7919,0.1174 1.1852,0.1174 0.3313,0 0.6413,-0.0208 0.9353,-0.0684 0.2941,-0.0474 0.5722,-0.12124 0.8394,-0.22719 0.2672,-0.10592 0.5236,-0.24388 0.7743,-0.4194 0.2508,-0.17551 0.4959,-0.38855 0.7406,-0.6447 0.046,-0.0396 0.097,-0.10116 0.1534,-0.1542 0.057,-0.053 0.1201,-0.0976 0.1908,-0.10312 0.067,0.006 0.1586,0.0412 0.2431,0.0825 0.084,0.0412 0.1618,0.0879 0.2003,0.11572 0.3167,0.25464 0.6237,0.54131 0.9368,0.8481 0.313,0.3068 0.6321,0.63367 0.9729,0.96883 0.3408,0.33515 0.7032,0.67866 1.1029,1.01842 0.3998,0.33975 0.837,0.67594 1.3271,0.9965 0.245,0.16027 0.5033,0.31655 0.7768,0.46755 0.2735,0.15103 0.5621,0.29675 0.8679,0.43555 0.3059,0.13876 0.6289,0.27059 0.9711,0.39415 0.3421,0.1236 0.7035,0.239 1.0858,0.34439 0.3823,0.1054 0.7857,0.2008 1.2121,0.28504 0.4264,0.0842 0.8759,0.15712 1.3504,0.21723 0.4745,0.0601 0.9738,0.10756 1.5002,0.14056 0.5264,0.0328 1.0798,0.0516 1.6621,0.0546 0.3277,0 0.6666,0.0426 1.0098,0.11968 0.3431,0.0772 0.6905,0.1908 1.0351,0.33899 0.3446,0.1482 0.6862,0.33084 1.018,0.54591 0.3318,0.21508 0.6536,0.46275 0.9585,0.74063 0.1359,0.12556 0.2647,0.25979 0.3873,0.40183 0.1226,0.142 0.2389,0.29175 0.35,0.44811 0.222,0.31275 0.4226,0.65203 0.6085,1.00954 0.1859,0.35747 0.3571,0.73327 0.5205,1.11866 0.1634,0.38539 0.319,0.7805 0.4735,1.17698 0.1167,0.29747 0.2448,0.59394 0.3847,0.89006 0.1399,0.29607 0.2917,0.59179 0.4554,0.88778 0.1637,0.296 0.3393,0.59227 0.5272,0.88942 0.188,0.29716 0.3881,0.59523 0.6008,0.89483 0.4253,0.59915 0.9007,1.20433 1.428,1.8208 0.5274,0.61651 1.1069,1.24426 1.7403,1.88824 0.1381,0.13808 2.2238,1.75969 2.3909,1.87997 0.013,0.01 0.058,0.10552 0.093,0.22467 0.035,0.11916 0.06,0.26128 0.033,0.36316 -0.015,0.38647 -0.041,0.95702 -0.018,1.59865 0.011,0.32079 0.034,0.65942 0.077,1.00166 0.043,0.34223 0.1048,0.68822 0.1935,1.02358 0.089,0.33539 0.204,0.66026 0.3532,0.96054 0.075,0.15015 0.1578,0.29407 0.2503,0.43015 0.092,0.13608 0.1944,0.26435 0.3066,0.38283 0.1122,0.11848 0.2348,0.2272 0.3685,0.32451 0.1338,0.0973 0.2788,0.18324 0.436,0.25592 0.157,0.0726 0.3262,0.13204 0.5084,0.17652 0.1823,0.0444 0.3778,0.0741 0.5871,0.0868 0.1023,0.005 0.1886,0 0.261,-0.012 0.072,-0.0124 0.1313,-0.0332 0.1788,-0.0604 0.048,-0.0272 0.084,-0.0609 0.1112,-0.0996 0.028,-0.0388 0.046,-0.0824 0.058,-0.1294 0.024,-0.0941 0.023,-0.20176 0.016,-0.31068 -0.01,-0.10895 -0.021,-0.21907 -0.021,-0.31791 0,-0.39147 -0.037,-0.78142 -0.022,-1.17386 0.01,-0.19623 0.029,-0.39311 0.073,-0.59094 0.044,-0.19788 0.113,-0.39692 0.216,-0.59739 0.07,-0.13768 0.1044,-0.26592 0.1104,-0.38984 0.01,-0.12391 -0.016,-0.24335 -0.059,-0.36319 -0.043,-0.1198 -0.105,-0.24007 -0.1796,-0.36543 -0.075,-0.12536 -0.1614,-0.25572 -0.2522,-0.39623 -0.091,-0.14056 -0.1857,-0.29124 -0.2764,-0.45663 -0.091,-0.16536 -0.1773,-0.34544 -0.2518,-0.54527 -0.074,-0.19984 -0.1368,-0.41932 -0.179,-0.66331 -0.042,-0.244 -0.064,-0.51251 -0.057,-0.81026 0,-0.22204 -0.015,-0.41172 -0.053,-0.57607 -0.039,-0.16436 -0.097,-0.30352 -0.1704,-0.4248 -0.073,-0.12127 -0.1615,-0.22451 -0.2604,-0.31727 -0.099,-0.0928 -0.2086,-0.17496 -0.3244,-0.25383 -0.2314,-0.15772 -0.4877,-0.30232 -0.7333,-0.49195 -0.1228,-0.0948 -0.2431,-0.20088 -0.3562,-0.32556 -0.1131,-0.12468 -0.219,-0.26803 -0.3135,-0.43719 -0.2183,-0.39199 -0.4244,-0.69175 -0.5724,-1.01346 -0.074,-0.16084 -0.1336,-0.32719 -0.1728,-0.51323 -0.039,-0.18604 -0.058,-0.39175 -0.051,-0.63147 0.021,-0.67446 0.019,-1.32009 0,-1.93512 -0.021,-0.61507 -0.061,-1.19962 -0.1162,-1.75201 -0.055,-0.55243 -0.1248,-1.07262 -0.2053,-1.55917 -0.08,-0.48655 -0.1715,-0.93934 -0.2691,-1.35677 -0.098,-0.41747 -0.2019,-0.79958 -0.3082,-1.14474 -0.1063,-0.34511 -0.2149,-0.6533 -0.3216,-0.9229 -0.1067,-0.26963 -0.2115,-0.50079 -0.3101,-0.69163 -0.099,-0.19083 -0.1909,-0.34135 -0.273,-0.45019 -0.2567,-0.32855 -0.4913,-0.55803 -0.603,-0.7433 -0.056,-0.0926 -0.081,-0.17432 -0.063,-0.25176 0.018,-0.0775 0.079,-0.15075 0.1966,-0.22675 0.3494,-0.23096 0.6651,-0.45983 0.95,-0.68359 0.2848,-0.22372 0.5389,-0.44239 0.7652,-0.65275 0.2262,-0.21035 0.4246,-0.41239 0.5982,-0.60315 0.1736,-0.19079 0.3224,-0.37015 0.4493,-0.53514 0.254,-0.33 0.4206,-0.60235 0.5236,-0.79211 0.1031,-0.18976 0.1426,-0.29703 0.1426,-0.29703 0.3717,-0.87339 0.7341,-1.72777 1.0972,-2.54015 0.3632,-0.81235 0.7272,-1.58273 1.1023,-2.28776 0.1876,-0.35251 0.3782,-0.68863 0.5726,-1.00562 0.1945,-0.31699 0.3929,-0.61479 0.5968,-0.89046 0.2038,-0.27568 0.4129,-0.52939 0.6288,-0.75799 0.2158,-0.22855 0.4384,-0.43203 0.6688,-0.60771 0.1855,-0.14531 0.5162,-0.39571 0.8736,-0.64446 0.3573,-0.2488 0.7411,-0.49599 1.0328,-0.63523 0.8604,-0.40535 1.5167,-0.73103 2.0204,-1.01614 0.2518,-0.14256 0.4656,-0.27492 0.6475,-0.40203 0.182,-0.12708 0.3323,-0.249 0.4573,-0.3704 0.099,-0.0962 0.1949,-0.20543 0.2861,-0.32495 0.091,-0.11948 0.1773,-0.24908 0.2563,-0.38611 0.079,-0.13704 0.1506,-0.28152 0.2124,-0.43035 0.062,-0.14884 0.1142,-0.30212 0.1542,-0.45704 0.04,-0.15487 0.068,-0.31151 0.081,-0.46671 0.014,-0.15523 0.013,-0.30911 -0.01,-0.45887 -0.018,-0.14979 -0.053,-0.29547 -0.1065,-0.43407 -0.054,-0.1386 -0.127,-0.27003 -0.2218,-0.39171 -0.1177,-0.1502 -0.2462,-0.2668 -0.3823,-0.35491 -0.1362,-0.0881 -0.2799,-0.14768 -0.4281,-0.18416 -0.1483,-0.0364 -0.3011,-0.0498 -0.4552,-0.0451 z m -104.2229,27.05271 v 25.56011 h 7.014 v -6.42264 h 7.0896 c 0.159,0 0.3141,-0.016 0.4639,-0.0465 0.1498,-0.0304 0.2944,-0.0758 0.432,-0.13396 0.1376,-0.0581 0.2683,-0.12923 0.3907,-0.21187 0.1223,-0.0826 0.2362,-0.1766 0.3402,-0.28072 0.104,-0.10408 0.1981,-0.21807 0.2807,-0.34063 0.083,-0.12252 0.1535,-0.25356 0.2117,-0.39147 0.058,-0.13796 0.1033,-0.28296 0.1339,-0.43327 0.03,-0.15032 0.047,-0.30604 0.047,-0.46568 v -14.53135 c 0,-0.15912 -0.016,-0.31452 -0.045,-0.46447 -0.03,-0.14996 -0.073,-0.29448 -0.1294,-0.43219 -0.056,-0.13776 -0.1251,-0.26864 -0.2053,-0.39108 -0.08,-0.12247 -0.1717,-0.23655 -0.273,-0.34067 -0.1014,-0.10408 -0.2128,-0.19824 -0.3326,-0.28087 -0.1198,-0.0827 -0.2481,-0.15372 -0.3835,-0.21188 -0.1354,-0.0582 -0.2778,-0.10352 -0.426,-0.13416 -0.1482,-0.0308 -0.3022,-0.0467 -0.4605,-0.0467 z m 18.7844,0 V 350.861 c 0,0.14391 0.014,0.28459 0.042,0.42043 0.028,0.13584 0.069,0.26699 0.1213,0.39191 0.053,0.12492 0.1169,0.24352 0.1916,0.35467 0.075,0.1112 0.1598,0.21484 0.2538,0.30944 0.094,0.0946 0.197,0.18031 0.3074,0.25547 0.1105,0.0752 0.2286,0.13992 0.3527,0.19288 0.124,0.053 0.2544,0.0941 0.3894,0.12196 0.1349,0.028 0.2746,0.0426 0.4175,0.0426 h 12.2649 c 0.1439,0 0.2842,-0.0148 0.4196,-0.0426 0.1353,-0.028 0.2659,-0.069 0.39,-0.12196 0.1242,-0.053 0.2421,-0.11768 0.3523,-0.19288 0.1101,-0.0752 0.2125,-0.16087 0.3061,-0.25547 0.093,-0.0946 0.1781,-0.19824 0.2524,-0.30944 0.074,-0.11115 0.138,-0.22975 0.1901,-0.35467 0.052,-0.12492 0.093,-0.25607 0.1201,-0.39191 0.028,-0.13584 0.042,-0.27652 0.042,-0.42043 v -23.47079 h -7.0117 l -0.01,21.29359 c 0,0.16288 -0.034,0.31783 -0.095,0.45907 -0.061,0.14128 -0.1498,0.26867 -0.2584,0.37619 -0.1086,0.10756 -0.2373,0.1954 -0.3793,0.25716 -0.142,0.0618 -0.2972,0.0976 -0.4587,0.10148 -0.1606,-0.004 -0.3153,-0.0396 -0.4568,-0.10148 -0.1415,-0.0618 -0.2699,-0.1496 -0.3783,-0.25716 -0.1083,-0.10752 -0.1967,-0.23491 -0.2579,-0.37619 -0.061,-0.14124 -0.095,-0.29619 -0.095,-0.45907 v -21.29359 z m 21.0797,0 c -0.1574,0 -0.3111,0.016 -0.4595,0.0465 -0.1484,0.0304 -0.2916,0.0753 -0.4281,0.13312 -0.1365,0.0578 -0.2662,0.1286 -0.3876,0.21084 -0.1214,0.0822 -0.2344,0.17587 -0.3377,0.27943 -0.1033,0.1036 -0.1968,0.21712 -0.2789,0.33899 -0.082,0.12192 -0.1528,0.25224 -0.2106,0.38944 -0.058,0.13719 -0.1027,0.28131 -0.1331,0.43079 -0.03,0.14944 -0.047,0.30431 -0.047,0.46299 v 23.26799 h 7.0252 v -21.34359 c 0,-0.16344 0.035,-0.31839 0.095,-0.45887 0.061,-0.14048 0.1474,-0.26647 0.2547,-0.37207 0.1072,-0.1056 0.2348,-0.19072 0.3764,-0.24948 0.1416,-0.0588 0.2973,-0.0912 0.4607,-0.0912 0.1637,0 0.3195,0.0316 0.4612,0.0891 0.1417,0.0575 0.2693,0.14104 0.377,0.24472 0.1077,0.10372 0.1953,0.22775 0.2569,0.36627 0.062,0.13856 0.097,0.29167 0.1011,0.45371 v 21.36139 h 6.995 v -21.36139 c 0,-0.16204 0.036,-0.31515 0.097,-0.45371 0.061,-0.13852 0.1478,-0.26255 0.255,-0.36627 0.1072,-0.10368 0.2345,-0.1872 0.376,-0.24472 0.1415,-0.0575 0.2973,-0.0891 0.461,-0.0891 0.162,0 0.3171,0.0324 0.4587,0.0912 0.1415,0.0588 0.2695,0.14388 0.3774,0.24948 0.1079,0.1056 0.1956,0.23159 0.2567,0.37207 0.061,0.14048 0.095,0.29543 0.097,0.45887 v 21.34359 h 7.0252 v -23.26799 c 0,-0.15868 -0.016,-0.31355 -0.047,-0.46299 -0.03,-0.14948 -0.076,-0.2936 -0.1335,-0.43079 -0.058,-0.1372 -0.1288,-0.26752 -0.2111,-0.38944 -0.082,-0.12187 -0.1758,-0.23539 -0.2792,-0.33899 -0.1035,-0.10356 -0.2167,-0.19724 -0.3382,-0.27943 -0.1215,-0.0822 -0.2513,-0.153 -0.3878,-0.21084 -0.1364,-0.0578 -0.2795,-0.10268 -0.4279,-0.13312 -0.1482,-0.0304 -0.3018,-0.0465 -0.4588,-0.0465 h -10.6222 z m 28.1871,0 c -0.1574,0 -0.3109,0.016 -0.4594,0.0465 -0.1484,0.0304 -0.2916,0.0753 -0.428,0.13312 -0.1365,0.0578 -0.2664,0.1286 -0.3878,0.21084 -0.1214,0.0822 -0.2345,0.17587 -0.3377,0.27943 -0.1034,0.1036 -0.1968,0.21712 -0.2789,0.33899 -0.082,0.12192 -0.1528,0.25224 -0.2106,0.38944 -0.058,0.13719 -0.1027,0.28131 -0.1331,0.43079 -0.03,0.14944 -0.046,0.30431 -0.046,0.46299 v 23.26799 h 7.0107 v -6.41704 h 2.3843 v 6.41704 h 7.0127 v -23.26799 c 0,-0.15868 -0.016,-0.31355 -0.046,-0.46299 -0.03,-0.14948 -0.075,-0.2936 -0.1331,-0.43079 -0.058,-0.1372 -0.1283,-0.26752 -0.2104,-0.38944 -0.082,-0.12187 -0.1756,-0.23539 -0.2788,-0.33899 -0.1033,-0.10356 -0.2166,-0.19724 -0.338,-0.27943 -0.1215,-0.0822 -0.2512,-0.153 -0.3878,-0.21084 -0.1366,-0.0578 -0.2799,-0.10268 -0.4285,-0.13312 -0.1486,-0.0304 -0.3025,-0.0465 -0.4601,-0.0465 z m -61.0372,3.04494 h 1.1916 c 0.1537,0 0.305,0.0316 0.4457,0.0901 0.1406,0.0585 0.2704,0.14392 0.3809,0.25156 0.1105,0.1076 0.2017,0.23735 0.2648,0.38467 0.063,0.14732 0.098,0.31204 0.097,0.48967 v 10.511 c 0,0.17707 -0.034,0.34059 -0.096,0.48635 -0.063,0.14576 -0.1533,0.27371 -0.2635,0.37951 -0.1102,0.1058 -0.2399,0.1894 -0.3807,0.2466 -0.1409,0.0572 -0.293,0.088 -0.4478,0.088 h -1.1916 z m 66.9552,0.0124 c 0.1637,0 0.3191,0.0312 0.4606,0.0882 0.1414,0.057 0.2687,0.13992 0.3761,0.24308 0.1074,0.10316 0.1949,0.22672 0.2566,0.36503 0.062,0.13836 0.097,0.29156 0.1017,0.45415 v 11.76917 h -2.3843 v -11.75037 c 0,-0.16231 0.036,-0.31655 0.097,-0.45659 0.061,-0.14008 0.1488,-0.26587 0.2565,-0.37147 0.1078,-0.1056 0.2357,-0.191 0.3771,-0.24988 0.1413,-0.0589 0.2962,-0.0914 0.4582,-0.0914 z"
       id="path6"
       style="stroke-width:0.399992" /><g
       id="g3847"
       style="fill:#000000;fill-opacity:1"
       transform="matrix(0.144645,0,0,0.144645,914.58645,733.67727)">&#10;  <title
   id="title3849">Layer 1</title>&#10;  &#10;  &#10;  &#10;  &#10;  &#10;  <path
   d="m -5827.2894,-2888.7511 v 150.0014 h 37.0829 v -117.0837 h 48.3307 c 1.6667,0 3.3459,0.1106 5.0093,0.3425 1.6634,0.232 3.3098,0.5854 4.9113,1.0704 1.6016,0.485 3.1612,1.1001 4.6423,1.8593 1.4811,0.7593 2.8875,1.661 4.1896,2.7157 1.3021,1.0546 2.4952,2.2618 3.5597,3.633 1.0644,1.3713 1.9963,2.9088 2.7645,4.6178 0.7682,1.709 1.3726,3.5897 1.786,5.6575 0.4134,2.0679 0.6361,4.3228 0.6361,6.7707 0,1.875 -0.1708,3.6951 -0.4955,5.4496 -0.3247,1.7546 -0.8033,3.4444 -1.425,5.046 -0.6218,1.6015 -1.3842,3.1161 -2.2753,4.5321 -0.8911,1.416 -1.907,2.7348 -3.0398,3.9328 -1.1328,1.1979 -2.3841,2.276 -3.7309,3.2232 -1.3468,0.9473 -2.791,1.758 -4.3242,2.4221 -1.5332,0.664 -3.1522,1.1807 -4.8441,1.529 -1.6919,0.3483 -3.4554,0.5321 -5.2783,0.5321 h -37.0829 v 31.248 h 26.2449 c 2.8125,0.1042 5.4249,0.3569 7.841,0.7646 2.4162,0.4077 4.6384,0.9687 6.6729,1.6881 2.0345,0.7194 3.8799,1.5968 5.5474,2.6361 1.6675,1.0392 3.1559,2.2414 4.471,3.6086 1.3151,1.3671 2.46,2.9022 3.4373,4.6055 0.9774,1.7033 1.7861,3.5795 2.4404,5.627 0.6543,2.0475 1.1526,4.2668 1.4985,6.6667 0.3459,2.3999 0.5412,4.9767 0.5933,7.7371 v 32.0859 h 39.1685 v -42.9178 c 0,-2.8125 -0.2464,-5.4593 -0.7094,-7.9389 -0.4631,-2.4797 -1.1436,-4.7899 -2.0062,-6.9481 -0.8626,-2.1582 -1.9083,-4.1642 -3.107,-6.0123 -1.1988,-1.8481 -2.5532,-3.5393 -4.0245,-5.0887 -1.4714,-1.5495 -3.0597,-2.9519 -4.7401,-4.2141 -1.6805,-1.2622 -3.4522,-2.3838 -5.2784,-3.3701 -1.8261,-0.9863 -3.7064,-1.8409 -5.6147,-2.5627 -1.9084,-0.7219 -3.8467,-1.3111 -5.7738,-1.7798 3.0208,-1.0417 5.8584,-2.2476 8.5016,-3.6025 2.6433,-1.355 5.0923,-2.8638 7.3579,-4.5077 2.2656,-1.6439 4.3445,-3.425 6.2325,-5.3334 1.888,-1.9083 3.5905,-3.9434 5.1009,-6.0918 1.5104,-2.1484 2.8306,-4.4066 3.9634,-6.7707 1.1328,-2.3641 2.0766,-4.8331 2.8318,-7.3884 0.7552,-2.5554 1.3227,-5.1984 1.7003,-7.9206 0.3776,-2.7221 0.5627,-5.5208 0.5627,-8.3854 -0.078,-2.0052 -0.2704,-3.9627 -0.5688,-5.8716 -0.2983,-1.9089 -0.7016,-3.7694 -1.2049,-5.578 -0.5033,-1.8087 -1.1051,-3.5677 -1.7982,-5.2723 -0.693,-1.7046 -1.475,-3.3575 -2.3425,-4.9541 -0.8675,-1.5967 -1.8174,-3.1391 -2.8441,-4.6239 -1.0267,-1.4849 -2.1321,-2.9122 -3.3027,-4.2814 -1.1707,-1.3692 -2.4072,-2.677 -3.7065,-3.9267 -1.2993,-1.2496 -2.6607,-2.4394 -4.0734,-3.5657 -1.4128,-1.1263 -2.8806,-2.1937 -4.3915,-3.1927 -1.5109,-0.9991 -3.0668,-1.9334 -4.6606,-2.8013 -3.1876,-1.7358 -6.5234,-3.2033 -9.9512,-4.3914 -3.4277,-1.1882 -6.9436,-2.0939 -10.4894,-2.7034 -1.7728,-0.3048 -3.5539,-0.5369 -5.3333,-0.6912 -1.7795,-0.1543 -3.5626,-0.2324 -5.3334,-0.2324 z m 472.0838,0 v 150.0014 h 69.1627 c 1.901,0 3.8129,-0.093 5.7248,-0.2692 1.9119,-0.1762 3.8254,-0.4358 5.7309,-0.7828 1.9055,-0.3471 3.8003,-0.7782 5.682,-1.2906 1.8818,-0.5124 3.7495,-1.1076 5.5903,-1.7798 1.8408,-0.6722 3.6549,-1.4243 5.4374,-2.2508 1.7825,-0.8265 3.5347,-1.728 5.2416,-2.7034 1.7069,-0.9753 3.3707,-2.0251 4.9848,-3.1437 1.614,-1.1187 3.1811,-2.3032 4.685,-3.5597 1.5039,-1.2565 2.9478,-2.5806 4.3242,-3.9695 1.3764,-1.3888 2.6827,-2.8452 3.9144,-4.3609 1.2317,-1.5156 2.3861,-3.0908 3.4557,-4.7278 1.0696,-1.6371 2.0516,-3.3358 2.9419,-5.0888 0.8903,-1.7529 1.6917,-3.5618 2.3854,-5.4251 0.6936,-1.8633 1.2817,-3.7811 1.7615,-5.7493 0.4797,-1.9681 0.8463,-3.9875 1.0948,-6.0551 0.2485,-2.0675 0.3792,-4.1811 0.3792,-6.3425 -0.052,-2.3177 -0.2111,-4.5811 -0.471,-6.783 -0.2599,-2.2018 -0.6227,-4.3461 -1.0764,-6.4282 -0.4537,-2.082 -0.9996,-4.1027 -1.6331,-6.0612 -0.6334,-1.9585 -1.3538,-3.8509 -2.1529,-5.682 -0.7991,-1.831 -1.6731,-3.597 -2.6239,-5.2967 -0.9508,-1.6997 -1.9758,-3.3346 -3.0642,-4.8991 -1.0885,-1.5645 -2.2437,-3.0639 -3.4557,-4.4893 -1.2121,-1.4255 -2.4827,-2.7787 -3.8043,-4.0612 -1.3216,-1.2826 -2.693,-2.4912 -4.1102,-3.627 -1.4171,-1.1357 -2.8806,-2.1953 -4.3792,-3.1804 -1.4986,-0.9851 -3.0334,-1.8973 -4.5994,-2.7279 -1.5661,-0.8306 -3.1635,-1.5847 -4.7829,-2.2569 -1.6195,-0.6722 -3.2587,-1.2638 -4.9175,-1.7737 -1.6588,-0.5099 -3.3373,-0.9345 -5.0215,-1.2783 -1.6841,-0.3438 -3.3749,-0.6029 -5.0704,-0.7768 -1.6954,-0.1738 -3.396,-0.263 -5.0887,-0.263 h -24.9972 v 31.6639 h 17.0828 c 1.7187,0 3.3979,0.1916 5.0214,0.5505 1.6235,0.3589 3.191,0.8854 4.6851,1.5658 1.4941,0.6803 2.9141,1.5127 4.2447,2.477 1.3305,0.9644 2.5736,2.0613 3.7064,3.2722 1.1328,1.211 2.1573,2.5372 3.0582,3.9573 0.9008,1.42 1.6771,2.9342 2.3119,4.526 0.6348,1.5918 1.1273,3.2587 1.4618,4.9848 0.3345,1.726 0.5076,3.5104 0.5076,5.3333 0,2.2396 -0.2247,4.3389 -0.6422,6.2937 -0.4174,1.9547 -1.0275,3.7642 -1.7859,5.4373 -0.7585,1.6732 -1.6682,3.2107 -2.6912,4.6056 -1.0229,1.3948 -2.1591,2.6478 -3.37,3.7676 -1.211,1.1198 -2.4942,2.1062 -3.8166,2.9541 -1.3224,0.848 -2.6793,1.5613 -4.0367,2.1407 -1.3574,0.5795 -2.7147,1.0254 -4.0306,1.3395 -1.3159,0.3141 -2.5942,0.4923 -3.7921,0.5443 h -30.8321 v -118.3313 z m 302.0822,0 v 150.0014 h 38.3306 v -46.6671 h 13.7494 c 2.3958,0 4.6785,0.1711 6.8318,0.5015 2.1534,0.3304 4.179,0.8173 6.0735,1.4618 1.8945,0.6445 3.6528,1.443 5.2722,2.3853 1.6195,0.9424 3.1001,2.0299 4.4282,3.2539 1.3281,1.2239 2.5086,2.5842 3.5291,4.0734 1.0205,1.4893 1.8783,3.1058 2.5749,4.8441 0.6966,1.7383 1.2277,3.6009 1.5841,5.5719 0.3565,1.971 0.5383,4.0511 0.5383,6.2386 v 18.3366 h 38.3367 v -17.0828 c 0,-2.8125 -0.1556,-5.53 -0.4771,-8.1407 -0.3214,-2.6107 -0.8071,-5.115 -1.4679,-7.5108 -0.6608,-2.3958 -1.4957,-4.6822 -2.5138,-6.8502 -1.018,-2.168 -2.2214,-4.2198 -3.6147,-6.1468 -1.3932,-1.9271 -2.9782,-3.7275 -4.7645,-5.4007 -1.7863,-1.6732 -3.7723,-3.2176 -5.9695,-4.6239 -2.1973,-1.4062 -4.6033,-2.678 -7.2294,-3.8043 -2.6262,-1.1263 -5.4715,-2.1086 -8.5445,-2.9419 3.2292,-0.9896 6.1668,-2.078 8.8442,-3.2784 2.6774,-1.2003 5.092,-2.509 7.26,-3.9511 2.1679,-1.442 4.0912,-3.0131 5.7921,-4.7278 1.7008,-1.7147 3.1766,-3.5782 4.4526,-5.5964 1.276,-2.0182 2.3542,-4.1917 3.2477,-6.5444 0.8936,-2.3527 1.6057,-4.8844 2.1591,-7.6025 0.5534,-2.7181 0.9494,-5.6257 1.2049,-8.7402 0.2555,-3.1144 0.3731,-6.4339 0.3731,-9.9756 v -4.1652 h -37.9209 v 6.2509 c 0,2.3437 -0.1216,4.6064 -0.373,6.7768 -0.2515,2.1704 -0.6327,4.2451 -1.1438,6.208 -0.5111,1.9629 -1.1539,3.814 -1.9327,5.5352 -0.7788,1.7212 -1.6915,3.3131 -2.7462,4.7585 -1.0547,1.4453 -2.2516,2.7485 -3.5903,3.8838 -1.3387,1.1352 -2.8218,2.102 -4.4526,2.893 -1.6309,0.791 -3.4084,1.4039 -5.3395,1.8165 -1.9312,0.4126 -4.0113,0.6239 -6.2508,0.6239 h -17.9207 v -71.6643 z m -86.2515,31.248 c -2.6042,0 -5.1551,0.099 -7.6454,0.2875 -2.4902,0.189 -4.9208,0.4721 -7.2906,0.844 -2.3697,0.3719 -4.6746,0.8336 -6.9174,1.3823 -2.2429,0.5487 -4.4228,1.1827 -6.5322,1.9021 -2.1094,0.7194 -4.153,1.5259 -6.1224,2.4098 -1.9694,0.884 -3.8652,1.8444 -5.6881,2.8869 -1.8229,1.0425 -3.5717,2.163 -5.2417,3.3579 -1.6699,1.1948 -3.2602,2.4631 -4.7706,3.8043 -1.5104,1.3411 -2.937,2.7572 -4.2814,4.2385 -1.3444,1.4814 -2.608,3.033 -3.7799,4.6484 -1.1718,1.6154 -2.2549,3.2964 -3.2477,5.0398 -0.9928,1.7434 -1.8961,3.5477 -2.7034,5.4129 -0.8073,1.8652 -1.5193,3.7866 -2.1346,5.7676 -0.6152,1.981 -1.1307,4.0195 -1.5474,6.1102 -0.4167,2.0906 -0.7364,4.234 -0.948,6.4282 -0.2116,2.1942 -0.3181,4.4423 -0.3181,6.734 0,2.1875 0.1194,4.3378 0.3487,6.4526 0.2293,2.1149 0.573,4.1927 1.0214,6.2264 0.4484,2.0337 1.0002,4.0255 1.6575,5.9695 0.6573,1.9439 1.4191,3.8424 2.2752,5.6881 0.8562,1.8457 1.8055,3.6373 2.8502,5.3762 1.0447,1.7389 2.1836,3.4224 3.4068,5.0459 1.2231,1.6235 2.5352,3.1854 3.9266,4.685 1.3914,1.4997 2.8604,2.9387 4.4098,4.3059 1.5495,1.3672 3.1773,2.6638 4.8747,3.8899 1.6974,1.2262 3.4677,2.3791 5.3028,3.4557 1.8351,1.0767 3.7377,2.0784 5.7004,2.997 1.9626,0.9186 3.9811,1.7557 6.0612,2.5077 2.0801,0.7519 4.2164,1.4171 6.4037,1.9939 2.1873,0.5767 4.4252,1.0626 6.7096,1.4556 2.2843,0.3931 4.6196,0.6922 6.9908,0.893 2.3712,0.2008 4.7816,0.3058 7.2295,0.3058 2.552,0 5.0571,-0.099 7.5107,-0.2936 2.4536,-0.1949 4.858,-0.486 7.205,-0.8685 2.347,-0.3824 4.6363,-0.8562 6.8686,-1.4189 2.2322,-0.5628 4.4044,-1.2155 6.5138,-1.9511 2.1093,-0.7357 4.1562,-1.5575 6.1346,-2.4588 1.9783,-0.9012 3.8917,-1.8823 5.7309,-2.9419 1.8392,-1.0596 3.6048,-2.1962 5.2967,-3.4067 1.6919,-1.2106 3.3076,-2.493 4.8441,-3.8472 1.5364,-1.3541 2.9941,-2.7787 4.367,-4.2691 1.3729,-1.4905 2.6582,-3.0473 3.8594,-4.6667 1.2011,-1.6195 2.3181,-3.3048 3.3394,-5.0459 1.0214,-1.7412 1.9496,-3.5391 2.7829,-5.3946 0.8334,-1.8555 1.5708,-3.7685 2.208,-5.7309 0.6372,-1.9625 1.1756,-3.9746 1.6086,-6.0368 0.4329,-2.0621 0.7581,-4.1697 0.9786,-6.3242 0.2205,-2.1545 0.3364,-4.3538 0.3364,-6.5933 0,-2.2917 -0.1095,-4.5398 -0.3242,-6.734 -0.2146,-2.1942 -0.5379,-4.3376 -0.9602,-6.4282 -0.4224,-2.0907 -0.9426,-4.1292 -1.5658,-6.1102 -0.6232,-1.981 -1.3481,-3.9024 -2.1652,-5.7676 -0.817,-1.8652 -1.7299,-3.6695 -2.7339,-5.4129 -1.004,-1.7434 -2.1004,-3.4244 -3.2845,-5.0398 -1.184,-1.6154 -2.4532,-3.167 -3.8104,-4.6484 -1.3572,-1.4813 -2.8008,-2.8974 -4.3242,-4.2385 -1.5234,-1.3412 -3.1307,-2.6095 -4.8135,-3.8043 -1.6827,-1.1949 -3.4432,-2.3154 -5.2783,-3.3579 -1.8351,-1.0425 -3.7443,-2.0029 -5.7248,-2.8869 -1.9806,-0.8839 -4.0278,-1.6904 -6.1469,-2.4098 -2.1191,-0.7194 -4.3059,-1.3534 -6.5566,-1.9021 -2.2508,-0.5487 -4.5665,-1.0104 -6.942,-1.3823 -2.3755,-0.3719 -4.8156,-0.655 -7.3089,-0.844 -2.4933,-0.189 -5.0412,-0.2875 -7.6453,-0.2875 z m -315.4157,1.6697 c -2.0052,0 -3.9873,0.1 -5.9389,0.2997 -1.9516,0.2001 -3.8731,0.5028 -5.7615,0.893 -1.8884,0.3902 -3.744,0.8731 -5.5597,1.4434 -1.8157,0.5704 -3.5939,1.2228 -5.3273,1.9634 -1.7334,0.7405 -3.4227,1.5641 -5.0642,2.4648 -1.6416,0.9008 -3.2367,1.8787 -4.7768,2.9297 -1.5401,1.051 -3.0236,2.1788 -4.4527,3.3701 -1.4291,1.1913 -2.8015,2.4521 -4.1101,3.7737 -1.3086,1.3216 -2.5525,2.7049 -3.7309,4.1468 -1.1785,1.442 -2.2946,2.9371 -3.3334,4.4894 -1.0388,1.5523 -2.0034,3.1608 -2.893,4.8135 -0.8896,1.6527 -1.7035,3.3517 -2.4343,5.0948 -0.7307,1.7432 -1.3764,3.5281 -1.9388,5.3517 -0.5624,1.8237 -1.0406,3.684 -1.4251,5.5781 -0.3845,1.8941 -0.6776,3.8252 -0.8746,5.7798 -0.1971,1.9547 -0.2997,3.9337 -0.2997,5.9389 0,2.0052 0.1026,3.9904 0.2997,5.945 0.197,1.9547 0.4901,3.8797 0.8746,5.7738 0.3845,1.8941 0.8627,3.7544 1.4251,5.578 0.5624,1.8236 1.2081,3.6147 1.9388,5.3579 0.7308,1.7431 1.5447,3.4421 2.4343,5.0948 0.8896,1.6527 1.8542,3.2551 2.893,4.8074 1.0388,1.5523 2.1549,3.0535 3.3334,4.4955 1.1784,1.4419 2.4223,2.8252 3.7309,4.1468 1.3086,1.3216 2.681,2.5824 4.1101,3.7737 1.4291,1.1913 2.9126,2.3129 4.4527,3.364 1.5401,1.051 3.1352,2.0289 4.7768,2.9297 1.6415,0.9007 3.3308,1.7243 5.0642,2.4648 1.7334,0.7406 3.5116,1.3991 5.3273,1.9694 1.8157,0.5704 3.6713,1.0533 5.5597,1.4435 1.8884,0.3902 3.8099,0.6867 5.7615,0.8868 1.9516,0.2001 3.9337,0.3059 5.9389,0.3059 h 73.334 v -31.6701 h -67.4991 c -1.7708,0.052 -3.5126,-0.09 -5.1988,-0.4097 -1.6862,-0.3199 -3.3183,-0.8137 -4.8808,-1.468 -1.5625,-0.6542 -3.0529,-1.4707 -4.4526,-2.422 -1.3998,-0.9513 -2.7104,-2.0368 -3.9083,-3.2477 -1.1979,-1.211 -2.2846,-2.5425 -3.2416,-3.9756 -0.9571,-1.4331 -1.7817,-2.9694 -2.4588,-4.5872 -0.6771,-1.6178 -1.2077,-3.3175 -1.5658,-5.0826 -0.358,-1.7651 -0.5443,-3.5991 -0.5443,-5.4741 0,-1.8749 0.1855,-3.702 0.5443,-5.4679 0.3589,-1.7659 0.8916,-3.4677 1.5719,-5.0887 0.6804,-1.6211 1.5067,-3.159 2.471,-4.5995 0.9643,-1.4404 2.0674,-2.7822 3.2783,-4.0061 1.2109,-1.224 2.5311,-2.3311 3.9511,-3.3028 1.4201,-0.9717 2.9343,-1.8118 4.5261,-2.4954 1.5917,-0.6836 3.2648,-1.2122 4.9908,-1.5719 1.7261,-0.3597 3.5105,-0.5505 5.3334,-0.5505 h 30.4162 l -24.5874,40.8322 h 36.667 l 24.5874,-38.3306 v -33.7496 z m -149.5855,0.4159 c -2.0051,0 -3.9873,0.1058 -5.9388,0.3059 -1.9516,0.2 -3.8732,0.4966 -5.7616,0.8868 -1.8884,0.3902 -3.744,0.8731 -5.5596,1.4435 -1.8157,0.5703 -3.5878,1.2288 -5.3212,1.9694 -1.7334,0.7405 -3.4289,1.5641 -5.0704,2.4648 -1.6415,0.9008 -3.2306,1.8787 -4.7707,2.9297 -1.5401,1.051 -3.0296,2.1727 -4.4587,3.364 -1.4291,1.1913 -2.8016,2.4521 -4.1101,3.7737 -1.3086,1.3216 -2.5525,2.7049 -3.731,4.1468 -1.1784,1.442 -2.2884,2.9432 -3.3272,4.4955 -1.0388,1.5523 -2.0095,3.1547 -2.8991,4.8074 -0.8896,1.6527 -1.6974,3.3517 -2.4282,5.0948 -0.7308,1.7432 -1.3825,3.5281 -1.945,5.3518 -0.5624,1.8236 -1.0344,3.69 -1.4189,5.5841 -0.3845,1.8941 -0.6776,3.8191 -0.8746,5.7738 -0.1971,1.9546 -0.2997,3.9336 -0.2997,5.9388 0,2.0052 0.1026,3.9904 0.2997,5.945 0.197,1.9547 0.4901,3.8797 0.8746,5.7738 0.3845,1.8941 0.8565,3.7605 1.4189,5.5841 0.5625,1.8237 1.2142,3.6086 1.945,5.3518 0.7308,1.7431 1.5386,3.4421 2.4282,5.0948 0.8896,1.6527 1.8603,3.2551 2.8991,4.8074 1.0388,1.5523 2.1488,3.0535 3.3272,4.4955 1.1785,1.4419 2.4224,2.8252 3.731,4.1468 1.3085,1.3216 2.681,2.5824 4.1101,3.7737 1.4291,1.1913 2.9186,2.313 4.4587,3.364 1.5401,1.051 3.1292,2.0289 4.7707,2.9297 1.6415,0.9007 3.337,1.7243 5.0704,2.4648 1.7334,0.7406 3.5055,1.3991 5.3212,1.9694 1.8156,0.5704 3.6712,1.0533 5.5596,1.4435 1.8884,0.3902 3.81,0.6868 5.7616,0.8868 1.9515,0.2001 3.9337,0.3059 5.9388,0.3059 h 73.334 v -31.6701 h -67.0831 c -1.8229,0 -3.6074,-0.1846 -5.3334,-0.5443 -1.7261,-0.3597 -3.393,-0.8944 -4.9848,-1.578 -1.5918,-0.6836 -3.1059,-1.5176 -4.526,-2.4893 -1.4201,-0.9717 -2.7463,-2.0788 -3.9572,-3.3028 -1.211,-1.2239 -2.3079,-2.5657 -3.2722,-4.0061 -0.9644,-1.4405 -1.7968,-2.9784 -2.4771,-4.5995 -0.6803,-1.6211 -1.2069,-3.3228 -1.5658,-5.0887 -0.3589,-1.7659 -0.5504,-3.5991 -0.5504,-5.4741 0,-1.8749 0.1915,-3.702 0.5504,-5.4679 0.3589,-1.7659 0.8855,-3.4677 1.5658,-5.0887 0.6803,-1.6211 1.5127,-3.159 2.4771,-4.5995 0.9643,-1.4404 2.0612,-2.7822 3.2722,-4.0061 1.2109,-1.224 2.5371,-2.3311 3.9572,-3.3028 1.4201,-0.9717 2.9342,-1.8118 4.526,-2.4954 1.5918,-0.6836 3.2587,-1.2122 4.9848,-1.5719 1.726,-0.3597 3.5105,-0.5505 5.3334,-0.5505 h 30.4161 l -24.5812,41.2542 h 36.667 l 24.5812,-38.3367 v -33.7496 z m 465.0012,27.9147 c 2.1354,0 4.2224,0.2214 6.2447,0.6422 2.0223,0.4207 3.9819,1.0434 5.8471,1.841 1.8652,0.7975 3.6386,1.7748 5.3028,2.9052 1.6642,1.1304 3.2169,2.4156 4.6361,3.8349 1.4193,1.4193 2.7046,2.9719 3.8349,4.6361 1.1304,1.6642 2.1077,3.4376 2.9053,5.3028 0.7975,1.8652 1.4141,3.8188 1.8348,5.841 0.4208,2.0223 0.6422,4.1155 0.6422,6.2509 0,2.1354 -0.2137,4.2224 -0.6238,6.2447 -0.4102,2.0223 -1.0169,3.9758 -1.7982,5.841 -0.7812,1.8652 -1.7369,3.6447 -2.8502,5.3089 -1.1132,1.6642 -2.3797,3.2169 -3.7859,4.6361 -1.4063,1.4193 -2.9515,2.7046 -4.6117,3.8349 -1.6601,1.1304 -3.44,2.1016 -5.315,2.8992 -1.875,0.7975 -3.8453,1.4202 -5.8961,1.8409 -2.0508,0.4208 -4.1795,0.6423 -6.367,0.6423 -2.1875,0 -4.3163,-0.2215 -6.3671,-0.6423 -2.0507,-0.4207 -4.0211,-1.0434 -5.896,-1.8409 -1.875,-0.7976 -3.6549,-1.7688 -5.3151,-2.8992 -1.6601,-1.1303 -3.2054,-2.4156 -4.6116,-3.8349 -1.4063,-1.4192 -2.6727,-2.9719 -3.786,-4.6361 -1.1133,-1.6642 -2.0689,-3.4437 -2.8502,-5.3089 -0.7812,-1.8652 -1.388,-3.8187 -1.7982,-5.841 -0.4101,-2.0223 -0.6238,-4.1093 -0.6238,-6.2447 0,-2.1354 0.2214,-4.2286 0.6422,-6.2509 0.4207,-2.0222 1.0373,-3.9758 1.8349,-5.841 0.7975,-1.8652 1.7748,-3.6386 2.9052,-5.3028 1.1304,-1.6642 2.4156,-3.2168 3.8349,-4.6361 1.4192,-1.4193 2.9719,-2.7045 4.6361,-3.8349 1.6642,-1.1304 3.4376,-2.1077 5.3028,-2.9052 1.8652,-0.7976 3.8188,-1.4203 5.841,-1.841 2.0223,-0.4208 4.1155,-0.6422 6.2509,-0.6422 z"
   id="path5"
   style="fill:#000000;fill-opacity:1" />&#10;  &#10;  &#10;  &#10;  &#10; </g><g
       style="fill:#000000"
       id="g1"
       transform="matrix(0.44359315,0,0,0.44359315,-208.86345,295.47035)"><path
         d="m 63.652231,9.0044265e-5 c 0,0 -0.933196,0.102970085735 -2.63789,0.370312495735 C 59.309646,0.63774496 56.833247,1.0693043 53.7452,1.725676 c -1.544023,0.3281858 -3.241093,0.7124827 -5.070703,1.1607422 -1.82961,0.4482595 -3.791964,0.9604013 -5.866992,1.5439453 -2.075029,0.5835439 -4.262885,1.2388123 -6.543164,1.9728516 -2.28028,0.7340393 -4.65327,1.5471295 -7.098633,2.446875 -2.785611,1.0231198 -5.330287,2.0012879 -7.651172,2.9302739 -2.320885,0.928985 -4.41758,1.808582 -6.307031,2.633789 -1.889452,0.825206 -3.571775,1.596224 -5.063086,2.308007 C 8.6531079,17.433944 7.3527178,18.086374 6.2262547,18.67509 3.9733285,19.852522 2.4166169,20.774749 1.423325,21.402043 0.43003308,22.029337 8.2800188e-5,22.361809 8.2800188e-5,22.361809 0.05170754,23.43146 0.15374576,24.495623 0.3047703,25.552824 c 0.15102454,1.057202 0.35086098,2.107773 0.59882813,3.151172 0.24796717,1.0434 0.54407087,2.079568 0.88652347,3.107813 0.3424525,1.028245 0.7315349,2.048613 1.1660156,3.060351 0.4344807,1.011739 0.9144248,2.014911 1.4384766,3.008789 0.5240517,0.993879 1.0921548,1.978458 1.7033203,2.953125 0.6111655,0.974668 1.2653107,1.939257 1.9611328,2.89336 0.6958221,0.954103 1.4333066,1.897891 2.2113278,2.830078 0.778022,0.932187 1.596729,1.852606 2.454493,2.761523 0.857763,0.908918 1.754404,1.806329 2.689453,2.690625 0.935048,0.884297 1.908092,1.755545 2.917968,2.613868 1.009877,0.858323 2.056621,1.703768 3.138868,2.534765 1.082247,0.830997 2.199988,1.648073 3.352148,2.450391 1.15216,0.802318 2.338782,1.589627 3.558398,2.361914 1.219617,0.772287 2.472416,1.529018 3.757032,2.269922 1.284615,0.740904 2.601475,1.466246 3.948633,2.174414 1.347157,0.708168 2.724789,1.399553 4.132031,2.073633 1.287848,0.616889 2.60716,1.215088 3.943359,1.802343 -1.324765,0.582587 -2.633331,1.175401 -3.910547,1.78711 -1.407524,0.674118 -2.78577,1.366022 -4.133203,2.074219 -1.347433,0.708196 -2.664335,1.432905 -3.949219,2.173828 -1.284883,0.740922 -2.537742,1.497625 -3.757617,2.269922 -1.219875,0.772296 -2.406576,1.560181 -3.558984,2.3625 -1.152408,0.802318 -2.270838,1.619403 -3.35332,2.45039 -1.082483,0.830988 -2.129354,1.675875 -3.139454,2.53418 -1.010099,0.858305 -1.983297,1.730183 -2.918554,2.614453 -0.935258,0.88427 -1.832668,1.781156 -2.690625,2.690039 -0.857957,0.908883 -1.676294,1.82938 -2.454492,2.761524 -0.7781986,0.932144 -1.5159337,1.876025 -2.2119146,2.830078 -0.6959808,0.954052 -1.3504135,1.91875 -1.9617187,2.893359 -0.6113052,0.974608 -1.1797352,1.959308 -1.7039063,2.953128 -0.5241711,0.99381 -1.0038979,1.99653 -1.4384765,3.0082 -0.4345786,1.01167 -0.8240739,2.03219 -1.1666016,3.06035 -0.3425277,1.02817 -0.638505,2.06391 -0.88652344,3.10723 -0.24801839,1.04331 -0.44777745,2.09406 -0.59882812,3.15117 -0.15105067,1.05711 -0.25306297,2.12088 -0.3046875,3.19043 0,0 0.43107926,0.33201 1.42558596,0.95801 0.9945067,0.62599 2.5521531,1.54569 4.8064453,2.72168 1.1271461,0.58799 2.4286755,1.24051 3.9205075,1.95176 1.491833,0.71124 3.173994,1.48125 5.063672,2.30625 1.889679,0.82499 3.986933,1.70454 6.307617,2.63378 2.320685,0.92925 4.86515,1.90863 7.65,2.93262 2.445228,0.89974 4.81824,1.71245 7.098633,2.44629 2.280394,0.73385 4.468425,1.38847 6.54375,1.97168 2.075325,0.58321 4.038142,1.09551 5.868164,1.54336 1.830023,0.44785 3.527389,0.83182 5.071875,1.15957 3.088973,0.65549 5.566649,1.08566 7.272071,1.35234 1.705422,0.26669 2.638476,0.36973 2.638476,0.36973 l -0.07617,-42.67207 c 0,-1.127177 0.08014,-2.258722 0.237891,-3.389649 0.157752,-1.130926 0.393451,-2.26135 0.706055,-3.386132 0.312603,-1.124782 0.702046,-2.24399 1.166601,-3.352735 0.464556,-1.108744 1.004166,-2.207224 1.617774,-3.290039 0.613607,-1.082814 1.300982,-2.149883 2.060742,-3.196875 0.503522,-0.693881 1.086859,-1.363356 1.653515,-2.03789 0.872921,0.210792 1.734968,0.432508 2.618555,0.632226 1.759018,0.397593 3.539032,0.773487 5.338477,1.126172 1.799445,0.352685 3.618836,0.682637 5.45625,0.989063 1.837414,0.306425 3.692894,0.589037 5.56582,0.847851 1.872927,0.258814 3.76355,0.493861 5.669531,0.703711 1.905982,0.20985 3.827874,0.394764 5.764456,0.554297 1.93657,0.159533 3.88762,0.293503 5.85234,0.401367 1.96472,0.107864 3.94338,0.189493 5.93379,0.244336 1.9904,0.05484 3.99281,0.08273 6.00644,0.0832 h 0.0152 c 2.01375,-4.69e-4 4.01648,-0.02836 6.00703,-0.0832 1.99054,-0.05484 3.96891,-0.136472 5.93379,-0.244336 1.96488,-0.107864 3.91618,-0.241834 5.85293,-0.401367 1.93675,-0.159533 3.85887,-0.344447 5.76504,-0.554297 1.90616,-0.20985 3.79641,-0.444897 5.66953,-0.703711 1.87312,-0.258814 3.72938,-0.541426 5.56699,-0.847851 1.83762,-0.306426 3.65718,-0.636378 5.45684,-0.989063 1.79965,-0.352685 3.57983,-0.728579 5.33906,-1.126172 0.90197,-0.203848 1.78219,-0.429734 2.67305,-0.645117 0.57072,0.678625 1.15726,1.352557 1.66406,2.050781 0.75995,1.046998 1.44754,2.114054 2.06133,3.196875 0.61378,1.082821 1.15365,2.181288 1.61836,3.290039 0.4647,1.108752 0.85389,2.227946 1.1666,3.352735 0.31271,1.124788 0.54883,2.2552 0.70664,3.386132 0.15781,1.130933 0.2373,2.262465 0.2373,3.389649 l -0.075,42.67207 c 0,0 0.93301,-0.10304 2.63789,-0.36973 1.70489,-0.26668 4.18176,-0.69684 7.27032,-1.35234 1.54427,-0.32775 3.24132,-0.71172 5.07129,-1.15957 1.82996,-0.44785 3.79324,-0.96014 5.86875,-1.54336 2.0755,-0.58322 4.26345,-1.23783 6.54433,-1.97168 2.28089,-0.73385 4.65427,-1.54654 7.10039,-2.44629 2.78574,-1.024 5.33136,-2.00337 7.65235,-2.93262 2.32098,-0.92924 4.4175,-1.80879 6.30703,-2.63378 1.88952,-0.825 3.57172,-1.59501 5.06308,-2.30625 1.49137,-0.71125 2.79226,-1.36376 3.91875,-1.95176 2.253,-1.176 3.80962,-2.09568 4.80293,-2.72168 0.99331,-0.626 1.42324,-0.95801 1.42324,-0.95801 -0.0514,-1.06956 -0.15328,-2.13331 -0.3041,-3.19043 -0.15082,-1.05712 -0.35044,-2.10785 -0.59824,-3.15117 -0.2478,-1.04332 -0.54361,-2.07906 -0.88594,-3.10723 -0.34233,-1.02817 -0.73162,-2.04868 -1.16601,-3.06035 -0.4344,-1.01167 -0.91389,-2.01438 -1.43789,-3.0082 -0.524,-0.99382 -1.09218,-1.97851 -1.70332,-2.953128 -0.61115,-0.974615 -1.2653,-1.939301 -1.96114,-2.893359 -0.69583,-0.954059 -1.43326,-1.897929 -2.21132,-2.830078 -0.77807,-0.93215 -1.59666,-1.852635 -2.4545,-2.761524 -0.85783,-0.908888 -1.75489,-1.805763 -2.69004,-2.690039 -0.93514,-0.884275 -1.90856,-1.756143 -2.91855,-2.614453 -1.00999,-0.85831 -2.05707,-1.703187 -3.13945,-2.53418 -1.08239,-0.830992 -2.20042,-1.648067 -3.35274,-2.45039 -1.15231,-0.802323 -2.33861,-1.590199 -3.5584,-2.3625 -1.21978,-0.772302 -2.47281,-1.528995 -3.75761,-2.269922 -1.28481,-0.740927 -2.60128,-1.465627 -3.94864,-2.173828 -1.34735,-0.708201 -2.72575,-1.400096 -4.1332,-2.074219 -1.28766,-0.616749 -2.60678,-1.214617 -3.94277,-1.801758 1.32527,-0.582774 2.63462,-1.175765 3.9123,-1.787695 1.40743,-0.674074 2.78528,-1.365472 4.13262,-2.073633 1.34734,-0.708161 2.66443,-1.433517 3.94922,-2.174414 1.28479,-0.740897 2.53725,-1.497642 3.75703,-2.269922 1.21978,-0.77228 2.40667,-1.559604 3.55898,-2.361914 1.15231,-0.80231 2.27035,-1.619402 3.35274,-2.450391 1.08238,-0.830988 2.12945,-1.676451 3.13945,-2.534765 1.01,-0.858315 1.98282,-1.72958 2.91797,-2.613868 0.93515,-0.884287 1.83278,-1.781716 2.69062,-2.690625 0.85785,-0.908908 1.67641,-1.829346 2.4545,-2.761523 0.77808,-0.932177 1.51546,-1.875984 2.21133,-2.830078 0.69586,-0.954094 1.34994,-1.918702 1.96113,-2.89336 0.61118,-0.974657 1.17927,-1.959256 1.70332,-2.953125 0.52404,-0.993868 1.00403,-1.997061 1.43847,-3.008789 0.43445,-1.011728 0.82363,-2.032117 1.16602,-3.060351 0.34239,-1.028235 0.63806,-2.064424 0.88594,-3.107813 0.24787,-1.043389 0.44792,-2.093981 0.59883,-3.151172 0.1509,-1.05719 0.25263,-2.121375 0.3041,-3.191015 0,0 -0.42985,-0.332478 -1.42324,-0.959766 -0.9934,-0.627287 -2.55043,-1.549533 -4.80352,-2.726953 -1.12655,-0.58871 -2.42735,-1.241153 -3.91875,-1.95293 -1.4914,-0.711776 -3.17354,-1.482809 -5.06309,-2.308007 -1.88955,-0.825199 -3.98663,-1.704813 -6.30761,-2.633789 -2.32099,-0.928977 -4.86605,-1.9071643 -7.65176,-2.9302739 -2.44434,-0.8996115 -4.81642,-1.7129114 -7.09629,-2.446875 -2.27987,-0.7339636 -4.46748,-1.388751 -6.54258,-1.9722657 C 193.67084,3.8474347 191.7078,3.3352689 189.87778,2.8870041 188.0478,2.4387394 186.35058,2.0544757 184.80594,1.7262619 181.71668,1.0698343 179.23857,0.63840635 177.5327,0.37098848 175.82684,0.10357062 174.89305,9.0044265e-5 174.89305,9.0044265e-5 L 174.96688,42.679192 c 0,1.12742 -0.0795,2.259044 -0.2373,3.390234 -0.15781,1.13119 -0.39395,2.261657 -0.70665,3.386719 -0.31269,1.125062 -0.70192,2.24487 -1.1666,3.353906 -0.46468,1.109036 -1.0046,2.207512 -1.61836,3.290625 -0.61375,1.083113 -1.3014,2.150756 -2.06132,3.198047 -0.50435,0.695065 -1.08879,1.365746 -1.65645,2.041406 -0.87338,-0.210938 -1.73626,-0.432369 -2.62031,-0.632226 -1.75924,-0.397712 -3.5394,-0.773356 -5.33906,-1.126172 -1.79967,-0.352817 -3.61922,-0.68308 -5.45684,-0.989649 -1.83762,-0.306569 -3.69328,-0.589468 -5.56641,-0.848437 -1.87312,-0.258969 -3.76336,-0.493694 -5.66953,-0.703711 -1.90616,-0.210017 -3.82829,-0.39517 -5.76504,-0.554883 -1.93674,-0.159713 -3.88806,-0.293896 -5.85293,-0.401953 -1.96487,-0.108057 -3.94325,-0.189874 -5.93379,-0.244922 -1.99053,-0.05505 -3.99329,-0.08369 -6.00703,-0.08437 -2.01389,6.88e-4 -4.01694,0.02933 -6.00761,0.08437 -1.99068,0.05505 -3.96938,0.136865 -5.93438,0.244922 -1.965,0.108057 -3.91664,0.24224 -5.85352,0.401953 -1.936866,0.159713 -3.858754,0.344866 -5.765034,0.554883 -1.90628,0.210017 -3.796886,0.444742 -5.670117,0.703711 -1.873231,0.258969 -3.729269,0.541868 -5.566993,0.848437 -1.837723,0.306569 -3.657078,0.636832 -5.456836,0.989649 -1.799757,0.352816 -3.580315,0.72846 -5.339648,1.126172 -0.902693,0.204061 -1.783829,0.430092 -2.675391,0.645703 C 70.46805,60.673616 69.880279,59.998384 69.372739,59.298723 68.613019,58.251421 67.92558,57.1838 67.311997,56.100676 66.698414,55.017553 66.158766,53.919099 65.694224,52.810051 65.229681,51.701004 64.84022,50.581218 64.527622,49.456145 64.215024,48.331071 63.979318,47.200628 63.821567,46.069426 63.663817,44.938224 63.584263,43.806624 63.584263,42.679192 Z M 119.29286,60.679778 h 0.0152 l 0.48984,0.01523 c 2.1758,0 4.29521,0.07449 6.35684,0.219141 2.06163,0.144646 4.0654,0.359272 6.00996,0.638672 1.94456,0.279399 3.83031,0.62406 5.65488,1.02832 1.82458,0.404259 3.58817,0.868273 5.28985,1.3875 1.70168,0.519227 3.34131,1.093668 4.91719,1.717969 1.57587,0.624301 3.08799,1.298486 4.53515,2.017968 1.44716,0.719483 2.82938,1.483902 4.14492,2.288672 0.1453,0.08888 0.27001,0.189637 0.41368,0.279492 -0.15365,0.09628 -0.28746,0.203663 -0.44297,0.298829 -1.31552,0.805028 -2.69778,1.569539 -4.14493,2.289257 -1.44714,0.719719 -2.95928,1.394631 -4.53515,2.019141 -1.57587,0.62451 -3.21551,1.198565 -4.91719,1.717969 -1.70168,0.519403 -3.46584,0.984272 -5.29043,1.388672 -1.82458,0.404399 -3.70972,0.748823 -5.6543,1.02832 -1.94458,0.279497 -3.94887,0.493974 -6.01054,0.638672 -2.06167,0.144697 -4.18099,0.21914 -6.35684,0.21914 h -0.99609 c -2.1756,0 -4.29486,-0.07444 -6.35625,-0.21914 -2.0614,-0.144698 -4.06508,-0.359175 -6.00938,-0.638672 -1.94429,-0.279497 -3.82942,-0.623921 -5.65371,-1.02832 -1.824284,-0.4044 -3.587879,-0.869269 -5.289256,-1.388672 -1.701376,-0.519404 -3.340452,-1.093459 -4.916015,-1.717969 -1.575563,-0.62451 -3.087724,-1.299422 -4.534571,-2.019141 -1.446846,-0.719718 -2.828523,-1.484229 -4.14375,-2.289257 -0.144665,-0.08855 -0.268861,-0.188808 -0.411914,-0.278321 0.154106,-0.09655 0.288161,-0.204569 0.444141,-0.3 1.315373,-0.80477 2.69731,-1.569189 4.144336,-2.288672 1.447026,-0.719482 2.959377,-1.393667 4.535156,-2.017968 1.575779,-0.624301 3.214969,-1.198742 4.916602,-1.717969 1.701632,-0.519227 3.465257,-0.983241 5.289841,-1.3875 1.82459,-0.40426 3.71025,-0.748921 5.65489,-1.02832 1.94463,-0.2794 3.94875,-0.494026 6.01054,-0.638672 2.0618,-0.144647 4.18138,-0.219141 6.35742,-0.219141 z"
         id="path4" /></g></g></svg>
