<?xml version="1.0" encoding="UTF-8" standalone="no"?>
<!DOCTYPE svg PUBLIC "-//W3C//DTD SVG 1.1//EN" "http://www.w3.org/Graphics/SVG/1.1/DTD/svg11.dtd">
<svg width="100%" height="100%" viewBox="0 0 550 250" version="1.1" xmlns="http://www.w3.org/2000/svg" xmlns:xlink="http://www.w3.org/1999/xlink" xml:space="preserve" xmlns:serif="http://www.serif.com/" style="fill-rule:evenodd;clip-rule:evenodd;stroke-linejoin:round;stroke-miterlimit:2;">
    <g transform="matrix(0.816994,0,0,0.893784,-62.1765,-111.439)">
        <rect id="Prancheta1" x="76.104" y="124.682" width="673.199" height="279.71" style="fill:none;"/>
        <g id="Prancheta11" serif:id="Prancheta1">
            <g transform="matrix(1.59198,0,0,1.45521,-118.593,172.757)">
                <path d="M313.19,48.227L291.933,48.227L291.933,50.482C298.582,50.482 299.651,51.907 299.651,60.339L299.651,75.54C299.651,83.971 298.583,85.515 291.933,85.515C286.828,84.803 283.383,82.071 278.633,76.846L273.171,70.909C280.533,69.601 284.451,64.971 284.451,59.745C284.451,53.215 278.871,48.227 268.42,48.227L247.52,48.227L247.52,50.482C254.169,50.482 255.238,51.907 255.238,60.339L255.238,75.54C255.238,83.971 254.169,85.515 247.52,85.515L247.52,87.771L271.151,87.771L271.151,85.515C264.502,85.515 263.433,83.971 263.433,75.54L263.433,71.266L265.451,71.266L278.633,87.771L313.19,87.771C330.171,87.771 337.534,78.747 337.534,67.939C337.534,57.133 330.172,48.227 313.19,48.227ZM263.434,67.583L263.434,51.79L268.302,51.79C273.645,51.79 276.021,55.471 276.021,59.746C276.021,63.903 273.645,67.583 268.302,67.583L263.434,67.583ZM313.547,84.09L312.715,84.09C308.441,84.09 307.847,83.022 307.847,77.559L307.847,51.79L313.547,51.79C325.897,51.79 328.152,60.814 328.152,67.821C328.152,75.064 325.896,84.09 313.547,84.09Z" style="fill:rgb(194,194,194);fill-rule:nonzero;"/>
                <path d="M181.378,71.978L189.572,47.751C191.948,40.745 190.879,38.727 183.279,38.727L183.279,36.351L205.604,36.351L205.604,38.727C198.123,38.727 196.342,40.508 193.373,49.177L179.834,89.79L178.291,89.79L166.177,52.62L153.828,89.79L152.284,89.79L139.103,49.177C136.253,40.508 134.353,38.727 127.465,38.727L127.465,36.351L153.828,36.351L153.828,38.727C146.821,38.727 144.92,40.389 147.415,47.751L155.371,71.978L167.365,36.351L169.622,36.351L181.378,71.978Z" style="fill:rgb(194,194,194);fill-rule:nonzero;"/>
                <path d="M221.752,89.314C208.69,89.314 198.002,79.696 198.002,67.938C198.002,56.301 208.691,46.681 221.752,46.681C234.815,46.681 245.502,56.301 245.502,67.938C245.502,79.696 234.815,89.314 221.752,89.314ZM221.752,50.365C210.828,50.365 207.027,60.22 207.027,67.939C207.027,75.778 210.828,85.515 221.752,85.515C232.797,85.515 236.597,75.778 236.597,67.939C236.597,60.22 232.797,50.365 221.752,50.365Z" style="fill:rgb(194,194,194);fill-rule:nonzero;"/>
                <path d="M366.864,85.396L366.864,87.771L339.67,87.771L339.67,85.396C347.627,85.396 349.052,83.378 349.052,71.501L349.052,52.502C349.052,40.625 347.627,38.726 339.67,38.726L339.67,36.35L364.251,36.35C376.482,36.35 383.253,42.644 383.253,51.077C383.253,59.271 376.482,65.683 364.251,65.683L357.482,65.683L357.482,71.5C357.482,83.378 358.907,85.396 366.864,85.396ZM364.251,40.625L357.482,40.625L357.482,61.289L364.251,61.289C370.902,61.289 373.989,56.658 373.989,51.077C373.989,45.377 370.902,40.625 364.251,40.625Z" style="fill:rgb(194,194,194);fill-rule:nonzero;"/>
                <path d="M464.833,76.609L464.239,78.746C463.171,82.665 461.863,84.09 453.432,84.09L451.769,84.09C445.595,84.09 444.526,82.665 444.526,74.234L444.526,68.772C453.789,68.772 454.502,69.602 454.502,75.778L456.758,75.778L456.758,58.083L454.502,58.083C454.502,64.258 453.789,65.089 444.526,65.089L444.526,51.79L451.056,51.79C459.489,51.79 460.794,53.215 461.863,57.134L462.458,59.389L464.357,59.389L463.527,48.227L428.613,48.227L428.613,50.482C435.262,50.482 436.332,51.907 436.332,60.339L436.332,75.54C436.332,83.253 435.424,85.196 430.181,85.473C425.198,84.712 421.777,81.994 417.096,76.846L411.633,70.909C418.996,69.601 422.915,64.971 422.915,59.745C422.915,53.215 417.334,48.227 406.884,48.227L385.984,48.227L385.984,50.482C392.633,50.482 393.702,51.907 393.702,60.339L393.702,75.54C393.702,83.971 392.634,85.515 385.984,85.515L385.984,87.771L409.616,87.771L409.616,85.515C402.967,85.515 401.897,83.971 401.897,75.54L401.897,71.266L403.916,71.266L417.097,87.771L465.903,87.771L466.616,76.61L464.833,76.61L464.833,76.609ZM401.896,67.583L401.896,51.79L406.764,51.79C412.108,51.79 414.484,55.471 414.484,59.746C414.484,63.903 412.108,67.583 406.764,67.583L401.896,67.583Z" style="fill:rgb(194,194,194);fill-rule:nonzero;"/>
                <path d="M488.939,89.314C484.189,89.314 480.032,86.821 478.251,85.276C477.657,85.871 476.589,87.652 476.352,89.314L474.095,89.314L474.095,72.928L476.47,72.928C477.421,80.765 482.882,85.396 489.889,85.396C493.689,85.396 496.777,83.259 496.777,79.697C496.777,76.61 494.046,74.234 489.177,71.978L482.408,68.772C477.657,66.514 474.095,62.595 474.095,57.371C474.095,51.671 479.439,46.803 486.802,46.803C490.721,46.803 494.045,48.228 496.065,49.89C496.658,49.415 497.252,48.108 497.609,46.682L499.865,46.682L499.865,60.696L497.371,60.696C496.539,55.114 493.452,50.483 487.159,50.483C483.834,50.483 480.745,52.383 480.745,55.353C480.745,58.44 483.239,60.102 488.94,62.715L495.47,65.921C501.171,68.652 503.426,73.048 503.426,76.61C503.426,84.09 496.895,89.314 488.939,89.314Z" style="fill:rgb(194,194,194);fill-rule:nonzero;"/>
                <path d="M525.514,89.314C520.763,89.314 516.606,86.821 514.826,85.276C514.232,85.871 513.164,87.652 512.927,89.314L510.67,89.314L510.67,72.928L513.045,72.928C513.995,80.765 519.457,85.396 526.464,85.396C530.264,85.396 533.352,83.259 533.352,79.697C533.352,76.61 530.621,74.234 525.751,71.978L518.982,68.772C514.232,66.514 510.669,62.595 510.669,57.371C510.669,51.671 516.013,46.803 523.376,46.803C527.295,46.803 530.619,48.228 532.639,49.89C533.232,49.415 533.826,48.108 534.181,46.682L536.438,46.682L536.438,60.696L533.945,60.696C533.113,55.114 530.026,50.483 523.733,50.483C520.408,50.483 517.319,52.383 517.319,55.353C517.319,58.44 519.813,60.102 525.514,62.715L532.044,65.921C537.745,68.652 540,73.048 540,76.61C540,84.09 533.469,89.314 525.514,89.314Z" style="fill:rgb(194,194,194);fill-rule:nonzero;"/>
            </g>
        </g>
    </g>
</svg>
