<svg width="215" height="247" viewBox="0 0 215 247" fill="none" xmlns="http://www.w3.org/2000/svg">
<path d="M165.562 95.1252C165.562 89.9015 161.327 85.6669 156.104 85.6669C150.88 85.6669 146.645 89.9015 146.645 95.1252H165.562ZM156.104 216.733L165.562 216.761C165.562 216.751 165.562 216.742 165.562 216.733L156.104 216.733ZM135.836 237.001V246.459C135.845 246.459 135.855 246.459 135.864 246.459L135.836 237.001ZM46.657 237.001L46.6288 246.459C46.6382 246.459 46.6476 246.459 46.657 246.459L46.657 237.001ZM26.3891 216.733H16.9308C16.9308 216.742 16.9308 216.751 16.9308 216.761L26.3891 216.733ZM35.8475 107.286C35.8475 102.062 31.6128 97.8276 26.3891 97.8276C21.1654 97.8276 16.9308 102.062 16.9308 107.286H35.8475ZM156.104 97.8276C150.88 97.8276 146.645 102.062 146.645 107.286C146.645 112.51 150.88 116.744 156.104 116.744V97.8276ZM176.372 107.286L176.399 97.8276L176.385 97.8276H176.372V107.286ZM204.747 135.661H214.205V135.648L214.205 135.634L204.747 135.661ZM204.747 176.197L214.205 176.224L214.205 176.21V176.197H204.747ZM176.372 204.572V214.03H176.385L176.399 214.03L176.372 204.572ZM156.104 195.114C150.88 195.114 146.645 199.348 146.645 204.572C146.645 209.796 150.88 214.03 156.104 214.03V195.114ZM100.705 123.5C100.705 118.277 96.4701 114.042 91.2464 114.042C86.0227 114.042 81.7881 118.277 81.7881 123.5H100.705ZM81.7881 204.572C81.7881 209.796 86.0227 214.03 91.2464 214.03C96.4701 214.03 100.705 209.796 100.705 204.572H81.7881ZM133.133 123.5C133.133 118.277 128.899 114.042 123.675 114.042C118.451 114.042 114.217 118.277 114.217 123.5H133.133ZM114.217 204.572C114.217 209.796 118.451 214.03 123.675 214.03C128.899 214.03 133.133 209.796 133.133 204.572H114.217ZM68.2761 123.5C68.2761 118.277 64.0415 114.042 58.8178 114.042C53.5941 114.042 49.3594 118.277 49.3594 123.5H68.2761ZM49.3594 204.572C49.3594 209.796 53.5941 214.03 58.8178 214.03C64.0415 214.03 68.2761 209.796 68.2761 204.572H49.3594ZM139.889 41.0775C134.666 41.0775 130.431 45.3121 130.431 50.5358C130.431 55.7595 134.666 59.9942 139.889 59.9942V41.0775ZM164.211 74.8573L173.669 74.8573L164.211 74.8573ZM120.635 91.0716L127.323 84.3836C125.549 82.6098 123.143 81.6133 120.635 81.6133V91.0716ZM58.8178 91.0716V81.6133C54.8405 81.6133 51.2881 84.1015 49.9289 87.8393L58.8178 91.0716ZM34.4963 107.286L34.4963 116.744H34.4963V107.286ZM34.4963 58.643L34.8935 49.193C34.7612 49.1874 34.6287 49.1846 34.4963 49.1846L34.4963 58.643ZM42.1403 70.8765C46.3782 73.9307 52.2895 72.9712 55.3437 68.7333C58.3979 64.4955 57.4383 58.5842 53.2005 55.53L42.1403 70.8765ZM17.6344 67.6066C21.3452 71.2832 27.3338 71.2554 31.0104 67.5446C34.687 63.8338 34.6592 57.8452 30.9484 54.1687L17.6344 67.6066ZM54.9264 34.5394L62.5782 28.9797L62.5719 28.9711L62.5657 28.9625L54.9264 34.5394ZM49.3594 42.4287C49.3594 47.6524 53.5941 51.887 58.8178 51.887C64.0415 51.887 68.2761 47.6524 68.2761 42.4287H49.3594ZM44.5282 20.3361C41.083 24.2626 41.4733 30.2386 45.3999 33.6838C49.3264 37.1289 55.3024 36.7387 58.7476 32.8121L44.5282 20.3361ZM134.822 58.2427L125.364 58.2427L125.364 58.2482L134.822 58.2427ZM124.684 65.4912C123.709 70.623 127.079 75.5738 132.211 76.5489C137.342 77.5241 142.293 74.1544 143.268 69.0225L124.684 65.4912ZM146.645 95.1252V216.733H165.562V95.1252H146.645ZM146.645 216.704C146.637 219.576 145.492 222.328 143.462 224.358L156.838 237.735C162.402 232.17 165.539 224.63 165.562 216.761L146.645 216.704ZM143.462 224.358C141.431 226.389 138.679 227.534 135.808 227.542L135.864 246.459C143.733 246.435 151.273 243.299 156.838 237.735L143.462 224.358ZM135.836 227.542H46.657V246.459H135.836V227.542ZM46.6853 227.542C43.8136 227.534 41.0619 226.389 39.0312 224.358L25.6551 237.735C31.2195 243.299 38.7596 246.435 46.6288 246.459L46.6853 227.542ZM39.0312 224.358C37.0006 222.328 35.856 219.576 35.8474 216.704L16.9308 216.761C16.9543 224.63 20.0907 232.17 25.6551 237.735L39.0312 224.358ZM35.8475 216.733V107.286H16.9308V216.733H35.8475ZM156.104 116.744H176.372V97.8276H156.104V116.744ZM176.345 116.744C181.365 116.759 186.175 118.759 189.724 122.309L203.1 108.932C196.016 101.848 186.417 97.8561 176.399 97.8276L176.345 116.744ZM189.724 122.309C193.274 125.858 195.274 130.668 195.288 135.688L214.205 135.634C214.177 125.616 210.184 116.016 203.1 108.932L189.724 122.309ZM195.288 135.661V176.197H214.205V135.661H195.288ZM195.288 176.17C195.274 181.19 193.274 186 189.724 189.549L203.1 202.925C210.184 195.842 214.177 186.242 214.205 176.224L195.288 176.17ZM189.724 189.549C186.175 193.099 181.365 195.099 176.345 195.114L176.399 214.03C186.417 214.002 196.016 210.009 203.1 202.925L189.724 189.549ZM176.372 195.114H156.104V214.03H176.372V195.114ZM81.7881 123.5V204.572H100.705V123.5H81.7881ZM114.217 123.5V204.572H133.133V123.5H114.217ZM49.3594 123.5V204.572H68.2761V123.5H49.3594ZM139.889 59.9942C143.831 59.9942 147.612 61.5601 150.399 64.3475L163.775 50.9713C157.44 44.6364 148.848 41.0775 139.889 41.0775V59.9942ZM150.399 64.3475C153.187 67.1349 154.753 70.9154 154.753 74.8573L173.669 74.8573C173.669 65.8983 170.11 57.3063 163.775 50.9713L150.399 64.3475ZM154.753 74.8573C154.753 78.7993 153.187 82.5798 150.399 85.3671L163.775 98.7433C170.11 92.4083 173.669 83.8163 173.669 74.8573L154.753 74.8573ZM150.399 85.3671C147.612 88.1545 143.831 89.7204 139.889 89.7204V108.637C148.848 108.637 157.44 105.078 163.775 98.7433L150.399 85.3671ZM139.889 89.7204C138.141 89.7204 135.717 89.2017 133.141 88.0911C130.568 86.9818 128.507 85.5678 127.323 84.3836L113.947 97.7597C117.166 100.979 121.375 103.618 125.651 105.462C129.923 107.304 134.924 108.637 139.889 108.637V89.7204ZM120.635 81.6133H58.8178V100.53H120.635V81.6133ZM49.9289 87.8393C47.4933 94.5371 41.9743 97.8276 34.4963 97.8276V116.744C48.2996 116.744 62.0351 109.901 67.7067 94.304L49.9289 87.8393ZM34.4963 97.8276C30.5543 97.8276 26.7738 96.2617 23.9865 93.4743L10.6103 106.85C16.9453 113.185 25.5373 116.744 34.4963 116.744L34.4963 97.8276ZM23.9865 93.4743C21.1991 90.6869 19.6332 86.9064 19.6332 82.9645H0.716449C0.716449 91.9234 4.27539 100.515 10.6103 106.85L23.9865 93.4743ZM19.6332 82.9645C19.6332 79.0225 21.1991 75.242 23.9865 72.4546L10.6103 59.0785C4.27539 65.4135 0.716449 74.0055 0.716449 82.9645H19.6332ZM23.9865 72.4546C26.7738 69.6673 30.5543 68.1013 34.4963 68.1013L34.4963 49.1846C25.5373 49.1846 16.9453 52.7436 10.6103 59.0785L23.9865 72.4546ZM34.0991 68.093C36.994 68.2147 39.7897 69.1824 42.1403 70.8765L53.2005 55.53C47.849 51.6732 41.4842 49.47 34.8935 49.193L34.0991 68.093ZM30.9484 54.1687C29.8885 53.1185 29.0574 51.8603 28.5076 50.4732L10.9221 57.4442C12.4342 61.2586 14.7196 64.7187 17.6344 67.6066L30.9484 54.1687ZM28.5076 50.4732C27.9577 49.0861 27.701 47.6003 27.7535 46.1091L8.84857 45.4429C8.70406 49.5436 9.41007 53.6297 10.9221 57.4442L28.5076 50.4732ZM27.7535 46.1091C27.8061 44.618 28.1668 43.1538 28.8129 41.8089L11.7618 33.6174C9.98496 37.3159 8.99307 41.3422 8.84857 45.4429L27.7535 46.1091ZM28.8129 41.8089C29.459 40.464 30.3766 39.2674 31.5078 38.2944L19.1728 23.9526C16.0619 26.6282 13.5386 29.9188 11.7618 33.6174L28.8129 41.8089ZM31.5078 38.2944C32.639 37.3215 33.9594 36.5933 35.3859 36.1557L29.8375 18.0709C25.9147 19.2744 22.2836 21.277 19.1728 23.9526L31.5078 38.2944ZM35.3859 36.1557C36.8123 35.718 38.3139 35.5804 39.7962 35.7516L41.9658 16.9597C37.8896 16.4891 33.7602 16.8674 29.8375 18.0709L35.3859 36.1557ZM39.7962 35.7516C41.2784 35.9227 42.7091 36.3988 43.9983 37.15L53.5218 20.8054C49.9765 18.7397 46.0419 17.4303 41.9658 16.9597L39.7962 35.7516ZM43.9983 37.15C45.2876 37.9012 46.4073 38.9111 47.287 40.1162L62.5657 28.9625C60.1463 25.6484 57.0671 22.8711 53.5218 20.8054L43.9983 37.15ZM54.9264 34.5394C47.2745 40.0991 47.2739 40.0982 47.2734 40.0974C47.2732 40.0972 47.2726 40.0964 47.2723 40.0959C47.2716 40.095 47.2709 40.0941 47.2703 40.0933C47.2691 40.0916 47.2682 40.0903 47.2675 40.0893C47.266 40.0873 47.2654 40.0865 47.2657 40.0868C47.2662 40.0876 47.2701 40.093 47.2772 40.1029C47.2914 40.1227 47.318 40.1601 47.3553 40.2132C47.4303 40.3198 47.5463 40.4869 47.6893 40.6993C47.9815 41.1332 48.3568 41.7121 48.7173 42.3257C49.0952 42.9688 49.3609 43.4878 49.505 43.8268C49.5744 43.9901 49.5643 43.9929 49.5275 43.8584C49.5027 43.7677 49.3594 43.2426 49.3594 42.4287H68.2761C68.2761 39.8116 67.39 37.5462 66.9145 36.4275C66.3289 35.0497 65.6218 33.7547 65.0268 32.7422C64.4145 31.7002 63.8169 30.7818 63.3794 30.1323C63.1577 29.803 62.9697 29.5319 62.8318 29.3357C62.7627 29.2374 62.7058 29.1573 62.6629 29.0974C62.6415 29.0674 62.6236 29.0425 62.6094 29.0228C62.6023 29.0129 62.5961 29.0044 62.5909 28.9972C62.5883 28.9936 62.5859 28.9904 62.5838 28.9874C62.5827 28.986 62.5817 28.9846 62.5808 28.9833C62.5803 28.9827 62.5797 28.9817 62.5794 28.9814C62.5788 28.9805 62.5782 28.9797 54.9264 34.5394ZM58.7476 32.8121C65.99 24.5577 75.8364 19.4584 87.1929 19.4584V0.541644C69.7385 0.541644 54.9087 8.50499 44.5282 20.3361L58.7476 32.8121ZM87.1929 19.4584C108.352 19.4584 125.364 36.7716 125.364 58.2427H144.281C144.281 26.6423 119.115 0.541644 87.1929 0.541644V19.4584ZM125.364 58.2482C125.366 60.6785 125.138 63.1036 124.684 65.4912L143.268 69.0225C143.944 65.4672 144.283 61.8561 144.281 58.2372L125.364 58.2482Z" fill="black"/>
</svg>
