<?xml version="1.0" encoding="UTF-8" standalone="no"?>
<!-- Created with Inkscape (http://www.inkscape.org/) -->

<svg
   width="41.965721mm"
   height="41.778641mm"
   viewBox="0 0 41.965722 41.778641"
   version="1.1"
   id="svg5"
   xml:space="preserve"
   sodipodi:docname="folha.svg"
   inkscape:export-filename="icofolha.svg"
   inkscape:export-xdpi="96"
   inkscape:export-ydpi="96"
   xmlns:inkscape="http://www.inkscape.org/namespaces/inkscape"
   xmlns:sodipodi="http://sodipodi.sourceforge.net/DTD/sodipodi-0.dtd"
   xmlns="http://www.w3.org/2000/svg"
   xmlns:svg="http://www.w3.org/2000/svg"><sodipodi:namedview
     id="namedview7"
     pagecolor="#505050"
     bordercolor="#eeeeee"
     borderopacity="1"
     inkscape:showpageshadow="0"
     inkscape:pageopacity="0"
     inkscape:pagecheckerboard="0"
     inkscape:deskcolor="#505050"
     inkscape:document-units="mm"
     showgrid="false" /><defs
     id="defs2" /><g
     inkscape:label="Camada 1"
     inkscape:groupmode="layer"
     id="layer1"
     transform="translate(104.75536,-124.32008)"><path
       style="fill:#c69861;fill-opacity:1;stroke:none;stroke-width:0.264583"
       d="m -99.058699,159.09243 5.696657,-5.69666 -0.919889,-0.37772 c -1.83408,-0.75308 -3.129265,-2.93867 -2.822474,-4.76284 0.243982,-1.4507 3.789219,-11.40739 4.14722,-11.64734 0.754092,-0.50545 1.261632,-0.0315 1.85585,1.73309 0.321065,0.95336 0.614045,1.70309 0.651077,1.66606 0.03705,-0.0371 0.797963,-2.145 1.690956,-4.68437 0.893014,-2.5394 1.732116,-4.72554 1.864692,-4.85812 0.132568,-0.13256 0.482861,-0.21856 0.778427,-0.19108 0.451787,0.042 0.634635,0.33639 1.147857,1.84821 l 0.610471,1.79827 0.818935,-2.47147 c 1.255086,-3.78776 2.356191,-6.69581 2.644443,-6.98406 0.143218,-0.14322 0.501425,-0.18741 0.796021,-0.0982 0.42529,0.12877 0.834347,1.03614 1.985729,4.40471 0.797548,2.3334 1.477557,4.27001 1.511124,4.30357 0.03359,0.0336 0.361487,-0.33249 0.728666,-0.81352 0.544402,-0.71306 1.609609,-1.33993 5.769511,-3.3953 2.806019,-1.38643 5.151435,-2.47233 5.212034,-2.41312 0.06059,0.0592 -0.07461,0.47009 -0.300471,0.91307 -0.225871,0.44296 -1.306167,2.66121 -2.400648,4.92941 -1.601583,3.31914 -2.181722,4.29091 -2.972423,4.97908 -0.540321,0.47032 -0.967986,0.86942 -0.950245,0.88703 0.01774,0.0176 1.941319,0.6845 4.274715,1.48204 3.368572,1.15138 4.275945,1.56045 4.404717,1.98573 0.08919,0.2946 0.045,0.65281 -0.09822,0.79602 -0.288252,0.28825 -3.196299,1.38936 -6.984058,2.64445 l -2.471472,0.81893 1.798264,0.61047 c 1.51183,0.51323 1.806227,0.69607 1.848222,1.14786 0.02747,0.29556 -0.05852,0.64586 -0.191089,0.77843 -0.132575,0.13257 -2.318716,0.97167 -4.858092,1.86467 -2.539369,0.89299 -4.639102,1.64569 -4.666056,1.67264 -0.02694,0.0269 0.723469,0.32305 1.667626,0.65798 1.812937,0.64313 2.241267,1.1568 1.614961,1.93678 -0.173934,0.21664 -2.901513,1.2604 -6.06127,2.3195 -4.651009,1.55894 -5.944074,1.88515 -6.790346,1.71308 -1.7849,-0.36292 -2.957927,-1.44244 -3.777909,-3.47674 -0.176805,-0.43863 -0.532451,-0.12236 -5.914333,5.25953 l -5.726221,5.72622 -0.65481,-0.65481 -0.65481,-0.65481 z m 5.490457,-7.95949 c 1.098696,0.45113 2.191834,0.27781 2.931955,-0.46489 1.094255,-1.09849 1.032065,-2.02536 -0.418725,-6.22096 -0.753509,-2.1791 -1.425608,-3.89921 -1.49356,-3.82244 -0.06798,0.0767 -0.695439,1.925 -1.394409,4.10719 -1.078678,3.36764 -1.221303,4.11611 -0.943159,4.94954 0.391765,1.1739 0.243202,1.01028 1.317906,1.45155 z m 6.071439,5.51393 c 0.53856,0.0384 8.163576,-2.31282 8.459182,-2.60843 0.05035,-0.0503 -1.696965,-0.70245 -3.882971,-1.44905 -4.199918,-1.43444 -5.137739,-1.49819 -6.217017,-0.42266 -1.519672,1.51401 -0.488837,4.32836 1.640806,4.48014 z m 0.231103,-11.59663 c 0.451099,0.14358 1.13917,0.20485 1.529041,0.13617 0.934279,-0.1646 1.998093,-1.26834 2.109427,-2.18863 0.08019,-0.66264 -2.487291,-8.82325 -2.706869,-8.60367 -0.05035,0.0503 -0.668305,1.82782 -1.373203,3.94991 -1.290577,3.8853 -1.436737,4.78337 -0.917434,5.63719 0.465496,0.76535 0.506621,0.7977 1.359017,1.06901 z m 5.938509,5.42701 c 0.549698,0.0353 8.17209,-2.32133 8.469202,-2.61844 0.217046,-0.21705 -7.944628,-2.76704 -8.617984,-2.69256 -0.820774,0.0908 -1.88958,1.02773 -2.148742,1.88366 -0.469385,1.5503 0.721008,3.32608 2.297524,3.42734 z m 0.244228,-11.22395 c 1.043951,0.33228 1.739341,0.12405 2.659803,-0.79641 0.548326,-0.54832 0.719446,-0.97091 0.700255,-1.72925 -0.02211,-0.87412 -2.402055,-8.12471 -2.658646,-8.09966 -0.05272,0.005 -0.7106,1.79804 -1.461872,3.98421 -1.399413,4.0722 -1.470039,4.92608 -0.491282,5.93951 0.232384,0.24087 0.795792,0.55646 1.251742,0.7016 z m 5.220944,5.24852 c 0.496707,0.14573 1.982006,-0.21083 4.741752,-1.13828 2.210168,-0.74277 4.021543,-1.3948 4.025276,-1.44896 0.01795,-0.26016 -7.22463,-2.63901 -8.102235,-2.66122 -0.777852,-0.0197 -1.173634,0.14652 -1.759557,0.73889 -1.517663,1.53435 -0.940318,3.91255 1.094764,4.50957 z"
       id="path137" /></g></svg>
