<svg width="183" height="242" viewBox="0 0 183 242" fill="none" xmlns="http://www.w3.org/2000/svg">
<path d="M24.5379 43.5716H158.262M24.5379 43.5716C16.3319 43.5716 9.67969 51.2674 9.67969 60.7607V129.517C9.67969 139.01 16.3319 146.706 24.5379 146.706M24.5379 43.5716C20.6007 43.5588 16.8278 41.7437 14.0437 38.5229C11.2597 35.3021 9.69071 30.9374 9.67969 26.3825M158.262 43.5716C166.468 43.5716 173.12 51.2674 173.12 60.7607V129.517C173.12 139.01 166.468 146.706 158.262 146.706M158.262 43.5716C162.199 43.5588 165.972 41.7437 168.756 38.5229C171.54 35.3021 173.109 30.9374 173.12 26.3825M158.262 146.706H24.5379M158.262 146.706C166.468 146.706 173.12 154.402 173.12 163.895V198.274C173.12 207.767 166.468 215.463 158.262 215.463H24.5379C16.3319 215.463 9.67969 207.767 9.67969 198.274V163.895C9.67969 154.402 16.3319 146.706 24.5379 146.706M9.67969 26.3825C9.69071 21.8276 11.2597 17.4628 14.0437 14.242C16.8278 11.0212 20.6007 9.20612 24.5379 9.19336H158.262C162.199 9.20612 165.972 11.0212 168.756 14.242C171.54 17.4628 173.109 21.8276 173.12 26.3825M9.67969 26.3825V181.084M173.12 26.3825V181.084M91.3999 43.5716V146.706M39.3961 215.463V227.28C39.3961 228.705 38.9069 230.071 38.0362 231.078C37.1654 232.086 35.9844 232.652 34.7529 232.652H21.752C20.5205 232.652 19.3395 232.086 18.4688 231.078C17.598 230.071 17.1088 228.705 17.1088 227.28V215.463H39.3961ZM165.691 215.463V227.28C165.691 228.705 165.202 230.071 164.331 231.078C163.46 232.086 162.279 232.652 161.048 232.652H148.047C146.815 232.652 145.634 232.086 144.764 231.078C143.893 230.071 143.404 228.705 143.404 227.28V215.463H165.691ZM150.833 181.084C150.833 185.831 147.507 189.679 143.404 189.679C139.301 189.679 135.975 185.831 135.975 181.084C135.975 176.338 139.301 172.49 143.404 172.49C147.507 172.49 150.833 176.338 150.833 181.084ZM46.8252 181.084C46.8252 185.831 43.4991 189.679 39.3961 189.679C35.2931 189.679 31.967 185.831 31.967 181.084C31.967 176.338 35.2931 172.49 39.3961 172.49C43.4991 172.49 46.8252 176.338 46.8252 181.084Z" stroke="black" stroke-width="18.0421" stroke-linecap="round" stroke-linejoin="round"/>
</svg>
