<svg width="242" height="209" viewBox="0 0 242 209" fill="none" xmlns="http://www.w3.org/2000/svg">
<path d="M222.101 61.4944C220.322 60.7947 218.426 60.438 216.515 60.4433H216.314C206.218 60.5935 194.896 70.0487 188.955 84.3493C181.832 101.458 185.11 118.962 196.333 123.462C198.11 124.161 200.004 124.518 201.914 124.513C212.06 124.513 223.537 115.003 229.529 100.607C236.601 83.4984 233.273 65.9943 222.101 61.4944ZM156.96 128.257C143.045 105.167 137.038 96.4825 121.121 96.4825C105.204 96.4825 99.147 105.222 85.2319 128.257C73.319 147.958 49.2428 149.6 43.2363 166.333C42.0177 169.398 41.4058 172.671 41.4343 175.969C41.4343 189.579 51.8456 200.596 64.6596 200.596C80.5769 200.596 102.25 187.887 121.171 187.887C140.092 187.887 161.665 200.596 177.582 200.596C190.396 200.596 200.757 189.584 200.757 175.969C200.769 172.667 200.14 169.395 198.905 166.333C192.899 149.54 168.873 147.958 156.96 128.257ZM89.3414 74.4585C90.0116 74.4591 90.6809 74.4089 91.3436 74.3084C102.961 72.6215 110.214 56.524 107.581 38.3443C105.104 21.2057 94.7022 8.38672 83.8254 8.38672C83.1552 8.38618 82.4859 8.43638 81.8232 8.53689C70.2056 10.2237 62.9527 26.3212 65.5856 44.501C68.0633 61.5895 78.4646 74.4585 89.3414 74.4585ZM176.641 44.501C179.274 26.3212 172.021 10.2237 160.404 8.53689C159.741 8.43638 159.072 8.38618 158.401 8.38672C147.525 8.38672 137.143 21.2057 134.661 38.3443C132.028 56.524 139.281 72.6215 150.898 74.3084C151.561 74.4089 152.23 74.4591 152.9 74.4585C163.777 74.4585 174.179 61.5895 176.641 44.501ZM45.9242 123.462C57.1314 118.957 60.4049 101.438 53.2922 84.3493C47.3057 69.9536 35.8382 60.4433 25.7072 60.4433C23.7972 60.438 21.9034 60.7947 20.1262 61.4944C8.919 65.9993 5.64544 83.5184 12.7582 100.607C18.7447 115.003 30.2121 124.513 40.3431 124.513C42.2532 124.518 44.1469 124.161 45.9242 123.462Z" stroke="black" stroke-width="16.0174" stroke-miterlimit="10"/>
</svg>
