<svg width="80" height="80" viewBox="0 0 80 80" fill="none" xmlns="http://www.w3.org/2000/svg">
<path d="M56.663 6.66571C61.0793 6.6789 65.3109 8.43911 68.4337 11.5619C71.5565 14.6847 73.3168 18.9164 73.3299 23.3327V56.663C73.3168 61.0793 71.5565 65.3109 68.4337 68.4337C65.3109 71.5565 61.0793 73.3168 56.663 73.3299H23.3327C18.9164 73.3168 14.6847 71.5565 11.5619 68.4337C8.43911 65.3109 6.6789 61.0793 6.66571 56.663V23.3327C6.6789 18.9164 8.43911 14.6847 11.5619 11.5619C14.6847 8.43911 18.9164 6.6789 23.3327 6.66571H56.663ZM56.663 0H23.3327C10.4994 0 0 10.4994 0 23.3327V56.663C0 69.4962 10.4994 79.9957 23.3327 79.9957H56.663C69.4962 79.9957 79.9957 69.4962 79.9957 56.663V23.3327C79.9957 10.4994 69.4962 0 56.663 0Z" fill="#3D1702"/>
<path d="M61.6627 23.3327C60.6739 23.3327 59.7072 23.0394 58.885 22.4901C58.0628 21.9407 57.422 21.1598 57.0436 20.2462C56.6652 19.3327 56.5661 18.3274 56.7591 17.3575C56.952 16.3877 57.4282 15.4968 58.1274 14.7976C58.8266 14.0984 59.7175 13.6222 60.6873 13.4293C61.6572 13.2364 62.6625 13.3354 63.576 13.7138C64.4896 14.0922 65.2705 14.733 65.8198 15.5552C66.3692 16.3774 66.6624 17.3441 66.6624 18.3329C66.6639 18.9899 66.5355 19.6407 66.2847 20.2479C66.034 20.8551 65.6658 21.4069 65.2012 21.8714C64.7367 22.336 64.1849 22.7042 63.5777 22.955C62.9705 23.2057 62.3197 23.3341 61.6627 23.3327ZM39.9978 26.6646C42.6349 26.6646 45.2127 27.4466 47.4054 28.9117C49.598 30.3767 51.3069 32.4591 52.3161 34.8954C53.3253 37.3318 53.5893 40.0126 53.0748 42.599C52.5604 45.1854 51.2905 47.5611 49.4258 49.4258C47.5611 51.2905 45.1854 52.5604 42.599 53.0748C40.0126 53.5893 37.3318 53.3253 34.8954 52.3161C32.4591 51.3069 30.3767 49.598 28.9117 47.4054C27.4466 45.2127 26.6646 42.6349 26.6646 39.9978C26.6684 36.4628 28.0744 33.0736 30.574 30.574C33.0736 28.0744 36.4628 26.6684 39.9978 26.6646ZM39.9978 19.9989C36.0424 19.9989 32.1758 21.1718 28.887 23.3693C25.5982 25.5668 23.0349 28.6903 21.5212 32.3446C20.0076 35.9989 19.6115 40.02 20.3832 43.8994C21.1549 47.7788 23.0596 51.3423 25.8565 54.1392C28.6534 56.9361 32.2168 58.8408 36.0962 59.6125C39.9756 60.3841 43.9968 59.9881 47.6511 58.4744C51.3054 56.9607 54.4288 54.3974 56.6263 51.1086C58.8238 47.8198 59.9967 43.9532 59.9967 39.9978C59.9967 34.6938 57.8897 29.607 54.1392 25.8565C50.3887 22.1059 45.3019 19.9989 39.9978 19.9989Z" fill="#3D1702"/>
</svg>
