<svg width="81" height="64" viewBox="0 0 81 64" fill="none" xmlns="http://www.w3.org/2000/svg">
<path d="M80.8711 7.58586C77.8704 8.8897 74.6955 9.7487 71.4467 10.1357C74.8609 8.13646 77.4285 4.96028 78.6679 1.20289C75.4399 3.09043 71.9142 4.41482 68.2418 5.11933C66.6954 3.49864 64.8356 2.20934 62.7754 1.32979C60.7151 0.450241 58.4976 -0.00118229 56.2575 0.00295791C47.188 0.00295791 39.8484 7.23588 39.8484 16.152C39.8419 17.3922 39.9841 18.6287 40.2717 19.8352C33.7682 19.5303 27.3999 17.8712 21.5743 14.9642C15.7487 12.0571 10.5941 7.9661 6.44019 2.95279C4.98289 5.40951 4.21219 8.21256 4.20864 11.069C4.20864 16.6687 7.13015 21.6184 11.5416 24.5182C8.92793 24.4562 6.36784 23.7644 4.07865 22.5017V22.7017C4.07865 30.5345 9.74501 37.0508 17.2446 38.5341C15.8343 38.91 14.381 39.1005 12.9215 39.1007C11.8859 39.1025 10.8526 39.002 9.83667 38.8007C11.9216 45.217 17.9896 49.8834 25.1775 50.0168C19.3368 54.518 12.1659 56.9509 4.79194 56.933C3.48304 56.9311 2.17536 56.8532 0.875488 56.6997C8.37705 61.4898 17.097 64.0235 25.9975 63.9993C56.2225 63.9993 72.7349 39.384 72.7349 18.0353C72.7349 17.3353 72.7166 16.6353 72.6833 15.952C75.8882 13.6723 78.6609 10.8392 80.8711 7.58586Z" fill="#3D1702"/>
</svg>
