<?xml version="1.0" encoding="UTF-8" standalone="no"?>
<!-- Created with Inkscape (http://www.inkscape.org/) -->

<svg
   width="307.65457mm"
   height="203.85199mm"
   viewBox="0 0 307.65457 203.85199"
   version="1.1"
   id="svg5"
   xml:space="preserve"
   inkscape:export-filename="bareo.svg"
   inkscape:export-xdpi="96"
   inkscape:export-ydpi="96"
   xmlns:inkscape="http://www.inkscape.org/namespaces/inkscape"
   xmlns:sodipodi="http://sodipodi.sourceforge.net/DTD/sodipodi-0.dtd"
   xmlns="http://www.w3.org/2000/svg"
   xmlns:svg="http://www.w3.org/2000/svg"><sodipodi:namedview
     id="namedview7"
     pagecolor="#505050"
     bordercolor="#eeeeee"
     borderopacity="1"
     inkscape:showpageshadow="0"
     inkscape:pageopacity="0"
     inkscape:pagecheckerboard="0"
     inkscape:deskcolor="#505050"
     inkscape:document-units="mm"
     showgrid="false" /><defs
     id="defs2" /><g
     inkscape:label="Camada 1"
     inkscape:groupmode="layer"
     id="layer1"
     transform="translate(132.94572,-214.52445)"><path
       style="fill:#c69861;fill-opacity:1;stroke-width:1.05723"
       d="m -6.2858446,417.1272 c -10.5515894,-2.84054 -16.6289684,-9.32749 -20.4043894,-21.77954 -1.48473,-4.89681 -1.741542,-10.57141 -1.626941,-35.94585 0.07471,-16.57207 -0.185407,-33.81815 -0.578318,-38.32457 l -0.714414,-8.19353 h -13.064407 -13.064404 l -0.27891,34.62426 -0.27891,34.62428 h -6.87199 -6.87199 l -0.27132,-73.74178 -0.27131,-73.7418 h 27.973207 27.97325 l 0.314871,77.97071 c 0.672304,0 -1.15837,63.05765 -0.04048,76.54932 0.568171,6.85716 8.0637384,14.484 17.2710574,14.62886 6.196414,0 10.6050936,-2.32593 14.7777396,-7.79654 l 2.864491,-3.75557 6.244404,3.15216 c 3.434416,1.73366 6.232616,3.50213 6.218191,3.92986 -0.01598,0.42775 -1.599011,2.91859 -3.521285,5.53526 -8.285914,11.27883 -21.9897346,15.97641 -35.7780666,12.26447 z M -29.336872,273.23572 v -24.84491 h -13.215369 -13.215367 v 24.84491 24.84492 h 13.215367 13.215369 z m 72.455719,108.21536 c -5.79276,-6.88421 -10.91042,-20.48315 -14.940414,-39.70038 -2.422193,-11.5501 -6.002537,-17.95694 -12.4403,-22.26117 -2.82657,-1.88979 -5.554203,-3.43597 -6.0614346,-3.43597 -0.50727,0 -1.048185,14.39154 -1.202066,31.98119 l -0.279708,31.98122 -7.136312,0.31248 -7.136275,0.31247 v -72.99719 -72.99718 h 13.632616 c 17.0026576,0 25.9579936,2.3388 31.9680836,8.34892 5.7076,5.7076 6.40991,9.71631 6.01568,34.33702 -0.31607,19.73633 -0.51442,21.60166 -2.74038,25.7685 -1.31982,2.47067 -4.29328,5.74521 -6.60771,7.27682 -2.31442,1.5316 -4.208004,2.96961 -4.208004,3.19554 0,0.22576 1.170858,2.18468 2.601964,4.35273 3.3708,5.1068 5.52148,11.21998 8.08177,22.97207 3.01673,13.84728 6.97588,25.15245 10.52378,30.05017 1.70981,2.36033 3.10875,4.71408 3.10875,5.23054 0,0.9115 -8.81728,8.59436 -9.86331,8.59436 -0.2865,0 -1.77906,-1.49509 -3.31662,-3.32242 z M 26.203893,299.98602 c 4.733301,-2.15662 5.77861,-6.56559 5.77861,-24.37376 0,-9.4605 -0.505113,-17.78272 -1.200307,-19.777 -1.473902,-4.22803 -5.766543,-6.22902 -15.265671,-7.11606 l -6.7931116,-0.63438 v 26.49556 c 0,20.17774 0.315271,26.63584 1.3215406,27.08401 1.896301,0.84444 13.198468,-0.32965 16.158939,-1.67837 z m -159.149283,6.55429 v -74.22136 l 17.7086,0.41361 c 15.734012,0.36761 18.328352,0.689 23.266752,2.88319 6.47341,2.8762 11.30241,7.92073 12.97127,13.55022 0.75389,2.54307 1.05765,11.68908 0.8406,25.30848 l -0.34005,21.32634 -3.41419,4.8401 -3.41424,4.84012 3.41424,4.84031 3.41419,4.84031 0.33845,22.38336 c 0.37321,24.66475 -0.17581,28.24768 -5.2076,33.97834 -5.60564,6.38446 -12.56937,8.27393 -32.398362,8.79063 l -17.17999,0.44769 z m 34.859212,57.73815 c 5.73678,-1.84156 6.33959,-4.17621 6.35717,-24.62064 0.016,-17.71747 -0.0468,-18.23021 -2.56488,-21.22281 -1.41924,-1.68668 -4.58034,-3.66589 -7.024672,-4.3982 -4.83911,-1.44985 -14.81502,-1.86918 -16.70337,-0.70211 -1.26904,0.7843 -1.7539,48.62421 -0.52522,51.82604 0.55698,1.45152 1.85387,1.60028 8.72214,1.00059 4.43733,-0.3876 9.71982,-1.23475 11.738832,-1.88287 z m -2.938052,-67.44139 c 2.282422,-0.68385 5.311102,-2.62334 6.730342,-4.31003 2.49867,-2.96949 2.58047,-3.5988 2.58047,-19.85152 0,-10.27604 -0.46568,-17.80682 -1.20083,-19.4203 -1.71393,-3.76167 -7.991462,-5.92185 -17.209002,-5.92185 -6.13249,0 -7.93156,0.35642 -8.43644,1.67229 -0.87669,2.28462 -0.8177,47.48913 0.0632,48.36992 1.16157,1.16164 13.01749,0.79622 17.47236,-0.53851 z m 161.551947,10.75841 v -72.94887 h 25.90213 25.902133 v 6.8476 6.84758 l -18.765823,0.2885 -18.76586,0.2885 -0.2849,22.96396 -0.2849,22.96391 14.02884,0.2953 14.028843,0.2953 v 6.87198 6.87199 l -14.025523,0.2953 -14.02549,0.29528 0.28131,28.25008 0.2813,28.25008 18.76586,0.28891 18.765823,0.28889 v 6.84758 6.84761 H 86.429327 60.527197 Z m 58.147643,0 v -72.94887 h 28.01661 28.01659 v 72.94887 72.94889 h -28.01659 -28.01661 z m 41.23197,-0.032 v -59.23742 l -12.95108,0.29689 -12.95104,0.29688 -0.27452,57.61909 c -0.15104,31.69044 -0.0471,58.21372 0.23096,58.94057 0.36602,0.95596 4.02436,1.32154 13.22576,1.32154 h 12.71992 v -59.23808 z m -40.79978,-80.71612 c -0.30728,-0.80072 -0.41125,-3.77418 -0.23096,-6.60766 l 0.32766,-5.15183 27.75228,-0.28171 27.75231,-0.28171 v 6.88953 6.88958 h -27.52115 c -22.39599,0 -27.62521,-0.27131 -28.07986,-1.45587 z"
       id="path304"
       sodipodi:nodetypes="sscsccccccccccccscscsccsscccccccccccssccccccscccsscsssscccscccscccccssccccccccsccscscsscscssssccccccccccccccccccccccccccccccccccccccccccccsccccccccccscc" /></g></svg>
