<?xml version="1.0" encoding="UTF-8" standalone="no"?>
<!-- Created with Inkscape (http://www.inkscape.org/) -->

<svg
   width="25.4mm"
   height="55.296124mm"
   viewBox="0 0 25.4 55.296124"
   version="1.1"
   id="svg5"
   xml:space="preserve"
   xmlns:inkscape="http://www.inkscape.org/namespaces/inkscape"
   xmlns:sodipodi="http://sodipodi.sourceforge.net/DTD/sodipodi-0.dtd"
   xmlns="http://www.w3.org/2000/svg"
   xmlns:svg="http://www.w3.org/2000/svg"><sodipodi:namedview
     id="namedview7"
     pagecolor="#505050"
     bordercolor="#eeeeee"
     borderopacity="1"
     inkscape:showpageshadow="0"
     inkscape:pageopacity="0"
     inkscape:pagecheckerboard="0"
     inkscape:deskcolor="#505050"
     inkscape:document-units="mm"
     showgrid="false" /><defs
     id="defs2" /><g
     inkscape:label="Camada 1"
     inkscape:groupmode="layer"
     id="layer1"
     transform="translate(97.156873,-118.33925)"><path
       style="fill:#000000;stroke-width:0.264583"
       d="m -85.515203,165.57908 v -8.05629 l -0.91755,0.38337 c -1.8294,0.76438 -4.290678,0.13477 -5.36363,-1.37205 -0.853278,-1.19832 -5.386855,-10.74562 -5.303385,-11.16844 0.175816,-0.89063 0.869847,-0.91437 2.537767,-0.0868 0.901155,0.4471 1.638462,0.77007 1.638462,0.7177 0,-0.0524 -0.9525,-2.08099 -2.116667,-4.50804 -1.164167,-2.42708 -2.116667,-4.56625 -2.116667,-4.75374 0,-0.18748 0.186889,-0.49598 0.415312,-0.68555 0.349154,-0.28977 0.68662,-0.21089 2.118545,0.49523 l 1.703236,0.8399 -1.168521,-2.32667 c -1.79087,-3.56583 -3.068572,-6.40073 -3.068572,-6.80838 0,-0.20254 0.222041,-0.48708 0.493424,-0.63232 0.39178,-0.20967 1.322634,0.14269 4.518724,1.71048 2.213914,1.08601 4.064142,1.97456 4.111612,1.97456 0.0475,0 0.0205,-0.49072 -0.06,-1.09049 -0.11926,-0.88916 0.19069,-2.08564 1.67882,-6.4805 1.0038,-2.96451 1.89441,-5.39082 1.97913,-5.3918 0.0847,-9.8e-4 0.27965,0.38516 0.43317,0.8581 0.15351,0.47294 0.95816,2.80536 1.78811,5.18314 1.21449,3.47947 1.49142,4.57684 1.41892,5.62256 -0.0495,0.71463 -0.0697,1.29924 -0.0447,1.29915 0.025,-9e-5 1.85673,-0.88871 4.07064,-1.97472 3.19609,-1.56779 4.12695,-1.92015 4.51873,-1.71048 0.27138,0.14524 0.49342,0.42978 0.49342,0.63232 0,0.40765 -1.2777,3.24255 -3.06857,6.80838 l -1.16852,2.32667 1.70323,-0.8399 c 1.43193,-0.70612 1.76939,-0.785 2.11855,-0.49523 0.22842,0.18957 0.41531,0.49807 0.41531,0.68555 0,0.18749 -0.9525,2.32666 -2.11667,4.75371 -1.16416,2.42705 -2.11666,4.44402 -2.11666,4.48214 0,0.0381 0.74,-0.28314 1.64445,-0.71393 1.7367,-0.82718 2.4028,-0.76683 2.51146,0.22756 0.0302,0.27618 -1.16044,2.94292 -2.64583,5.9261 -2.18642,4.3911 -2.87009,5.5361 -3.59017,6.01283 -1.51874,1.00549 -3.11153,1.07161 -5.12981,0.21296 -0.43518,-0.18514 -0.46302,0.28998 -0.46302,7.90111 v 8.0981 h -0.92604 -0.92604 z m -1.74587,-9.51055 c 1.09589,-0.4579 1.7463,-1.35342 1.74448,-2.40193 -0.003,-1.55051 -0.70237,-2.16193 -4.694967,-4.1028 -2.073672,-1.00805 -3.765214,-1.7491 -3.758983,-1.64677 0.0062,0.10233 0.869431,1.85293 1.918229,3.89022 1.618538,3.14402 2.046936,3.77412 2.832941,4.16677 1.10709,0.55305 0.88634,0.5424 1.9583,0.0945 z m 8.19209,-0.39422 c 0.40796,-0.35368 4.13711,-7.40793 4.13711,-7.82598 0,-0.0712 -1.69664,0.70323 -3.77031,1.72104 -3.98409,1.95549 -4.69231,2.57355 -4.69496,4.09723 -0.004,2.14514 2.71495,3.40627 4.32816,2.00771 z m -8.03664,-8.36347 c 0.4205,-0.21745 0.95037,-0.66066 1.17748,-0.98491 0.54425,-0.77702 0.51602,-2.30971 -0.056,-3.03918 -0.41186,-0.52526 -7.99776,-4.4802 -7.99776,-4.16967 0,0.0712 0.819904,1.76503 1.822008,3.76401 1.834748,3.6599 2.366426,4.39828 3.337372,4.63482 0.87034,0.21203 0.92229,0.20582 1.71687,-0.20507 z m 8.03664,-0.36168 c 0.41366,-0.36373 4.13711,-7.41997 4.13711,-7.84015 0,-0.30695 -7.57429,3.66111 -7.99776,4.18991 -0.51619,0.64456 -0.60942,2.06285 -0.18744,2.85134 0.76432,1.42813 2.86172,1.84206 4.04809,0.7989 z m -7.76384,-8.10923 c 0.97314,-0.50323 1.31762,-1.14218 1.31762,-2.44391 0,-0.77545 -0.17781,-1.19526 -0.72761,-1.71792 -0.63373,-0.60246 -7.443549,-4.04653 -7.607273,-3.84738 -0.03366,0.0409 0.76894,1.77388 1.783561,3.85096 1.889951,3.86902 2.44379,4.52274 3.852482,4.54726 0.33464,0.006 0.95619,-0.16923 1.38122,-0.38901 z m 7.40303,0.0195 c 0.45427,-0.24818 1.25241,-1.55057 2.54804,-4.15781 1.03761,-2.08804 1.85739,-3.82993 1.82173,-3.87087 -0.17127,-0.19665 -6.97465,3.24252 -7.61091,3.84738 -0.56394,0.53611 -0.72628,0.93349 -0.72172,1.76667 0.0118,2.1581 2.10168,3.43149 3.96286,2.41463 z"
       id="path137" /></g></svg>
