<?xml version="1.0" encoding="UTF-8" standalone="no"?>
<!-- Created with Inkscape (http://www.inkscape.org/) -->

<svg
   width="200mm"
   height="200mm"
   viewBox="0 0 200 200"
   version="1.1"
   id="svg5"
   xml:space="preserve"
   inkscape:export-filename="folha.svg"
   inkscape:export-xdpi="96"
   inkscape:export-ydpi="96"
   xmlns:inkscape="http://www.inkscape.org/namespaces/inkscape"
   xmlns:sodipodi="http://sodipodi.sourceforge.net/DTD/sodipodi-0.dtd"
   xmlns="http://www.w3.org/2000/svg"
   xmlns:svg="http://www.w3.org/2000/svg"><sodipodi:namedview
     id="namedview7"
     pagecolor="#505050"
     bordercolor="#eeeeee"
     borderopacity="1"
     inkscape:showpageshadow="0"
     inkscape:pageopacity="0"
     inkscape:pagecheckerboard="0"
     inkscape:deskcolor="#505050"
     inkscape:document-units="mm"
     showgrid="false" /><defs
     id="defs2" /><g
     inkscape:label="Camada 1"
     inkscape:groupmode="layer"
     id="layer1"
     transform="translate(-63.791878,-104.77919)"><rect
       style="fill:#c69861;stroke:none;stroke-width:0.623341"
       id="rect245"
       width="200"
       height="200"
       x="63.791878"
       y="104.77919" /><path
       style="fill:#000000;stroke-width:0.654122"
       d="m 161.1754,253.21546 v -19.91738 l -2.26844,0.9478 c -4.52278,1.88976 -10.60775,0.33319 -13.26038,-3.39209 -2.10954,-2.96257 -13.31778,-26.56614 -13.11142,-27.61146 0.43465,-2.20189 2.15049,-2.26058 6.27405,-0.2146 2.22791,1.10536 4.05075,1.90383 4.05075,1.77435 0,-0.12954 -2.35485,-5.14478 -5.233,-11.14512 -2.87815,-6.00041 -5.23299,-11.28903 -5.23299,-11.75255 0,-0.46351 0.46205,-1.2262 1.02676,-1.69487 0.86322,-0.71639 1.69752,-0.52138 5.23764,1.22434 l 4.21088,2.07647 -2.88893,-5.75217 c -4.42752,-8.81572 -7.58635,-15.82438 -7.58635,-16.8322 0,-0.50074 0.54895,-1.2042 1.2199,-1.56327 0.96859,-0.51836 3.2699,0.35277 11.17152,4.22878 5.4734,2.68492 10.04768,4.88166 10.16504,4.88166 0.11743,0 0.0507,-1.2132 -0.14834,-2.696 -0.29484,-2.19824 0.47144,-5.15627 4.15051,-16.02158 2.48167,-7.32909 4.6835,-13.3276 4.89295,-13.33002 0.2094,-0.002 0.69138,0.95222 1.07092,2.12146 0.37952,1.16924 2.36884,6.93562 4.4207,12.81415 3.00256,8.60221 3.6872,11.31522 3.50796,13.90052 -0.12237,1.76677 -0.17231,3.21209 -0.11051,3.21186 0.0618,-2.2e-4 4.59035,-2.19713 10.06375,-4.88205 7.90162,-3.87601 10.20296,-4.74714 11.17155,-4.22878 0.67092,0.35907 1.21987,1.06253 1.21987,1.56327 0,1.00782 -3.15883,8.01648 -7.58635,16.8322 l -2.88891,5.75217 4.21086,-2.07647 c 3.54012,-1.74572 4.37442,-1.94073 5.23764,-1.22434 0.56471,0.46867 1.02676,1.23136 1.02676,1.69487 0,0.46352 -2.35484,5.75214 -5.23299,11.75248 -2.87813,6.00034 -5.23297,10.98685 -5.23297,11.08109 0,0.0942 1.82948,-0.7 4.06553,-1.76503 4.2936,-2.04502 5.94039,-1.89582 6.20902,0.56259 0.0747,0.68279 -2.86892,7.27571 -6.54122,14.65095 -5.40543,10.85602 -7.09565,13.68677 -8.87589,14.86538 -3.75474,2.48585 -7.69256,2.64932 -12.68231,0.5265 -1.07588,-0.45772 -1.14471,0.71691 -1.14471,19.53372 v 20.02074 h -2.28943 -2.28942 z m -4.31628,-23.51271 c 2.70935,-1.13205 4.31734,-3.34603 4.31284,-5.93823 -0.007,-3.83329 -1.73645,-5.34489 -11.60724,-10.14326 -5.12671,-2.49218 -9.30866,-4.32426 -9.29326,-4.07127 0.0148,0.25299 2.14947,4.58096 4.74239,9.6177 4.00148,7.77289 5.06061,9.33067 7.00381,10.30141 2.73704,1.36729 2.19128,1.34096 4.84146,0.23363 z m 20.25311,-0.97462 c 1.00859,-0.87439 10.22808,-18.31445 10.22808,-19.34798 0,-0.17603 -4.19456,1.73858 -9.32125,4.25488 -9.84977,4.83451 -11.60068,6.36253 -11.60723,10.12949 -0.01,5.30338 6.7121,8.42124 10.7004,4.96361 z m -19.86879,-20.67681 c 1.03959,-0.53759 2.34958,-1.63333 2.91105,-2.43497 1.34554,-1.921 1.27575,-5.71024 -0.13844,-7.51369 -1.01824,-1.29859 -19.77268,-11.07629 -19.77268,-10.30858 0,0.17603 2.02705,4.36365 4.50452,9.30568 4.53601,9.04828 5.85047,10.87376 8.2509,11.45855 2.15172,0.5242 2.28015,0.50885 4.24457,-0.50699 z m 19.86879,-0.89417 c 1.02268,-0.89924 10.22808,-18.34422 10.22808,-19.38302 0,-0.75886 -18.72574,9.05128 -19.77267,10.35862 -1.27617,1.59353 -1.50666,5.09993 -0.4634,7.0493 1.88961,3.53073 7.07496,4.55408 10.00799,1.9751 z m -19.19435,-20.04826 c 2.40587,-1.24412 3.25752,-2.82378 3.25752,-6.04202 0,-1.91712 -0.4396,-2.95501 -1.79886,-4.24717 -1.56675,-1.48945 -18.40251,-10.00414 -18.80727,-9.51179 -0.0833,0.10112 1.90103,4.38553 4.40945,9.52064 4.67248,9.56529 6.04173,11.18146 9.5244,11.24208 0.82732,0.0148 2.36396,-0.41838 3.41476,-0.96174 z m 18.30233,0.0482 c 1.12308,-0.61357 3.0963,-3.83343 6.29946,-10.27925 2.56526,-5.16221 4.59198,-9.46865 4.50382,-9.56986 -0.42343,-0.48618 -17.24326,8.0164 -18.81627,9.51178 -1.39422,1.32542 -1.79557,2.30785 -1.78429,4.3677 0.0292,5.33542 5.19593,8.48359 9.79728,5.96963 z"
       id="path137" /></g></svg>
