<?xml version="1.0" encoding="UTF-8" standalone="no"?>
<!-- Created with Inkscape (http://www.inkscape.org/) -->

<svg
   width="181.5219mm"
   height="181.5219mm"
   viewBox="0 0 181.5219 181.5219"
   version="1.1"
   id="svg5"
   xml:space="preserve"
   inkscape:export-filename="pattern.svg"
   inkscape:export-xdpi="96"
   inkscape:export-ydpi="96"
   xmlns:inkscape="http://www.inkscape.org/namespaces/inkscape"
   xmlns:sodipodi="http://sodipodi.sourceforge.net/DTD/sodipodi-0.dtd"
   xmlns="http://www.w3.org/2000/svg"
   xmlns:svg="http://www.w3.org/2000/svg"><sodipodi:namedview
     id="namedview7"
     pagecolor="#505050"
     bordercolor="#eeeeee"
     borderopacity="1"
     inkscape:showpageshadow="0"
     inkscape:pageopacity="0"
     inkscape:pagecheckerboard="0"
     inkscape:deskcolor="#505050"
     inkscape:document-units="mm"
     showgrid="false" /><defs
     id="defs2" /><g
     inkscape:label="Camada 1"
     inkscape:groupmode="layer"
     id="layer1"
     transform="translate(-63.791878,-104.77919)"><g
       id="g407"><rect
         style="fill:#c69861;stroke:none;stroke-width:0.56575"
         id="rect245"
         width="181.5219"
         height="181.5219"
         x="63.791878"
         y="104.77919" /><g
         id="g396"
         transform="matrix(0.85021525,0,0,0.85021525,102.45477,65.425783)"><g
           id="g372"
           transform="translate(0,0.62239139)"><path
             style="fill:#bc8746;fill-opacity:1;stroke-width:0.654122"
             d="m -30.793116,240.02146 14.08372,-14.08371 -2.27423,-0.93383 c -4.53435,-1.86183 -7.73641,-7.26522 -6.97793,-11.77508 0.60318,-3.58652 9.368,-28.20219 10.25307,-28.79542 1.86432,-1.24963 3.1191,-0.0779 4.58817,4.28467 0.79377,2.35698 1.5181001,4.21053 1.6096601,4.11897 0.0916,-0.0916 1.97278,-5.30304 4.1805,-11.58108 2.20777,-6.27809 4.28227,-11.68283 4.61003,-12.01059 0.32775,-0.32775 1.19377,-0.54033 1.92448,-0.47242 1.11695,0.10382 1.569,0.83165 2.83783,4.56931 l 1.50926,4.44582 2.02461,-6.11018 c 3.1029299,-9.36438 5.8251699,-16.55388 6.5378099,-17.26652 0.35407,-0.35407 1.23966,-0.46333 1.96799,-0.2428 1.05144,0.31836 2.06273,2.56162 4.90926,10.88966 1.97176,5.7688 3.65293,10.55664 3.73592,10.63962 0.083,0.083 0.89371,-0.82201 1.80146,-2.01125 1.34591,-1.76287 3.9794,-3.31267 14.26383,-8.39411 6.93725,-3.42765 12.73577,-6.1123 12.88558,-5.96591 0.14948,0.14665 -0.18444,1.1622 -0.74284,2.25735 -0.55842,1.09514 -3.2292,6.57925 -5.93507,12.18688 -3.95955,8.20581 -5.39382,10.60831 -7.34865,12.30965 -1.33582,1.16277 -2.39313,2.14945 -2.34927,2.19299 0.0439,0.0435 4.79948,1.69226 10.56828,3.66402 8.32804,2.84653 10.57132,3.85784 10.88968,4.90928 0.22051,0.72831 0.11125,1.6139 -0.24282,1.96797 -0.71264,0.71264 -7.90214,3.43488 -17.26653,6.53781 l -6.11016,2.02463 4.44581,1.50924 c 3.73765,1.26883 4.46549,1.72088 4.56931,2.83783 0.0679,0.73071 -0.14467,1.59673 -0.47242,1.92448 -0.32776,0.32776 -5.7325,2.40226 -12.01054,4.60998 -6.27803,2.20773 -11.46915,4.06861 -11.53579,4.13524 -0.0666,0.0666 1.78862,0.79867 4.12283,1.6267 4.48208,1.58999 5.54104,2.85995 3.99263,4.78825 -0.42998,0.53563 -7.17334,3.11608 -14.98513,5.73445 -11.4985799,3.85415 -14.6953899,4.66062 -16.7876099,4.23521 -4.41276,-0.89724 -7.3128101,-3.56611 -9.3400401,-8.59546 -0.4371,-1.08442 -1.31636,-0.3025 -14.62186,13.003 l -14.1568,14.1568 -1.61887,-1.61887 -1.61886,-1.61887 z m 13.57393,-19.67806 c 2.71628,1.11532 5.41882,0.68682 7.2486001,-1.14933 2.7056,-2.71549 2.55155,-5.00726 -1.0351901,-15.37992 -1.86289,-5.38737 -3.5245,-9.63993 -3.6925,-9.45015 -0.16843,0.18935 -1.71933,4.75913 -3.44737,10.15411 -2.66679,8.32574 -3.01939,10.17617 -2.33175,12.23664 0.96855,2.9022 0.60126,2.49767 3.25822,3.58863 z m 15.0102701,13.63195 c 1.33147,0.0949 20.1826199,-5.71793 20.9134299,-6.44875 0.12448,-0.12447 -4.19536,-1.73664 -9.5997699,-3.58246 -10.38335,-3.54632 -12.70191,-3.70393 -15.37018,-1.04492 -3.7571301,3.74298 -1.20855,10.70089 4.05652,11.07613 z m 0.57136,-28.67007 c 1.11523,0.35497 2.81634,0.50646 3.7802,0.33664 2.3098,-0.40691 4.93985,-3.13566 5.21509,-5.41088 0.19824,-1.63824 -6.14927,-21.81351 -6.69213,-21.27066 -0.12447,0.12447 -1.65222,4.51891 -3.39493,9.76529 -3.19066,9.60554 -3.552,11.82581 -2.26815,13.93668 1.15083,1.89216 1.2525,1.97212 3.35986,2.64287 z m 14.6816299,13.41708 c 1.359,0.0873 20.20366,-5.73898 20.93821,-6.47352 0.53659,-0.53659 -19.64132,-6.84088 -21.30604,-6.65674 -2.02919,0.22441 -4.6715699,2.54083 -5.3122799,4.65694 -1.16045,3.83276 1.78253,8.22297 5.6801099,8.47332 z m 0.6038,-27.74871 c 2.58094,0.82148 4.30013,0.3067 6.57577,-1.96894 1.35561,-1.35561 1.77866,-2.40036 1.73122,-4.27519 -0.0547,-2.16106 -5.93855,-20.08654 -6.5729,-20.0246 -0.1304,0.0126 -1.75681,4.44527 -3.61416,9.85006 -3.4597399,10.06762 -3.6343299,12.17863 -1.21458,14.68412 0.57454,0.59547 1.96741,1.37573 3.09465,1.73455 z m 12.90762,12.97578 c 1.228,0.36028 4.90006,-0.52123 11.72292,-2.81414 5.46415,-1.83632 9.94237,-3.44832 9.95159,-3.58223 0.0444,-0.64319 -17.86127,-6.52437 -20.03095,-6.57927 -1.92308,-0.0487 -2.90156,0.36224 -4.35012,1.82675 -3.75206,3.79336 -2.32472,9.67288 2.70656,11.14889 z"
             id="path363" /><path
             style="fill:#bc8746;fill-opacity:1;stroke-width:0.654122"
             d="m -30.793116,132.70634 14.08372,-14.08371 -2.27423,-0.93383 c -4.53435,-1.86183 -7.73641,-7.26522 -6.97793,-11.77508 0.60318,-3.58652 9.368,-28.202195 10.25307,-28.795425 1.86432,-1.24963 3.1191,-0.0779 4.58817,4.28467 0.79377,2.35698 1.5181001,4.21053 1.6096601,4.11897 0.0916,-0.0916 1.97278,-5.30304 4.1805,-11.58108 2.20777,-6.27809 4.28227,-11.68283 4.61003,-12.01059 0.32775,-0.32775 1.19377,-0.54033 1.92448,-0.47242 1.11695,0.10382 1.569,0.83165 2.83783,4.56931 l 1.50926,4.44582 2.02461,-6.11018 c 3.1029299,-9.36438 5.8251699,-16.55388 6.5378099,-17.26652 0.35407,-0.35407 1.23966,-0.46333 1.96799,-0.2428 1.05144,0.31836 2.06273,2.56162 4.90926,10.88966 1.97176,5.7688 3.65293,10.55664 3.73592,10.63962 0.083,0.083 0.89371,-0.82201 1.80146,-2.01125 1.34591,-1.76287 3.9794,-3.31267 14.26383,-8.39411 6.93725,-3.42765 12.73577,-6.1123 12.88558,-5.96591 0.14948,0.14665 -0.18444,1.1622 -0.74284,2.25735 -0.55842,1.09514 -3.2292,6.57925 -5.93507,12.18688 -3.95955,8.20581 -5.39382,10.60831 -7.34865,12.30965 -1.33582,1.16277 -2.39313,2.14945 -2.34927,2.19299 0.0439,0.0435 4.79948,1.69226 10.56828,3.66402 8.32804,2.84653 10.57132,3.85784 10.88968,4.90928 0.22051,0.72831 0.11125,1.6139 -0.24282,1.96797 -0.71264,0.71264 -7.90214,3.43488 -17.26653,6.53781 l -6.11016,2.024635 4.44581,1.50924 c 3.73765,1.26883 4.46549,1.72088 4.56931,2.83783 0.0679,0.73071 -0.14467,1.59673 -0.47242,1.92448 -0.32776,0.32776 -5.7325,2.40226 -12.01054,4.60998 -6.27803,2.20773 -11.46915,4.06861 -11.53579,4.13524 -0.0666,0.0666 1.78862,0.79867 4.12283,1.6267 4.48208,1.58999 5.54104,2.85995 3.99263,4.78825 -0.42998,0.53563 -7.17334,3.11608 -14.98513,5.73445 -11.4985799,3.85415 -14.6953899,4.66062 -16.7876099,4.23521 -4.41276,-0.89724 -7.3128101,-3.56611 -9.3400401,-8.59546 -0.4371,-1.08442 -1.31636,-0.3025 -14.62186,13.003 l -14.1568,14.1568 -1.61887,-1.61887 -1.61886,-1.61887 z m 13.57393,-19.67806 c 2.71628,1.11532 5.41882,0.68682 7.2486001,-1.14933 2.7056,-2.71549 2.55155,-5.00726 -1.0351901,-15.379925 -1.86289,-5.38737 -3.5245,-9.63993 -3.6925,-9.45015 -0.16843,0.18935 -1.71933,4.75913 -3.44737,10.15411 -2.66679,8.325745 -3.01939,10.176175 -2.33175,12.236645 0.96855,2.9022 0.60126,2.49767 3.25822,3.58863 z m 15.0102701,13.63195 c 1.33147,0.0949 20.1826199,-5.71793 20.9134299,-6.44875 0.12448,-0.12447 -4.19536,-1.73664 -9.5997699,-3.58246 -10.38335,-3.54632 -12.70191,-3.70393 -15.37018,-1.04492 -3.7571301,3.74298 -1.20855,10.70089 4.05652,11.07613 z m 0.57136,-28.670075 c 1.11523,0.35497 2.81634,0.50646 3.7802,0.33664 2.3098,-0.40691 4.93985,-3.13566 5.21509,-5.41088 0.19824,-1.63824 -6.14927,-21.81351 -6.69213,-21.27066 -0.12447,0.12447 -1.65222,4.51891 -3.39493,9.76529 -3.19066,9.60554 -3.552,11.82581 -2.26815,13.93668 1.15083,1.89216 1.2525,1.97212 3.35986,2.64287 z M 13.044074,111.40724 c 1.359,0.0873 20.20366,-5.73898 20.93821,-6.47352 0.53659,-0.53659 -19.64132,-6.840885 -21.30604,-6.656745 -2.02919,0.22441 -4.6715699,2.540835 -5.3122799,4.656945 -1.16045,3.83276 1.78253,8.22297 5.6801099,8.47332 z m 0.6038,-27.748715 c 2.58094,0.82148 4.30013,0.3067 6.57577,-1.96894 1.35561,-1.35561 1.77866,-2.40036 1.73122,-4.27519 -0.0547,-2.16106 -5.93855,-20.08654 -6.5729,-20.0246 -0.1304,0.0126 -1.75681,4.44527 -3.61416,9.85006 -3.4597399,10.06762 -3.6343299,12.17863 -1.21458,14.68412 0.57454,0.59547 1.96741,1.37573 3.09465,1.73455 z m 12.90762,12.97578 c 1.228,0.36028 4.90006,-0.52123 11.72292,-2.81414 5.46415,-1.83632 9.94237,-3.44832 9.95159,-3.58223 0.0444,-0.64319 -17.86127,-6.52437 -20.03095,-6.57927 -1.92308,-0.0487 -2.90156,0.36224 -4.35012,1.82675 -3.75206,3.79336 -2.32472,9.67288 2.70656,11.14889 z"
             id="path365" /></g><g
           id="g382" /><g
           id="g377"
           transform="translate(0.710694,0.62239139)"><path
             style="fill:#bc8746;fill-opacity:1;stroke-width:0.654122"
             d="m 77.943396,240.02146 14.08372,-14.08371 -2.27423,-0.93383 c -4.53435,-1.86183 -7.73641,-7.26522 -6.97793,-11.77508 0.60318,-3.58652 9.368,-28.20219 10.25307,-28.79542 1.86432,-1.24963 3.1191,-0.0779 4.58817,4.28467 0.79377,2.35698 1.5181,4.21053 1.60966,4.11897 0.0916,-0.0916 1.972784,-5.30304 4.180504,-11.58108 2.20777,-6.27809 4.28227,-11.68283 4.61003,-12.01059 0.32775,-0.32775 1.19377,-0.54033 1.92448,-0.47242 1.11695,0.10382 1.569,0.83165 2.83783,4.56931 l 1.50926,4.44582 2.02461,-6.11018 c 3.10293,-9.36438 5.82517,-16.55388 6.53781,-17.26652 0.35407,-0.35407 1.23966,-0.46333 1.96799,-0.2428 1.05144,0.31836 2.06273,2.56162 4.90926,10.88966 1.97176,5.7688 3.65293,10.55664 3.73592,10.63962 0.083,0.083 0.89371,-0.82201 1.80146,-2.01125 1.34591,-1.76287 3.9794,-3.31267 14.26383,-8.39411 6.93725,-3.42765 12.73577,-6.1123 12.88558,-5.96591 0.14948,0.14665 -0.18444,1.1622 -0.74284,2.25735 -0.55842,1.09514 -3.2292,6.57925 -5.93507,12.18688 -3.95955,8.20581 -5.39382,10.60831 -7.34865,12.30965 -1.33582,1.16277 -2.39313,2.14945 -2.34927,2.19299 0.0439,0.0435 4.79948,1.69226 10.56828,3.66402 8.32804,2.84653 10.57132,3.85784 10.88968,4.90928 0.22051,0.72831 0.11125,1.6139 -0.24282,1.96797 -0.71264,0.71264 -7.90214,3.43488 -17.26653,6.53781 l -6.11016,2.02463 4.44581,1.50924 c 3.73765,1.26883 4.46549,1.72088 4.56931,2.83783 0.0679,0.73071 -0.14467,1.59673 -0.47242,1.92448 -0.32776,0.32776 -5.7325,2.40226 -12.01054,4.60998 -6.27803,2.20773 -11.46915,4.06861 -11.53579,4.13524 -0.0666,0.0666 1.78862,0.79867 4.12283,1.6267 4.48208,1.58999 5.54104,2.85995 3.99263,4.78825 -0.42998,0.53563 -7.17334,3.11608 -14.98513,5.73445 -11.49858,3.85415 -14.69539,4.66062 -16.78761,4.23521 -4.41276,-0.89724 -7.312814,-3.56611 -9.340044,-8.59546 -0.4371,-1.08442 -1.31636,-0.3025 -14.62186,13.003 l -14.1568,14.1568 -1.61887,-1.61887 -1.61886,-1.61887 z m 13.57393,-19.67806 c 2.71628,1.11532 5.41882,0.68682 7.2486,-1.14933 2.705604,-2.71549 2.551554,-5.00726 -1.03519,-15.37992 -1.86289,-5.38737 -3.5245,-9.63993 -3.6925,-9.45015 -0.16843,0.18935 -1.71933,4.75913 -3.44737,10.15411 -2.66679,8.32574 -3.01939,10.17617 -2.33175,12.23664 0.96855,2.9022 0.60126,2.49767 3.25822,3.58863 z m 15.010274,13.63195 c 1.33147,0.0949 20.18262,-5.71793 20.91343,-6.44875 0.12448,-0.12447 -4.19536,-1.73664 -9.59977,-3.58246 -10.38335,-3.54632 -12.70191,-3.70393 -15.37018,-1.04492 -3.757134,3.74298 -1.20855,10.70089 4.05652,11.07613 z m 0.57136,-28.67007 c 1.11523,0.35497 2.81634,0.50646 3.7802,0.33664 2.3098,-0.40691 4.93985,-3.13566 5.21509,-5.41088 0.19824,-1.63824 -6.14927,-21.81351 -6.69213,-21.27066 -0.12447,0.12447 -1.65222,4.51891 -3.39493,9.76529 -3.19066,9.60554 -3.552,11.82581 -2.26815,13.93668 1.15083,1.89216 1.2525,1.97212 3.35986,2.64287 z m 14.68163,13.41708 c 1.359,0.0873 20.20366,-5.73898 20.93821,-6.47352 0.53659,-0.53659 -19.64132,-6.84088 -21.30604,-6.65674 -2.02919,0.22441 -4.67157,2.54083 -5.31228,4.65694 -1.16045,3.83276 1.78253,8.22297 5.68011,8.47332 z m 0.6038,-27.74871 c 2.58094,0.82148 4.30013,0.3067 6.57577,-1.96894 1.35561,-1.35561 1.77866,-2.40036 1.73122,-4.27519 -0.0547,-2.16106 -5.93855,-20.08654 -6.5729,-20.0246 -0.1304,0.0126 -1.75681,4.44527 -3.61416,9.85006 -3.45974,10.06762 -3.63433,12.17863 -1.21458,14.68412 0.57454,0.59547 1.96741,1.37573 3.09465,1.73455 z m 12.90762,12.97578 c 1.228,0.36028 4.90006,-0.52123 11.72292,-2.81414 5.46415,-1.83632 9.94237,-3.44832 9.95159,-3.58223 0.0444,-0.64319 -17.86127,-6.52437 -20.03095,-6.57927 -1.92308,-0.0487 -2.90156,0.36224 -4.35012,1.82675 -3.75206,3.79336 -2.32472,9.67288 2.70656,11.14889 z"
             id="path357" /><path
             style="fill:#bc8746;fill-opacity:1;stroke-width:0.654122"
             d="m 77.943396,132.70634 14.08372,-14.08371 -2.27423,-0.93383 c -4.53435,-1.86183 -7.73641,-7.26522 -6.97793,-11.77508 0.60318,-3.58652 9.368,-28.202195 10.25307,-28.795425 1.86432,-1.24963 3.1191,-0.0779 4.58817,4.28467 0.79377,2.35698 1.5181,4.21053 1.60966,4.11897 0.0916,-0.0916 1.972784,-5.30304 4.180504,-11.58108 2.20777,-6.27809 4.28227,-11.68283 4.61003,-12.01059 0.32775,-0.32775 1.19377,-0.54033 1.92448,-0.47242 1.11695,0.10382 1.569,0.83165 2.83783,4.56931 l 1.50926,4.44582 2.02461,-6.11018 c 3.10293,-9.36438 5.82517,-16.55388 6.53781,-17.26652 0.35407,-0.35407 1.23966,-0.46333 1.96799,-0.2428 1.05144,0.31836 2.06273,2.56162 4.90926,10.88966 1.97176,5.7688 3.65293,10.55664 3.73592,10.63962 0.083,0.083 0.89371,-0.82201 1.80146,-2.01125 1.34591,-1.76287 3.9794,-3.31267 14.26383,-8.39411 6.93725,-3.42765 12.73577,-6.1123 12.88558,-5.96591 0.14948,0.14665 -0.18444,1.1622 -0.74284,2.25735 -0.55842,1.09514 -3.2292,6.57925 -5.93507,12.18688 -3.95955,8.20581 -5.39382,10.60831 -7.34865,12.30965 -1.33582,1.16277 -2.39313,2.14945 -2.34927,2.19299 0.0439,0.0435 4.79948,1.69226 10.56828,3.66402 8.32804,2.84653 10.57132,3.85784 10.88968,4.90928 0.22051,0.72831 0.11125,1.6139 -0.24282,1.96797 -0.71264,0.71264 -7.90214,3.43488 -17.26653,6.53781 l -6.11016,2.024635 4.44581,1.50924 c 3.73765,1.26883 4.46549,1.72088 4.56931,2.83783 0.0679,0.73071 -0.14467,1.59673 -0.47242,1.92448 -0.32776,0.32776 -5.7325,2.40226 -12.01054,4.60998 -6.27803,2.20773 -11.46915,4.06861 -11.53579,4.13524 -0.0666,0.0666 1.78862,0.79867 4.12283,1.6267 4.48208,1.58999 5.54104,2.85995 3.99263,4.78825 -0.42998,0.53563 -7.17334,3.11608 -14.98513,5.73445 -11.49858,3.85415 -14.69539,4.66062 -16.78761,4.23521 -4.41276,-0.89724 -7.312814,-3.56611 -9.340044,-8.59546 -0.4371,-1.08442 -1.31636,-0.3025 -14.62186,13.003 l -14.1568,14.1568 -1.61887,-1.61887 -1.61886,-1.61887 z m 13.57393,-19.67806 c 2.71628,1.11532 5.41882,0.68682 7.2486,-1.14933 2.705604,-2.71549 2.551554,-5.00726 -1.03519,-15.379925 -1.86289,-5.38737 -3.5245,-9.63993 -3.6925,-9.45015 -0.16843,0.18935 -1.71933,4.75913 -3.44737,10.15411 -2.66679,8.325745 -3.01939,10.176175 -2.33175,12.236645 0.96855,2.9022 0.60126,2.49767 3.25822,3.58863 z m 15.010274,13.63195 c 1.33147,0.0949 20.18262,-5.71793 20.91343,-6.44875 0.12448,-0.12447 -4.19536,-1.73664 -9.59977,-3.58246 -10.38335,-3.54632 -12.70191,-3.70393 -15.37018,-1.04492 -3.757134,3.74298 -1.20855,10.70089 4.05652,11.07613 z m 0.57136,-28.670075 c 1.11523,0.35497 2.81634,0.50646 3.7802,0.33664 2.3098,-0.40691 4.93985,-3.13566 5.21509,-5.41088 0.19824,-1.63824 -6.14927,-21.81351 -6.69213,-21.27066 -0.12447,0.12447 -1.65222,4.51891 -3.39493,9.76529 -3.19066,9.60554 -3.552,11.82581 -2.26815,13.93668 1.15083,1.89216 1.2525,1.97212 3.35986,2.64287 z m 14.68163,13.417085 c 1.359,0.0873 20.20366,-5.73898 20.93821,-6.47352 0.53659,-0.53659 -19.64132,-6.840885 -21.30604,-6.656745 -2.02919,0.22441 -4.67157,2.540835 -5.31228,4.656945 -1.16045,3.83276 1.78253,8.22297 5.68011,8.47332 z m 0.6038,-27.748715 c 2.58094,0.82148 4.30013,0.3067 6.57577,-1.96894 1.35561,-1.35561 1.77866,-2.40036 1.73122,-4.27519 -0.0547,-2.16106 -5.93855,-20.08654 -6.5729,-20.0246 -0.1304,0.0126 -1.75681,4.44527 -3.61416,9.85006 -3.45974,10.06762 -3.63433,12.17863 -1.21458,14.68412 0.57454,0.59547 1.96741,1.37573 3.09465,1.73455 z m 12.90762,12.97578 c 1.228,0.36028 4.90006,-0.52123 11.72292,-2.81414 5.46415,-1.83632 9.94237,-3.44832 9.95159,-3.58223 0.0444,-0.64319 -17.86127,-6.52437 -20.03095,-6.57927 -1.92308,-0.0487 -2.90156,0.36224 -4.35012,1.82675 -3.75206,3.79336 -2.32472,9.67288 2.70656,11.14889 z"
             id="path359" /></g></g></g></g></svg>
