<?xml version="1.0" encoding="UTF-8" standalone="no"?>
<!-- Created with Inkscape (http://www.inkscape.org/) -->

<svg
   width="80mm"
   height="30mm"
   viewBox="0 0 80 30.000001"
   version="1.1"
   id="svg5"
   xml:space="preserve"
   inkscape:version="1.2 (dc2aedaf03, 2022-05-15)"
   sodipodi:docname="logo.svg"
   xmlns:inkscape="http://www.inkscape.org/namespaces/inkscape"
   xmlns:sodipodi="http://sodipodi.sourceforge.net/DTD/sodipodi-0.dtd"
   xmlns="http://www.w3.org/2000/svg"
   xmlns:svg="http://www.w3.org/2000/svg"><sodipodi:namedview
     id="namedview7"
     pagecolor="#505050"
     bordercolor="#eeeeee"
     borderopacity="1"
     inkscape:showpageshadow="0"
     inkscape:pageopacity="0"
     inkscape:pagecheckerboard="0"
     inkscape:deskcolor="#505050"
     inkscape:document-units="mm"
     showgrid="false"
     inkscape:zoom="0.4204826"
     inkscape:cx="184.31202"
     inkscape:cy="336.51808"
     inkscape:current-layer="layer1" /><defs
     id="defs2" /><g
     inkscape:label="Camada 1"
     inkscape:groupmode="layer"
     id="layer1"
     transform="translate(-100.64901,-95.603187)"><g
       id="g972"><path
         style="fill:#ffffff;stroke-width:0.264583"
         d="m 111.85571,115.86418 c 0.86535,-0.10167 3.67466,-0.56655 6.24289,-1.03307 2.70043,-0.49053 5.56184,-0.73598 6.78475,-0.78383 1.69321,-0.0663 3.16446,0.37677 4.75459,0.85021 3.00689,0.89524 6.14633,2.48307 9.05073,4.57758 2.10566,1.5185 4.3813,3.49744 4.49189,3.90624 0.0892,0.32961 -0.0172,0.29542 -1.78315,-0.57358 -5.99312,-2.9492 -12.39127,-5.21047 -15.46137,-5.71204 -1.03403,-0.16929 -2.09978,-0.0884 -3.08623,-0.16642 -0.22414,-0.0177 -1.97077,-5.6e-4 -3.88441,0.0657 -3.98625,0.13799 -4.14215,0.1267 -6.74866,-0.48892 l -1.93444,-0.45691 z"
         id="path857" /><path
         style="fill:#ffffff;stroke-width:0.264583"
         d="m 158.19941,111.56079 c -1.1476,-0.39346 -5.23092,-2.68479 -6.0549,-3.12231 -1.42607,-0.75722 -2.73481,-1.82024 -3.84836,-2.60944 -1.42813,-1.00881 -3.05171,-2.1579 -3.60795,-2.55353 -2.14705,-1.52707 -4.52693,-3.04275 -6.56323,-4.17991 -1.16647,-0.651403 -2.10516,-1.262631 -2.08601,-1.358292 0.0654,-0.325982 3.50836,0.153227 5.85936,0.815533 4.56408,1.28578 9.16665,3.297639 13.55809,5.926509 4.72095,2.82611 9.1538,4.16969 13.12018,3.97667 1.58133,-0.42638 6.17524,-0.90535 7.31803,-1.49069 1.48253,-0.79421 -0.64477,1.41868 -2.74936,2.85999 -2.3347,1.59888 -6.66615,2.91714 -9.25631,2.81714 -1.53731,-0.0594 -4.16487,-0.55888 -5.68955,-1.08161 z"
         id="path959" /><path
         style="fill:#ffffff;stroke-width:0.264583"
         d="m 157.7819,120.46303 c -4.47405,-0.67195 -7.56737,-1.54495 -14.15521,-3.99491 -2.91042,-1.08235 -6.54183,-2.36736 -8.06979,-2.85557 -8.9067,-2.84584 -16.70677,-2.91611 -27.49155,-0.24767 -1.51017,0.37365 -2.91384,0.64411 -3.11926,0.60103 -0.41707,-0.0875 2.78696,-2.62432 4.77094,-3.77747 0.70397,-0.40916 1.26552,-0.66194 1.89649,-0.99629 0.63011,-0.33389 1.21188,-0.71246 1.88675,-1.00843 2.67704,-1.18392 2.75339,-1.21374 4.27285,-1.66891 5.275,-1.58017 11.4538,-1.78274 17.33076,-0.56817 2.03511,0.42059 7.77676,2.22014 9.31656,2.92 4.67049,2.1228 10.31366,4.47617 12.5677,5.24111 3.85616,1.30862 5.80936,1.59356 9.76129,1.42397 0,0 2.36459,0.0103 3.33559,-0.14314 0.971,-0.15348 2.46649,-0.68436 2.46649,-0.68436 1.35657,-0.3764 2.60672,-0.679 2.77812,-0.67244 0.1714,0.007 -0.40274,0.67127 -1.27586,1.47713 -1.02285,0.94405 -2.58319,1.8295 -4.23333,2.77676 -1.67955,0.96414 -3.30673,1.447 -5.15938,1.82669 -2.27666,0.46658 -5.13669,0.61237 -6.87916,0.35067 z"
         id="path957" /></g></g></svg>
