<?xml version="1.0" encoding="UTF-8" standalone="no"?>
<svg
   fill="#000000"
   viewBox="0 0 50 50"
   width="50"
   height="50"
   version="1.1"
   id="svg76012"
   sodipodi:docname="sm-twitter.svg"
   inkscape:version="1.2 (dc2aedaf03, 2022-05-15)"
   xmlns:inkscape="http://www.inkscape.org/namespaces/inkscape"
   xmlns:sodipodi="http://sodipodi.sourceforge.net/DTD/sodipodi-0.dtd"
   xmlns="http://www.w3.org/2000/svg"
   xmlns:svg="http://www.w3.org/2000/svg">
  <defs
     id="defs76016" />
  <sodipodi:namedview
     id="namedview76014"
     pagecolor="#505050"
     bordercolor="#eeeeee"
     borderopacity="1"
     inkscape:showpageshadow="0"
     inkscape:pageopacity="0"
     inkscape:pagecheckerboard="0"
     inkscape:deskcolor="#505050"
     showgrid="false"
     inkscape:zoom="7.8666667"
     inkscape:cx="18.050847"
     inkscape:cy="27.648305"
     inkscape:current-layer="svg76012" />
  <path
     d="M 25,2.5 C 12.574375,2.5 2.5,12.574375 2.5,25 2.5,37.425625 12.574375,47.5 25,47.5 37.425625,47.5 47.5,37.425625 47.5,25 47.5,12.574375 37.425625,2.5 25,2.5 Z m 12.12,17.878125 c 0.01125,0.249375 0.01688,0.496875 0.01688,0.744375 0,7.6275 -5.803125,16.4175 -16.4175,16.4175 -3.260625,0 -6.2925,-0.954375 -8.844375,-2.593125 0.451875,0.05438 0.91125,0.07875 1.378125,0.07875 2.705625,0 5.191875,-0.920625 7.164375,-2.47125 -2.525625,-0.04687 -4.6575,-1.715625 -5.390625,-4.006875 0.3525,0.0675 0.714375,0.103125 1.085625,0.103125 0.526875,0 1.03875,-0.07125 1.520625,-0.2025 -2.64,-0.52875 -4.629375,-2.86125 -4.629375,-5.656875 0,-0.02437 0,-0.04875 0,-0.07313 0.778125,0.433125 1.666875,0.691875 2.61375,0.721875 -1.546875,-1.033125 -2.566875,-2.80125 -2.566875,-4.801875 0,-1.059375 0.283125,-2.05125 0.78,-2.900625 2.84625,3.49125 7.09875,5.79 11.893125,6.03 -0.0975,-0.421875 -0.148125,-0.8625 -0.148125,-1.314375 0,-3.185625 2.58375,-5.77125 5.769375,-5.77125 1.659375,0 3.159375,0.70125 4.21125,1.8225 1.314375,-0.260625 2.55,-0.73875 3.665625,-1.400625 -0.43125,1.348125 -1.34625,2.476875 -2.53875,3.193125 1.16625,-0.13875 2.278125,-0.448125 3.315,-0.9075 -0.770625,1.15875 -1.7475,2.173125 -2.878125,2.98875 z"
     id="path76010"
     style="stroke-width:1.875;fill:#bf9e04;fill-opacity:1" />
</svg>
