<?xml version="1.0" encoding="UTF-8" standalone="no"?>
<svg
   fill="#000000"
   viewBox="0 0 50 50"
   width="50"
   height="50"
   version="1.1"
   id="svg76004"
   sodipodi:docname="sm-instagram.svg"
   inkscape:version="1.2 (dc2aedaf03, 2022-05-15)"
   xmlns:inkscape="http://www.inkscape.org/namespaces/inkscape"
   xmlns:sodipodi="http://sodipodi.sourceforge.net/DTD/sodipodi-0.dtd"
   xmlns="http://www.w3.org/2000/svg"
   xmlns:svg="http://www.w3.org/2000/svg">
  <defs
     id="defs76008" />
  <sodipodi:namedview
     id="namedview76006"
     pagecolor="#505050"
     bordercolor="#eeeeee"
     borderopacity="1"
     inkscape:showpageshadow="0"
     inkscape:pageopacity="0"
     inkscape:pagecheckerboard="0"
     inkscape:deskcolor="#505050"
     showgrid="false"
     inkscape:zoom="7.8666667"
     inkscape:cx="16.525424"
     inkscape:cy="26.377119"
     inkscape:current-layer="svg76004" />
  <path
     d="M 25,2.5 C 12.593847,2.5 2.5,12.593847 2.5,25 2.5,37.406154 12.593847,47.5 25,47.5 37.406154,47.5 47.5,37.406154 47.5,25 47.5,12.593847 37.406154,2.5 25,2.5 Z m -5.770357,6.9230769 h 11.537334 c 5.408653,0 9.809946,4.3996421 9.809946,9.8065661 v 11.537334 c 0,5.408653 -4.399643,9.809946 -9.806566,9.809946 H 19.233023 c -5.408654,0 -9.8099461,-4.399643 -9.8099461,-9.806566 V 19.233023 c 0,-5.408654 4.3996421,-9.8099461 9.8065661,-9.8099461 z m 0,3.4615391 c -3.497885,0 -6.345027,2.848791 -6.345027,6.348407 v 11.537334 c 0,3.497884 2.848791,6.345027 6.348407,6.345027 h 11.537334 c 3.497884,0 6.345027,-2.848792 6.345027,-6.348407 V 19.229643 c 0,-3.497885 -2.848792,-6.345027 -6.348407,-6.345027 z m 13.849534,2.883488 c 0.636923,0 1.152719,0.515797 1.152719,1.152719 0,0.636923 -0.515796,1.1561 -1.152719,1.1561 -0.636923,0 -1.1561,-0.519177 -1.1561,-1.1561 0,-0.636922 0.519177,-1.152719 1.1561,-1.152719 z M 25,16.346154 c 4.771731,0 8.653847,3.882115 8.653847,8.653846 0,4.771731 -3.882116,8.653847 -8.653847,8.653847 -4.771731,0 -8.653846,-3.882116 -8.653846,-8.653847 0,-4.771731 3.882115,-8.653846 8.653846,-8.653846 z m 0,3.461538 a 5.192308,5.192308 0 0 0 0,10.384616 5.192308,5.192308 0 0 0 0,-10.384616 z"
     id="path76002"
     style="stroke-width:1.73077;fill:#bf9e04;fill-opacity:1" />
</svg>
