<?xml version="1.0" encoding="UTF-8" standalone="no"?>
<!-- Created with Inkscape (http://www.inkscape.org/) -->

<svg
   width="46.695702mm"
   height="46.696091mm"
   viewBox="0 0 46.695702 46.696091"
   version="1.1"
   id="svg1"
   xml:space="preserve"
   xmlns:inkscape="http://www.inkscape.org/namespaces/inkscape"
   xmlns:sodipodi="http://sodipodi.sourceforge.net/DTD/sodipodi-0.dtd"
   xmlns="http://www.w3.org/2000/svg"
   xmlns:svg="http://www.w3.org/2000/svg"><sodipodi:namedview
     id="namedview1"
     pagecolor="#ffffff"
     bordercolor="#000000"
     borderopacity="0.25"
     inkscape:showpageshadow="2"
     inkscape:pageopacity="0.0"
     inkscape:pagecheckerboard="0"
     inkscape:deskcolor="#d1d1d1"
     inkscape:document-units="mm" /><defs
     id="defs1" /><g
     inkscape:label="Camada 1"
     inkscape:groupmode="layer"
     id="layer1"
     transform="translate(1203.4904,-110.35522)"><path
       d="m -1189.935,154.33471 c -1.4891,-1.49414 -2.7074,-2.80387 -2.7074,-2.91053 0,-0.10665 2.4408,-0.19392 5.424,-0.19392 2.9832,0 5.4239,0.0914 5.4239,0.20317 0,0.11174 -1.2224,1.42147 -2.7166,2.91052 l -2.7166,2.70736 z m -8.3298,-8.32924 -5.2256,-5.23115 5.2917,-5.28674 5.2917,-5.28673 v 3.50325 3.50325 h 9.2605 9.2604 v 3.57187 3.57188 h -9.2528 -9.2527 l -0.074,3.44276 -0.074,3.44276 z m 31.0224,-12.43698 v -3.50489 h -9.2604 -9.2604 v -3.43616 -3.43615 l 9.1943,-0.0696 9.1942,-0.0696 0.1323,-3.37719 0.1323,-3.3772 5.1577,5.16399 5.1577,5.16398 -5.2238,5.22383 -5.2239,5.22383 z m -8.6635,-20.37053 2.8427,-2.84274 2.8427,2.84274 2.8428,2.84273 h -5.6855 -5.6855 z"
       style="fill:#000000"
       id="path1-2" /></g></svg>
