<?xml version="1.0" encoding="UTF-8" standalone="no"?>
<svg
   fill="#228BE6"
   viewBox="0 0 50 50"
   width="50px"
   height="50px"
   version="1.1"
   id="svg4"
   sodipodi:docname="ico-pesquisar.svg"
   inkscape:version="1.2 (dc2aedaf03, 2022-05-15)"
   xmlns:inkscape="http://www.inkscape.org/namespaces/inkscape"
   xmlns:sodipodi="http://sodipodi.sourceforge.net/DTD/sodipodi-0.dtd"
   xmlns="http://www.w3.org/2000/svg"
   xmlns:svg="http://www.w3.org/2000/svg">
  <defs
     id="defs8" />
  <sodipodi:namedview
     id="namedview6"
     pagecolor="#505050"
     bordercolor="#eeeeee"
     borderopacity="1"
     inkscape:showpageshadow="0"
     inkscape:pageopacity="0"
     inkscape:pagecheckerboard="0"
     inkscape:deskcolor="#505050"
     showgrid="false"
     inkscape:zoom="6.675088"
     inkscape:cx="17.378048"
     inkscape:cy="36.628731"
     inkscape:current-layer="svg4" />
  <path
     d="m 20.436428,1.9175864 c -9.945611,0 -17.9897322,8.0441221 -17.9897322,17.9897326 0,9.94561 8.0441222,17.989732 17.9897322,17.989732 3.550823,0 6.837091,-1.041685 9.623184,-2.810896 l 12.99626,12.996259 4.497432,-4.497432 -12.830912,-12.797844 c 2.306588,-3.025846 3.703769,-6.775083 3.703769,-10.879819 0,-9.9456105 -8.044122,-17.9897327 -17.989733,-17.9897326 z m 0,4.2328782 c 7.618354,0 13.756854,6.1384994 13.756854,13.7568544 0,7.618354 -6.1385,13.756855 -13.756854,13.756855 -7.618354,0 -13.756854,-6.138501 -13.756854,-13.756855 0,-7.618355 6.1385,-13.7568545 13.756854,-13.7568544 z"
     id="path2"
     style="fill:#cccccc;stroke:none;stroke-width:1.93402;stroke-linecap:round;stroke-dasharray:none" />
</svg>
