<?xml version="1.0" encoding="UTF-8" standalone="no"?>
<svg
   fill="#000000"
   viewBox="0 0 50 50"
   width="50"
   height="50"
   version="1.1"
   id="svg75988"
   sodipodi:docname="sm-whatsapp.svg"
   inkscape:version="1.2 (dc2aedaf03, 2022-05-15)"
   xmlns:inkscape="http://www.inkscape.org/namespaces/inkscape"
   xmlns:sodipodi="http://sodipodi.sourceforge.net/DTD/sodipodi-0.dtd"
   xmlns="http://www.w3.org/2000/svg"
   xmlns:svg="http://www.w3.org/2000/svg">
  <defs
     id="defs75992" />
  <sodipodi:namedview
     id="namedview75990"
     pagecolor="#505050"
     bordercolor="#eeeeee"
     borderopacity="1"
     inkscape:showpageshadow="0"
     inkscape:pageopacity="0"
     inkscape:pagecheckerboard="0"
     inkscape:deskcolor="#505050"
     showgrid="false"
     inkscape:zoom="7.8666667"
     inkscape:cx="-1.9067797"
     inkscape:cy="28.665254"
     inkscape:current-layer="svg75988" />
  <path
     d="M 25,2.5 C 12.574375,2.5 2.5,12.574375 2.5,25 c 0,4.221015 1.1856403,8.156378 3.2080078,11.531984 L 2.701416,47.5 13.903808,44.559327 C 17.180039,46.421992 20.962169,47.5 25,47.5 37.425625,47.5 47.5,37.425625 47.5,25 47.5,12.574375 37.425625,2.5 25,2.5 Z m -7.701416,12.004394 c 0.365625,0 0.741298,-0.0023 1.065675,0.01465 0.401249,0.0094 0.837977,0.03876 1.256102,0.963135 0.496874,1.09875 1.57878,3.855146 1.71753,4.134521 0.138749,0.279375 0.237071,0.608496 0.04395,0.974123 -0.18375,0.374998 -0.279315,0.601961 -0.549315,0.933836 -0.279375,0.3225 -0.585499,0.723047 -0.838624,0.966797 -0.279375,0.279375 -0.567861,0.585703 -0.24536,1.142578 0.322499,0.556875 1.44252,2.382452 3.098143,3.856202 2.128124,1.90125 3.923673,2.485516 4.482424,2.764892 0.558747,0.279375 0.882333,0.235841 1.204833,-0.139159 0.331875,-0.365625 1.393798,-1.620206 1.768798,-2.178956 0.365625,-0.55875 0.738869,-0.46207 1.245119,-0.27832 0.513749,0.183751 3.253505,1.53337 3.812255,1.812745 0.55875,0.279375 0.925048,0.417656 1.065673,0.644531 0.144375,0.234375 0.144522,1.350117 -0.318604,2.651367 -0.463125,1.299375 -2.737323,2.555917 -3.757324,2.644042 -1.029375,0.09562 -1.99005,0.462686 -6.690674,-1.387939 -5.669999,-2.233125 -9.245772,-8.040527 -9.525147,-8.415527 -0.279375,-0.365625 -2.270507,-3.019337 -2.270507,-5.756836 0,-2.746875 1.440205,-4.09213 1.944579,-4.650879 0.513751,-0.55875 1.115479,-0.695801 1.49048,-0.695801 z"
     id="path75986"
     style="stroke-width:1.875;fill:#bf9e04;fill-opacity:1" />
</svg>
