<?xml version="1.0" encoding="UTF-8" standalone="no"?>
<!DOCTYPE svg PUBLIC "-//W3C//DTD SVG 1.1//EN" "http://www.w3.org/Graphics/SVG/1.1/DTD/svg11.dtd">
<svg width="100%" height="100%" viewBox="0 0 550 250" version="1.1" xmlns="http://www.w3.org/2000/svg" xmlns:xlink="http://www.w3.org/1999/xlink" xml:space="preserve" xmlns:serif="http://www.serif.com/" style="fill-rule:evenodd;clip-rule:evenodd;stroke-linejoin:round;stroke-miterlimit:2;">
    <g transform="matrix(0.816994,0,0,0.893784,-62.1765,-111.439)">
        <rect id="Prancheta1" x="76.104" y="124.682" width="673.199" height="279.71" style="fill:none;"/>
        <g id="Prancheta11" serif:id="Prancheta1">
            <g transform="matrix(1.224,0,0,1.11884,-86.8221,-51.6877)">
                <path d="M443.794,318.189C443.794,312.895 442.776,308.823 440.74,305.973C438.704,303.123 435.783,301.697 431.985,301.697C428.32,301.697 425.471,303.123 423.435,305.973C421.532,308.553 420.584,312.625 420.584,318.189C420.584,323.349 421.602,327.217 423.639,329.795C425.674,332.644 428.592,334.07 432.393,334.07C435.92,334.07 438.704,332.644 440.74,329.795C442.776,326.944 443.794,323.075 443.794,318.189ZM420.584,357.094C420.584,358.994 419.903,360.623 418.548,361.981C417.189,363.337 415.561,364.017 413.662,364.017L406.739,364.017L406.739,314.321C406.739,304.821 409.52,298.338 415.087,294.877C420.65,291.416 426.691,289.685 433.207,289.685C436.598,289.685 440.027,290.331 443.488,291.619C446.95,292.911 449.698,294.775 451.734,297.218C455.807,302.511 457.843,309.3 457.843,317.578C457.843,326.13 455.807,333.051 451.734,338.345C447.662,343.506 442.436,346.082 436.058,346.082C432.663,346.082 429.676,345.471 427.1,344.25C424.383,342.894 422.213,340.789 420.584,337.938L420.584,357.094Z" style="fill:rgb(194,194,194);fill-rule:nonzero;"/>
                <path d="M461.98,275.026L469.311,275.026C471.21,275.026 472.839,275.672 474.197,276.96C475.552,278.252 476.232,279.845 476.232,281.745L476.232,345.064L461.98,345.064L461.98,275.026Z" style="fill:rgb(194,194,194);fill-rule:nonzero;"/>
                <path d="M513.115,317.782C511.213,318.733 508.566,319.614 505.175,320.428L500.492,321.447C498.049,322.128 496.283,323.009 495.198,324.093C494.247,325.589 493.773,327.081 493.773,328.573C493.773,330.608 494.384,332.237 495.605,333.459C496.827,334.547 498.59,335.088 500.899,335.088C504.697,335.088 507.685,334.003 509.857,331.83C512.026,329.661 513.115,326.674 513.115,322.872L513.115,317.782ZM516.373,342.825C513.521,344.32 510.5,345.233 507.313,345.573C504.122,345.911 501.307,346.082 498.863,346.082C493.977,346.082 489.701,344.759 486.036,342.112C482.371,339.466 480.539,335.088 480.539,328.98C480.539,323.279 482.2,319.207 485.527,316.763C488.852,314.321 493.093,312.692 498.252,311.878C498.93,311.878 499.744,311.776 500.695,311.572C501.644,311.369 502.731,311.2 503.953,311.063C509.925,310.249 512.911,308.486 512.911,305.769C512.911,303.733 511.858,302.41 509.756,301.8C507.649,301.188 505.716,300.883 503.953,300.883C502.051,300.883 500.355,301.157 498.863,301.697C497.368,302.241 496.283,303.259 495.605,304.752L481.964,304.752C482.505,300.546 484.407,297.085 487.665,294.368C491.33,291.247 496.554,289.685 503.343,289.685C510.942,289.685 516.643,290.976 520.443,293.553C524.38,296.27 526.349,300.069 526.349,304.955L526.349,323.482C526.349,328.913 525.363,333.154 523.396,336.208C521.427,339.261 519.086,341.469 516.373,342.825Z" style="fill:rgb(194,194,194);fill-rule:nonzero;"/>
                <path d="M577.706,345.064L570.58,345.064C568.544,345.064 566.88,344.422 565.592,343.13C564.3,341.842 563.657,340.177 563.657,338.141L563.657,310.452C563.657,307.195 562.671,304.821 560.705,303.326C558.736,301.835 556.531,301.087 554.088,301.087C551.646,301.087 549.473,301.835 547.573,303.326C545.671,304.821 544.723,307.195 544.723,310.452L544.723,345.064L530.471,345.064L530.471,313.302C530.471,304.074 532.879,297.899 537.698,294.775C542.515,291.654 547.844,289.959 553.681,289.685C559.652,289.685 565.149,291.247 570.173,294.368C575.192,297.492 577.706,303.803 577.706,313.302L577.706,345.064Z" style="fill:rgb(194,194,194);fill-rule:nonzero;"/>
                <path d="M595.265,312.488L616.031,312.488C615.758,308.823 614.81,306.11 613.181,304.344C611.415,302.445 608.905,301.494 605.647,301.494C602.661,301.494 600.218,302.445 598.318,304.344C596.416,306.247 595.397,308.961 595.265,312.488ZM619.696,328.369L629.876,328.369C628.381,334.07 625.53,338.416 621.325,341.399C617.116,344.523 611.822,346.082 605.444,346.082C597.707,346.082 591.666,343.572 587.324,338.549C582.979,333.663 580.809,326.674 580.809,317.578C580.809,308.893 582.911,302.104 587.12,297.218C591.463,292.198 597.504,289.685 605.24,289.685C613.385,289.685 619.696,292.129 624.176,297.014C628.518,302.038 630.69,309.027 630.69,317.985L630.69,320.225C630.69,320.906 630.621,321.38 630.487,321.65L595.265,321.65C595.397,325.859 596.416,328.98 598.318,331.015C600.081,333.188 602.728,334.273 606.259,334.273C608.565,334.273 610.534,333.8 612.163,332.848C612.57,332.715 612.942,332.476 613.283,332.135C613.62,331.799 613.995,331.423 614.402,331.015C614.536,330.608 615.045,330.068 615.93,329.387C616.811,328.71 618.067,328.369 619.696,328.369Z" style="fill:rgb(194,194,194);fill-rule:nonzero;"/>
                <path d="M657.039,345.064C652.561,345.335 647.706,345.267 642.482,344.861C637.255,344.454 634.644,341.129 634.644,334.884L634.644,275.026L641.973,275.026C643.735,275.026 645.298,275.707 646.656,277.062C648.011,278.42 648.691,280.049 648.691,281.948L648.691,291.11L657.039,291.11L657.039,293.961C657.039,295.997 656.358,297.661 655.004,298.949C653.646,300.24 652.017,300.883 650.117,300.883L648.691,300.883L648.691,331.015C648.691,333.325 650.047,334.477 652.764,334.477L657.039,334.477L657.039,345.064Z" style="fill:rgb(194,194,194);fill-rule:nonzero;"/>
                <path d="M438.741,360.468C438.113,359.878 437.234,359.582 436.104,359.582C435.297,359.582 434.588,359.752 433.979,360.092C433.369,360.433 432.861,360.883 432.458,361.438C432.055,361.994 431.75,362.627 431.543,363.335C431.336,364.044 431.234,364.765 431.234,365.501C431.234,366.237 431.336,366.959 431.543,367.667C431.75,368.377 432.055,369.009 432.458,369.564C432.861,370.121 433.369,370.569 433.979,370.909C434.588,371.251 435.297,371.421 436.104,371.421C436.624,371.421 437.117,371.323 437.584,371.125C438.05,370.927 438.463,370.654 438.821,370.303C439.18,369.954 439.477,369.538 439.71,369.052C439.943,368.568 440.087,368.04 440.141,367.466L441.835,367.466C441.603,369.152 440.983,370.466 439.979,371.408C438.974,372.349 437.682,372.82 436.104,372.82C435.045,372.82 434.108,372.628 433.292,372.241C432.475,371.856 431.789,371.332 431.234,370.668C430.678,370.004 430.256,369.227 429.969,368.34C429.682,367.452 429.538,366.506 429.538,365.501C429.538,364.497 429.682,363.55 429.969,362.662C430.256,361.774 430.678,360.999 431.234,360.335C431.789,359.672 432.475,359.141 433.292,358.747C434.108,358.352 435.045,358.155 436.104,358.155C437.594,358.155 438.853,358.55 439.885,359.339C440.916,360.129 441.53,361.322 441.729,362.918L440.033,362.918C439.8,361.878 439.369,361.061 438.741,360.468Z" style="fill:rgb(194,194,194);fill-rule:nonzero;"/>
                <path d="M451.146,358.558L451.146,361.815L451.2,361.815C451.631,360.684 452.299,359.815 453.204,359.205C454.11,358.595 455.191,358.316 456.448,358.371L456.448,360.065C455.676,360.03 454.977,360.134 454.349,360.375C453.72,360.617 453.178,360.963 452.721,361.411C452.264,361.859 451.909,362.393 451.657,363.011C451.406,363.632 451.281,364.308 451.281,365.043L451.281,372.443L449.585,372.443L449.585,358.558L451.146,358.558Z" style="fill:rgb(194,194,194);fill-rule:nonzero;"/>
                <path d="M472.605,362.675C472.399,362.084 472.108,361.559 471.731,361.101C471.354,360.643 470.897,360.277 470.359,359.998C469.821,359.719 469.211,359.582 468.529,359.582C467.829,359.582 467.211,359.719 466.673,359.998C466.134,360.277 465.677,360.643 465.301,361.101C464.924,361.559 464.623,362.088 464.398,362.689C464.175,363.291 464.026,363.904 463.955,364.533L472.942,364.533C472.924,363.886 472.812,363.267 472.605,362.675ZM464.21,367.856C464.381,368.51 464.654,369.098 465.03,369.618C465.407,370.138 465.883,370.569 466.458,370.909C467.03,371.251 467.722,371.421 468.529,371.421C469.767,371.421 470.736,371.098 471.436,370.453C472.135,369.806 472.619,368.945 472.889,367.869L474.584,367.869C474.225,369.448 473.564,370.668 472.605,371.529C471.646,372.39 470.287,372.82 468.529,372.82C467.435,372.82 466.488,372.628 465.69,372.241C464.893,371.856 464.241,371.327 463.74,370.654C463.236,369.981 462.864,369.201 462.623,368.313C462.381,367.425 462.259,366.487 462.259,365.501C462.259,364.587 462.381,363.689 462.623,362.81C462.864,361.931 463.236,361.146 463.74,360.456C464.241,359.765 464.893,359.21 465.69,358.787C466.488,358.366 467.435,358.155 468.529,358.155C469.642,358.155 470.593,358.38 471.382,358.828C472.171,359.276 472.812,359.863 473.305,360.59C473.798,361.317 474.153,362.15 474.368,363.092C474.584,364.035 474.674,364.99 474.637,365.959L463.955,365.959C463.955,366.568 464.04,367.201 464.21,367.856Z" style="fill:rgb(194,194,194);fill-rule:nonzero;"/>
                <path d="M491.132,364.855C491.024,365.053 490.817,365.196 490.513,365.286C490.208,365.376 489.939,365.438 489.706,365.473C488.988,365.6 488.248,365.713 487.486,365.81C486.723,365.909 486.027,366.057 485.4,366.254C484.772,366.452 484.257,366.735 483.853,367.102C483.449,367.469 483.247,367.995 483.247,368.676C483.247,369.107 483.332,369.488 483.503,369.82C483.674,370.152 483.902,370.439 484.189,370.68C484.477,370.924 484.808,371.107 485.185,371.232C485.562,371.358 485.947,371.421 486.342,371.421C486.988,371.421 487.606,371.323 488.198,371.125C488.791,370.927 489.307,370.64 489.746,370.263C490.186,369.887 490.535,369.429 490.795,368.892C491.055,368.353 491.186,367.744 491.186,367.061L491.186,364.855L491.132,364.855ZM482.656,360.712C482.942,360.119 483.332,359.634 483.826,359.258C484.319,358.882 484.897,358.604 485.562,358.425C486.225,358.245 486.961,358.155 487.769,358.155C488.378,358.155 488.988,358.213 489.599,358.33C490.208,358.446 490.755,358.667 491.24,358.989C491.724,359.311 492.118,359.765 492.424,360.348C492.729,360.931 492.881,361.689 492.881,362.622L492.881,369.995C492.881,370.676 493.213,371.017 493.877,371.017C494.074,371.017 494.253,370.982 494.414,370.909L494.414,372.337C494.218,372.372 494.043,372.399 493.89,372.416C493.737,372.434 493.544,372.443 493.312,372.443C492.881,372.443 492.535,372.385 492.275,372.268C492.015,372.152 491.813,371.986 491.67,371.77C491.525,371.555 491.432,371.3 491.388,371.005C491.343,370.708 491.319,370.381 491.319,370.022L491.266,370.022C490.961,370.47 490.651,370.869 490.338,371.219C490.024,371.569 489.674,371.86 489.288,372.093C488.902,372.327 488.464,372.507 487.971,372.632C487.476,372.757 486.889,372.82 486.208,372.82C485.562,372.82 484.956,372.744 484.392,372.591C483.826,372.439 483.332,372.197 482.911,371.865C482.489,371.533 482.158,371.111 481.915,370.6C481.674,370.089 481.553,369.483 481.553,368.784C481.553,367.815 481.768,367.057 482.198,366.509C482.629,365.963 483.197,365.547 483.907,365.259C484.616,364.972 485.414,364.77 486.302,364.653C487.19,364.537 488.092,364.425 489.006,364.317C489.365,364.281 489.679,364.237 489.948,364.182C490.217,364.129 490.441,364.035 490.62,363.9C490.799,363.765 490.938,363.582 491.038,363.348C491.136,363.116 491.186,362.81 491.186,362.433C491.186,361.859 491.091,361.388 490.903,361.02C490.714,360.654 490.454,360.362 490.123,360.146C489.79,359.931 489.405,359.783 488.966,359.703C488.526,359.622 488.055,359.582 487.553,359.582C486.477,359.582 485.597,359.837 484.916,360.348C484.233,360.859 483.875,361.679 483.84,362.81L482.145,362.81C482.198,362.003 482.368,361.303 482.656,360.712Z" style="fill:rgb(194,194,194);fill-rule:nonzero;"/>
                <path d="M507.169,358.558L507.169,359.985L504.345,359.985L504.345,369.348C504.345,369.906 504.42,370.341 504.573,370.654C504.726,370.967 505.106,371.142 505.717,371.179C506.201,371.179 506.686,371.152 507.169,371.098L507.169,372.524C506.919,372.524 506.667,372.533 506.416,372.55C506.165,372.569 505.914,372.578 505.662,372.578C504.532,372.578 503.743,372.358 503.295,371.919C502.847,371.479 502.631,370.668 502.649,369.483L502.649,359.985L500.227,359.985L500.227,358.558L502.649,358.558L502.649,354.387L504.345,354.387L504.345,358.558L507.169,358.558Z" style="fill:rgb(194,194,194);fill-rule:nonzero;"/>
                <path d="M516.722,358.558L516.722,372.443L515.026,372.443L515.026,358.558L516.722,358.558ZM516.722,353.23L516.722,355.948L515.026,355.948L515.026,353.23L516.722,353.23Z" style="fill:rgb(194,194,194);fill-rule:nonzero;"/>
                <path d="M525.683,358.558L530.041,370.749L530.095,370.749L534.4,358.558L536.15,358.558L530.956,372.443L529.153,372.443L523.797,358.558L525.683,358.558Z" style="fill:rgb(194,194,194);fill-rule:nonzero;"/>
                <path d="M552.847,362.675C552.641,362.084 552.35,361.559 551.973,361.101C551.596,360.643 551.139,360.277 550.6,359.998C550.063,359.719 549.451,359.582 548.771,359.582C548.07,359.582 547.451,359.719 546.914,359.998C546.375,360.277 545.917,360.643 545.541,361.101C545.164,361.559 544.864,362.088 544.64,362.689C544.415,363.291 544.267,363.904 544.196,364.533L553.184,364.533C553.165,363.886 553.053,363.267 552.847,362.675ZM544.451,367.856C544.621,368.51 544.896,369.098 545.271,369.618C545.648,370.138 546.123,370.569 546.698,370.909C547.271,371.251 547.963,371.421 548.771,371.421C550.008,371.421 550.977,371.098 551.676,370.453C552.376,369.806 552.859,368.945 553.13,367.869L554.824,367.869C554.466,369.448 553.806,370.668 552.847,371.529C551.887,372.39 550.528,372.82 548.771,372.82C547.676,372.82 546.729,372.628 545.932,372.241C545.133,371.856 544.482,371.327 543.98,370.654C543.478,369.981 543.105,369.201 542.864,368.313C542.621,367.425 542.5,366.487 542.5,365.501C542.5,364.587 542.621,363.689 542.864,362.81C543.105,361.931 543.478,361.146 543.98,360.456C544.482,359.765 545.133,359.21 545.932,358.787C546.729,358.366 547.676,358.155 548.771,358.155C549.882,358.155 550.833,358.38 551.623,358.828C552.412,359.276 553.053,359.863 553.546,360.59C554.039,361.317 554.394,362.15 554.609,363.092C554.824,364.035 554.914,364.99 554.878,365.959L544.196,365.959C544.196,366.568 544.281,367.201 544.451,367.856Z" style="fill:rgb(194,194,194);fill-rule:nonzero;"/>
                <path d="M575.813,358.558L579.365,370.453L579.419,370.453L582.81,358.558L584.72,358.558L588.11,370.453L588.164,370.453L591.717,358.558L593.519,358.558L589.053,372.443L587.196,372.443L583.779,360.765L583.725,360.765L580.334,372.443L578.478,372.443L574.011,358.558L575.813,358.558Z" style="fill:rgb(194,194,194);fill-rule:nonzero;"/>
                <path d="M604.471,360.092C603.861,360.433 603.354,360.883 602.95,361.438C602.547,361.994 602.242,362.627 602.036,363.335C601.829,364.044 601.727,364.765 601.727,365.501C601.727,366.237 601.829,366.959 602.036,367.667C602.242,368.377 602.547,369.009 602.95,369.564C603.354,370.121 603.861,370.569 604.471,370.909C605.08,371.251 605.79,371.421 606.596,371.421C607.403,371.421 608.112,371.251 608.723,370.909C609.332,370.569 609.84,370.121 610.243,369.564C610.646,369.009 610.951,368.377 611.157,367.667C611.363,366.959 611.467,366.237 611.467,365.501C611.467,364.765 611.363,364.044 611.157,363.335C610.951,362.627 610.646,361.994 610.243,361.438C609.84,360.883 609.332,360.433 608.723,360.092C608.112,359.752 607.403,359.582 606.596,359.582C605.79,359.582 605.08,359.752 604.471,360.092ZM609.409,358.747C610.225,359.141 610.911,359.672 611.467,360.335C612.022,360.999 612.445,361.774 612.732,362.662C613.019,363.55 613.163,364.497 613.163,365.501C613.163,366.506 613.019,367.452 612.732,368.34C612.445,369.227 612.022,370.004 611.467,370.668C610.911,371.332 610.225,371.856 609.409,372.241C608.593,372.628 607.655,372.82 606.596,372.82C605.538,372.82 604.602,372.628 603.784,372.241C602.968,371.856 602.281,371.332 601.727,370.668C601.17,370.004 600.748,369.227 600.461,368.34C600.174,367.452 600.031,366.506 600.031,365.501C600.031,364.497 600.174,363.55 600.461,362.662C600.748,361.774 601.17,360.999 601.727,360.335C602.281,359.672 602.968,359.141 603.784,358.747C604.602,358.352 605.538,358.155 606.596,358.155C607.655,358.155 608.593,358.352 609.409,358.747Z" style="fill:rgb(194,194,194);fill-rule:nonzero;"/>
                <path d="M622.635,358.558L622.635,361.815L622.688,361.815C623.119,360.684 623.787,359.815 624.692,359.205C625.599,358.595 626.68,358.316 627.936,358.371L627.936,360.065C627.164,360.03 626.465,360.134 625.837,360.375C625.208,360.617 624.666,360.963 624.209,361.411C623.752,361.859 623.396,362.393 623.146,363.011C622.895,363.632 622.77,364.308 622.77,365.043L622.77,372.443L621.073,372.443L621.073,358.558L622.635,358.558Z" style="fill:rgb(194,194,194);fill-rule:nonzero;"/>
                <rect x="634.958" y="353.23" width="1.695" height="19.213" style="fill:rgb(194,194,194);fill-rule:nonzero;"/>
                <path d="M646.65,367.64C646.819,368.349 647.09,368.982 647.457,369.538C647.824,370.093 648.295,370.547 648.869,370.896C649.443,371.246 650.135,371.421 650.941,371.421C651.839,371.421 652.597,371.246 653.216,370.896C653.835,370.547 654.336,370.093 654.723,369.538C655.108,368.982 655.387,368.349 655.557,367.64C655.727,366.932 655.812,366.218 655.812,365.501C655.812,364.783 655.727,364.071 655.557,363.361C655.387,362.653 655.108,362.021 654.723,361.465C654.336,360.908 653.835,360.456 653.216,360.106C652.597,359.757 651.839,359.582 650.941,359.582C650.135,359.582 649.443,359.757 648.869,360.106C648.295,360.456 647.824,360.908 647.457,361.465C647.09,362.021 646.819,362.653 646.65,363.361C646.479,364.071 646.395,364.783 646.395,365.501C646.395,366.218 646.479,366.932 646.65,367.64ZM655.947,372.443L655.947,369.806L655.893,369.806C655.714,370.256 655.449,370.668 655.1,371.045C654.75,371.421 654.351,371.74 653.901,372C653.453,372.259 652.974,372.461 652.463,372.605C651.951,372.749 651.443,372.82 650.941,372.82C649.883,372.82 648.965,372.628 648.185,372.241C647.403,371.856 646.753,371.327 646.232,370.654C645.712,369.981 645.327,369.201 645.075,368.313C644.824,367.425 644.699,366.487 644.699,365.501C644.699,364.514 644.824,363.577 645.075,362.689C645.327,361.8 645.712,361.02 646.232,360.348C646.753,359.675 647.403,359.141 648.185,358.747C648.965,358.352 649.883,358.155 650.941,358.155C651.462,358.155 651.968,358.217 652.463,358.343C652.956,358.468 653.418,358.662 653.848,358.922C654.278,359.182 654.66,359.501 654.991,359.878C655.323,360.254 655.579,360.693 655.758,361.195L655.812,361.195L655.812,353.23L657.508,353.23L657.508,372.443L655.947,372.443Z" style="fill:rgb(194,194,194);fill-rule:nonzero;"/>
                <path d="M360.445,203.299C367.99,200.896 372.158,192.832 369.755,185.287C367.353,177.741 359.288,173.572 351.744,175.975C344.199,178.378 340.029,186.443 342.432,193.988C344.835,201.533 352.899,205.701 360.445,203.299Z" style="fill:rgb(194,194,194);"/>
                <path d="M390.928,195.343C394.383,194.243 396.292,190.55 395.192,187.094C394.092,183.638 390.399,181.73 386.943,182.83C383.488,183.93 381.579,187.623 382.679,191.079C383.779,194.534 387.473,196.444 390.928,195.343Z" style="fill:rgb(194,194,194);"/>
                <path d="M382.233,313.352C355.112,333.22 324.855,351.156 293.29,365.427C332.153,374.549 371.214,351.574 382.233,313.352Z" style="fill:rgb(194,194,194);"/>
                <path d="M369.094,246.285C375.425,245.239 379.703,245.79 381.193,248.196C382.673,250.588 381.21,254.478 377.38,259.392C375.103,254.808 372.411,250.501 369.094,246.285ZM384.718,284.333C384.462,282.013 384.1,279.698 383.621,277.393C352.215,303.774 296.46,335.528 261.325,349.092C263.513,350.992 265.805,352.734 268.17,354.353C232.096,368.262 203.479,371.444 196.429,360.056C189.355,348.632 206.519,327.791 236.514,304.473C237.073,307.966 237.885,311.441 238.957,314.87C219.597,330.934 209.025,344.024 212.441,349.541C223.854,367.977 356.643,295.379 394.076,254.768C403.035,245.048 407.571,237.902 405.219,234.103C401.914,228.764 386.194,231.613 363.986,240.445C361.718,238.109 359.317,235.945 356.802,233.954C389.309,220.518 414.321,216.256 420.947,226.959C427.813,238.047 412.569,260.246 384.718,284.333ZM249.797,336.458C242.649,337.967 237.811,337.617 236.203,335.019C234.538,332.331 236.567,327.664 241.485,321.751C243.86,327.349 246.634,332.085 249.797,336.458ZM457.438,205.736C447.845,190.241 403.506,201.7 348.457,228.232C325.45,214.651 295.898,213.866 271.483,228.729C247.685,243.218 234.849,268.871 235.606,294.864C183.209,331.812 150.51,366.048 160.505,382.194C173.486,403.159 251.809,380.231 332.474,331.926C413.139,283.624 470.42,226.703 457.438,205.736Z" style="fill:rgb(194,194,194);"/>
            </g>
        </g>
    </g>
</svg>
