<?xml version="1.0" encoding="UTF-8" standalone="no"?>
<!DOCTYPE svg PUBLIC "-//W3C//DTD SVG 1.1//EN" "http://www.w3.org/Graphics/SVG/1.1/DTD/svg11.dtd">
<svg width="100%" height="100%" viewBox="0 0 550 250" version="1.1" xmlns="http://www.w3.org/2000/svg" xmlns:xlink="http://www.w3.org/1999/xlink" xml:space="preserve" xmlns:serif="http://www.serif.com/" style="fill-rule:evenodd;clip-rule:evenodd;stroke-linejoin:round;stroke-miterlimit:2;">
    <g transform="matrix(0.816994,0,0,0.893784,-62.1765,-111.439)">
        <rect id="Prancheta1" x="76.104" y="124.682" width="673.199" height="279.71" style="fill:none;"/>
        <g transform="matrix(0.175604,0,0,0.160517,114.269,202.448)">
            <g id="Prancheta11" serif:id="Prancheta1">
                <g>
                    <g>
                        <path d="M521.5,43.5L649.5,43.5L649.5,175.5L766.5,175.5L766.5,284.5L649.5,284.5C649.333,354.834 649.5,425.167 650,495.5C650.333,502.5 650.667,509.5 651,516.5C652.831,533.329 661.997,543.495 678.5,547C706.501,547.309 734.501,547.142 762.5,546.5C763.779,578.35 765.445,610.183 767.5,642C767.47,644.424 767.137,646.757 766.5,649C734.74,656.599 702.573,661.432 670,663.5C642.014,663.741 614.848,659.241 588.5,650C562.044,639.542 544.544,620.709 536,593.5C527.24,565.518 522.574,536.851 522,507.5C521.5,433.167 521.333,358.834 521.5,284.5L465.5,284.5L465.5,175.5L521.5,175.5L521.5,43.5Z" style="fill:rgb(194,194,194);"/>
                    </g>
                    <g>
                        <path d="M1706.5,43.5L1834.5,43.5L1834.5,175.5L1951.5,175.5L1951.5,284.5L1834.5,284.5C1834.08,361.51 1834.58,438.51 1836,515.5C1837.37,532.868 1846.54,543.368 1863.5,547C1891.5,547.309 1919.5,547.142 1947.5,546.5C1948.82,578.015 1950.48,609.515 1952.5,641C1952.47,643.755 1952.14,646.422 1951.5,649C1919.74,656.599 1887.57,661.432 1855,663.5C1828.89,663.58 1803.39,659.747 1778.5,652C1756.83,644.654 1740.33,631.154 1729,611.5C1717.49,587.133 1710.82,561.466 1709,534.5C1708.08,524.852 1707.41,515.185 1707,505.5C1706.5,431.834 1706.33,358.167 1706.5,284.5L1650.5,284.5L1650.5,175.5L1706.5,175.5L1706.5,43.5Z" style="fill:rgb(194,194,194);"/>
                    </g>
                    <g>
                        <path d="M208.5,164.5C272.596,167.038 335.929,175.371 398.5,189.5C397.263,224.788 396.596,260.121 396.5,295.5C355.63,289.94 314.63,285.44 273.5,282C250.185,280.515 226.852,280.182 203.5,281C191.596,281.38 180.262,284.046 169.5,289C158.101,297.864 154.268,309.364 158,323.5C160.807,331.641 166.307,337.141 174.5,340C188.251,344.604 202.251,348.271 216.5,351C242.169,356.001 267.836,361.001 293.5,366C323.28,372.026 350.28,384.026 374.5,402C391.969,418.096 402.802,437.93 407,461.5C427.262,585.222 375.095,652.055 250.5,662C202.537,664.17 154.871,661.17 107.5,653C83.785,649.023 60.119,644.857 36.5,640.5C38.118,604.517 39.452,568.517 40.5,532.5C81.371,538.06 122.371,542.56 163.5,546C186.147,547.493 208.814,547.827 231.5,547C243.192,546.328 254.525,543.995 265.5,540C281.514,531.795 287.014,518.961 282,501.5C278.057,493.596 271.891,488.096 263.5,485C250.14,480.243 236.473,476.576 222.5,474C192.322,468.859 162.322,462.859 132.5,456C108.158,449.327 85.825,438.661 65.5,424C48.653,408.814 38.153,389.981 34,367.5C28.886,339.94 28.219,312.274 32,284.5C39.472,243.382 61.305,212.549 97.5,192C132.386,173.862 169.386,164.695 208.5,164.5Z" style="fill:rgb(194,194,194);fill-opacity:0.99;"/>
                    </g>
                    <g>
                        <path d="M1005.5,164.5C1030.52,164.127 1055.52,164.627 1080.5,166C1166.23,174.07 1210.4,221.237 1213,307.5C1213.02,383.193 1213.69,458.86 1215,534.5C1216.52,552.85 1226.35,563.183 1244.5,565.5C1243.54,597.838 1242.37,630.172 1241,662.5C1214.01,663.5 1187.17,661.334 1160.5,656C1140.34,650.334 1121.51,641.834 1104,630.5C1049.71,657.02 992.547,667.186 932.5,661C877.174,654.323 841.341,624.49 825,571.5C817.908,542.912 815.574,513.912 818,484.5C820.396,432.144 845.896,396.644 894.5,378C918.495,369.601 943.162,364.268 968.5,362C1007.48,358.835 1046.48,356.001 1085.5,353.5C1085.67,342.495 1085.5,331.495 1085,320.5C1085.42,291.592 1071.26,276.092 1042.5,274C1038,273.833 1033.5,273.667 1029,273.5C969.508,276.108 910.008,278.442 850.5,280.5C848.694,250.826 847.694,221.159 847.5,191.5C899.385,177.092 952.051,168.092 1005.5,164.5ZM1080.5,442.5L1085.5,442.5L1085.5,543.5C1056.11,552.111 1026.11,557.111 995.5,558.5C966.664,559.682 950.497,546.015 947,517.5C944.543,500.23 947.876,484.23 957,469.5C966.396,458.802 978.229,452.635 992.5,451C1022,448.364 1051.34,445.531 1080.5,442.5Z" style="fill:rgb(194,194,194);fill-opacity:0.99;"/>
                    </g>
                    <g>
                        <path d="M1607.5,164.5L1613.5,164.5L1613.5,293.5C1562.32,303.169 1512.16,316.502 1463,333.5C1462.5,439.499 1462.33,545.499 1462.5,651.5L1334.5,651.5L1334.5,175.5L1461.5,175.5C1461.17,191.847 1461.5,208.18 1462.5,224.5C1507.82,197 1556.15,177 1607.5,164.5Z" style="fill:rgb(194,194,194);"/>
                    </g>
                    <g>
                        <path d="M2750.5,165.5C2831.93,163.438 2883.76,201.438 2906,279.5C2918.14,328.758 2923.14,378.758 2921,429.5C2920.67,466.49 2915.67,502.824 2906,538.5C2885.06,609.753 2837.56,649.586 2763.5,658C2709.07,663.649 2655.07,660.815 2601.5,649.5L2601.5,865.5L2544.5,865.5L2544.5,175.5L2601.5,175.5C2601.17,187.186 2601.5,198.852 2602.5,210.5C2648,182.552 2697.34,167.552 2750.5,165.5ZM2729.5,218.5C2784.49,212.745 2822.65,235.078 2844,285.5C2853.43,313.391 2858.76,342.057 2860,371.5C2862.68,409.977 2861.35,448.31 2856,486.5C2852.25,515.096 2842.58,541.429 2827,565.5C2811.56,584.15 2792.06,596.65 2768.5,603C2742.17,609.142 2715.51,611.142 2688.5,609C2659.3,607.059 2630.3,603.559 2601.5,598.5C2601.17,485.831 2601.5,373.165 2602.5,260.5C2642.19,238.048 2684.52,224.048 2729.5,218.5Z" style="fill:rgb(194,194,194);fill-opacity:0.99;"/>
                    </g>
                    <g>
                        <path d="M3174.5,166.5C3199.21,166.822 3223.87,167.989 3248.5,170C3283.28,173.347 3317.94,177.514 3352.5,182.5C3352.14,199.85 3351.47,217.183 3350.5,234.5C3289.26,224.1 3227.6,219.266 3165.5,220C3140.88,220.762 3118.55,228.095 3098.5,242C3081.74,257.208 3073.74,276.208 3074.5,299C3073.41,317.752 3079.41,333.752 3092.5,347C3104.13,354.811 3116.8,360.478 3130.5,364C3165.47,373.051 3200.8,380.384 3236.5,386C3266.11,391.537 3294.44,400.87 3321.5,414C3344.55,426.906 3358.72,446.406 3364,472.5C3385.95,584.5 3340.45,646.666 3227.5,659C3187.41,662.257 3147.41,661.257 3107.5,656C3078.84,652.025 3050.17,648.191 3021.5,644.5C3023.09,627.198 3024.42,609.865 3025.5,592.5C3078.82,601.35 3132.49,606.684 3186.5,608.5C3218.21,610.383 3248.21,604.217 3276.5,590C3296.13,577.27 3306.96,559.104 3309,535.5C3311.36,516.206 3309.03,497.539 3302,479.5C3294.7,465.749 3283.54,456.583 3268.5,452C3246.31,444.453 3223.64,438.786 3200.5,435C3177.76,431.432 3155.09,427.432 3132.5,423C3106.31,417.714 3081.31,409.047 3057.5,397C3042.61,388.094 3031.78,375.594 3025,359.5C2994.19,249.566 3035.03,186.066 3147.5,169C3156.66,168.221 3165.66,167.388 3174.5,166.5Z" style="fill:rgb(194,194,194);fill-opacity:0.98;"/>
                    </g>
                    <g>
                        <path d="M2041.5,175.5L2098.5,175.5C2098.33,271.501 2098.5,367.501 2099,463.5C2099.63,492.237 2103.3,520.57 2110,548.5C2118.44,581.604 2139.61,600.771 2173.5,606C2235.25,613.02 2292.75,600.52 2346,568.5C2346.5,437.5 2346.67,306.5 2346.5,175.5L2403.5,175.5L2403.5,651.5L2346.5,651.5C2346.83,640.147 2346.5,628.814 2345.5,617.5C2278.05,659.742 2205.72,671.242 2128.5,652C2093.1,641.597 2069.93,618.764 2059,583.5C2049.95,552.136 2044.61,520.136 2043,487.5C2041.54,383.511 2041.04,279.511 2041.5,175.5Z" style="fill:rgb(194,194,194);fill-opacity:0.99;"/>
                    </g>
                    <g>
                        <path d="M3189.5,706.5L3210.5,706.5C3210.17,724.179 3210.5,741.846 3211.5,759.5C3224.61,750.55 3238.95,748.05 3254.5,752C3267.27,756.678 3274.44,765.845 3276,779.5C3278.21,799.885 3277.88,820.218 3275,840.5C3270.09,859.062 3257.92,868.062 3238.5,867.5C3228.21,867.1 3219.05,863.767 3211,857.5C3210.5,860.146 3210.34,862.813 3210.5,865.5L3189.5,865.5L3189.5,706.5ZM3227.5,762.5C3243.44,759.368 3252.61,765.701 3255,781.5C3255.67,799.167 3255.67,816.833 3255,834.5C3253.08,851.071 3243.92,857.571 3227.5,854C3221.25,853.033 3215.75,850.533 3211,846.5C3210.33,821.167 3210.33,795.833 3211,770.5C3216.16,766.957 3221.66,764.29 3227.5,762.5Z" style="fill:rgb(194,194,194);fill-opacity:0.96;"/>
                    </g>
                    <g>
                        <path d="M3015.5,749.5C3028.37,748.186 3038.2,752.852 3045,763.5C3060.28,751.244 3077.45,747.411 3096.5,752C3104.29,754.788 3108.79,760.288 3110,768.5C3110.5,800.832 3110.67,833.165 3110.5,865.5L3091.5,865.5C3091.95,833.468 3091.45,801.468 3090,769.5C3087.36,763.093 3082.53,760.093 3075.5,760.5C3064.96,761.52 3055.46,765.187 3047,771.5C3046.5,802.832 3046.33,834.165 3046.5,865.5L3026.5,865.5C3026.67,833.832 3026.5,802.165 3026,770.5C3023.77,763.206 3018.77,759.873 3011,760.5C3000.63,761.621 2991.3,765.288 2983,771.5C2982.5,802.832 2982.33,834.165 2982.5,865.5L2962.5,865.5L2962.5,751.5L2982.5,751.5C2982.33,754.85 2982.5,758.183 2983,761.5C2992.89,754.597 3003.72,750.597 3015.5,749.5Z" style="fill:rgb(194,194,194);fill-opacity:0.95;"/>
                    </g>
                    <g>
                        <path d="M2771.5,750.5C2780.84,750.334 2790.17,750.5 2799.5,751C2812.5,752.341 2821,759.175 2825,771.5C2826.29,778.437 2826.79,785.437 2826.5,792.5L2806.5,792.5C2809.57,766.702 2798.57,757.202 2773.5,764C2768.56,766.697 2765.73,770.864 2765,776.5C2763,797.833 2763,819.167 2765,840.5C2766.16,847.346 2769.99,851.846 2776.5,854C2786.19,856.974 2795.02,855.474 2803,849.5C2804.56,847.043 2805.56,844.376 2806,841.5C2806.5,835.175 2806.67,828.842 2806.5,822.5L2826.5,822.5C2829.98,852.849 2816.48,867.849 2786,867.5C2775.17,867.585 2765.01,865.085 2755.5,860C2747.15,852.79 2742.98,843.623 2743,832.5C2742.11,814.135 2742.45,795.802 2744,777.5C2747.13,762.199 2756.3,753.199 2771.5,750.5Z" style="fill:rgb(194,194,194);fill-opacity:0.95;"/>
                    </g>
                    <g>
                        <path d="M2879.5,750.5C2923.48,745.149 2942.15,764.482 2935.5,808.5C2941.08,856.09 2920.41,874.924 2873.5,865C2858.53,859.91 2850.69,849.41 2850,833.5C2849.33,816.833 2849.33,800.167 2850,783.5C2851.29,764.712 2861.13,753.712 2879.5,750.5ZM2888.5,761.5C2905.42,759.925 2913.92,767.591 2914,784.5C2914.67,800.5 2914.67,816.5 2914,832.5C2914.53,847.467 2907.36,855.134 2892.5,855.5C2876.67,854.825 2869.5,846.492 2871,830.5C2870.15,812.473 2870.49,794.473 2872,776.5C2873.96,767.459 2879.46,762.459 2888.5,761.5Z" style="fill:rgb(194,194,194);fill-opacity:0.96;"/>
                    </g>
                    <g>
                        <path d="M3356.5,750.5L3366.5,750.5C3366.67,756.176 3366.5,761.843 3366,767.5C3350.84,763.443 3337.84,767.109 3327,778.5C3326.5,807.498 3326.33,836.498 3326.5,865.5L3304.5,865.5L3304.5,751.5L3326.5,751.5C3326.33,756.179 3326.5,760.845 3327,765.5C3335.22,757.141 3345.05,752.141 3356.5,750.5Z" style="fill:rgb(194,194,194);fill-opacity:0.93;"/>
                    </g>
                </g>
            </g>
        </g>
        <g transform="matrix(1.224,0,0,1.11884,74.8381,128.97)">
            <circle cx="484.122" cy="187.602" r="2.008" style="fill:rgb(194,194,194);"/>
        </g>
    </g>
</svg>
