<?xml version="1.0" encoding="UTF-8" standalone="no"?>
<svg
   fill="#000000"
   viewBox="0 0 24 24"
   width="48px"
   height="48px"
   version="1.1"
   id="svg4"
   sodipodi:docname="apple-logo.svg"
   inkscape:version="1.2 (dc2aedaf03, 2022-05-15)"
   xmlns:inkscape="http://www.inkscape.org/namespaces/inkscape"
   xmlns:sodipodi="http://sodipodi.sourceforge.net/DTD/sodipodi-0.dtd"
   xmlns="http://www.w3.org/2000/svg"
   xmlns:svg="http://www.w3.org/2000/svg">
  <defs
     id="defs8" />
  <sodipodi:namedview
     id="namedview6"
     pagecolor="#505050"
     bordercolor="#eeeeee"
     borderopacity="1"
     inkscape:showpageshadow="0"
     inkscape:pageopacity="0"
     inkscape:pagecheckerboard="0"
     inkscape:deskcolor="#505050"
     showgrid="false"
     inkscape:zoom="4.9166667"
     inkscape:cx="12.508474"
     inkscape:cy="22.067796"
     inkscape:current-layer="svg4" />
  <path
     d="M 16.793535,0.86683102 C 15.509892,0.94142266 14.036236,1.6565495 13.160062,2.567236 12.3685,3.3955375 11.743968,4.6257086 11.998916,5.8158354 c 1.394976,0.036739 2.795152,-0.6969137 3.633474,-1.6242998 0.782655,-0.8672673 1.376014,-2.077799 1.161145,-3.32470458 z m 0.0761,4.94682998 c -2.013974,0 -2.856035,1.2372511 -4.25101,1.2372511 -1.435056,0 -2.7469168,-1.1589715 -4.4836782,-1.1589715 -2.3624388,0.00111 -5.9535895,2.1894951 -5.9535895,7.3452264 0,4.69037 4.2502294,9.895835 6.6494093,9.895835 1.4573214,0.01447 1.8106234,-0.916287 3.7878604,-0.926307 1.979461,-0.01447 2.406588,0.938554 3.866135,0.926307 1.643244,-0.01225 2.926559,-1.817998 3.863964,-3.248599 0.672439,-1.024244 0.948888,-1.54715 1.469917,-2.704992 -3.866522,-0.979711 -4.635818,-7.2149878 0,-8.5041991 C 20.943586,7.1822651 18.389307,5.813661 16.869642,5.813661 Z"
     id="path2"
     style="stroke-width:1.1133;fill:#ffffff" />
</svg>
