<?xml version="1.0" encoding="UTF-8" standalone="no"?>
<!-- Generator: Adobe Illustrator 19.1.0, SVG Export Plug-In . SVG Version: 6.00 Build 0)  -->

<svg
   version="1.1"
   id="Capa_1"
   x="0px"
   y="0px"
   viewBox="0 0 49.999999 49.999999"
   xml:space="preserve"
   sodipodi:docname="ico-bag.svg"
   width="50"
   height="50"
   inkscape:version="1.2 (dc2aedaf03, 2022-05-15)"
   xmlns:inkscape="http://www.inkscape.org/namespaces/inkscape"
   xmlns:sodipodi="http://sodipodi.sourceforge.net/DTD/sodipodi-0.dtd"
   xmlns="http://www.w3.org/2000/svg"
   xmlns:svg="http://www.w3.org/2000/svg"><defs
   id="defs39" /><sodipodi:namedview
   id="namedview37"
   pagecolor="#505050"
   bordercolor="#eeeeee"
   borderopacity="1"
   inkscape:showpageshadow="0"
   inkscape:pageopacity="0"
   inkscape:pagecheckerboard="0"
   inkscape:deskcolor="#505050"
   showgrid="false"
   inkscape:zoom="3.9080935"
   inkscape:cx="-16.632151"
   inkscape:cy="19.830641"
   inkscape:current-layer="Capa_1" />
<g
   id="g4"
   transform="matrix(0.09431796,0,0,0.09431796,2.2174972,2.2174972)"
   style="fill:#cccccc;stroke:#cccccc;stroke-width:20.1292;stroke-dasharray:none">
	<path
   d="m 434.55,418.7 -27.8,-313.3 c -0.5,-6.2 -5.7,-10.9 -12,-10.9 h -58.6 C 336.05,42.4 293.65,0 241.55,0 c -52.1,0 -94.5,42.4 -94.6,94.5 h -58.6 c -6.2,0 -11.4,4.7 -12,10.9 l -27.8,313.3 c 0,0.4 0,0.7 0,1.1 0,34.9 32.1,63.3 71.5,63.3 h 243 c 39.4,0 71.5,-28.4 71.5,-63.3 0,-0.4 0,-0.7 0,-1.1 z M 241.55,24 c 38.9,0 70.5,31.6 70.6,70.5 h -141.2 c 0.1,-38.9 31.7,-70.5 70.6,-70.5 z m 121.5,435 h -243 c -26,0 -47.2,-17.3 -47.5,-38.8 l 26.8,-301.7 h 47.6 v 42.1 c 0,6.6 5.4,12 12,12 6.6,0 12,-5.4 12,-12 v -42.1 h 141.2 v 42.1 c 0,6.6 5.4,12 12,12 6.6,0 12,-5.4 12,-12 v -42.1 h 47.6 l 26.8,301.8 c -0.3,21.4 -21.5,38.7 -47.5,38.7 z"
   id="path2"
   style="fill:#cccccc;stroke:#cccccc;stroke-width:20.1292;stroke-dasharray:none" />
</g>
<g
   id="g6">
</g>
<g
   id="g8">
</g>
<g
   id="g10">
</g>
<g
   id="g12">
</g>
<g
   id="g14">
</g>
<g
   id="g16">
</g>
<g
   id="g18">
</g>
<g
   id="g20">
</g>
<g
   id="g22">
</g>
<g
   id="g24">
</g>
<g
   id="g26">
</g>
<g
   id="g28">
</g>
<g
   id="g30">
</g>
<g
   id="g32">
</g>
<g
   id="g34">
</g>
</svg>
