<?xml version="1.0" encoding="UTF-8" standalone="no"?>
<svg
   fill="#000000"
   viewBox="0 0 30 30"
   width="30"
   height="30"
   version="1.1"
   id="svg256"
   sodipodi:docname="sm-telegram.svg"
   inkscape:version="1.2 (dc2aedaf03, 2022-05-15)"
   xmlns:inkscape="http://www.inkscape.org/namespaces/inkscape"
   xmlns:sodipodi="http://sodipodi.sourceforge.net/DTD/sodipodi-0.dtd"
   xmlns="http://www.w3.org/2000/svg"
   xmlns:svg="http://www.w3.org/2000/svg">
  <defs
     id="defs260" />
  <sodipodi:namedview
     id="namedview258"
     pagecolor="#505050"
     bordercolor="#eeeeee"
     borderopacity="1"
     inkscape:showpageshadow="0"
     inkscape:pageopacity="0"
     inkscape:pagecheckerboard="0"
     inkscape:deskcolor="#505050"
     showgrid="false"
     inkscape:zoom="9.44"
     inkscape:cx="11.917373"
     inkscape:cy="14.141949"
     inkscape:current-layer="svg256" />
  <path
     d="M 27.02791,2.8436777 C 26.601464,2.4461765 25.931661,2.3893012 25.239112,2.6949272 h -0.0011 C 24.509606,3.0161782 4.6201794,12.393707 3.8105012,12.776833 c -0.1472659,0.05625 -1.4334262,0.583751 -1.3009437,1.758755 0.1182676,1.05938 1.151972,1.498131 1.2781998,1.548755 l 5.0565088,1.903131 c 0.3354707,1.227503 1.5721629,5.756267 1.8456559,6.723771 0.170579,0.603127 0.448621,1.395629 0.935906,1.558754 0.427583,0.181252 0.852892,0.01562 1.128092,-0.221875 l 3.091446,-3.151886 4.990553,4.27814 0.118835,0.07812 c 0.338883,0.165001 0.66355,0.247501 0.973433,0.247501 0.239379,0 0.469091,-0.04938 0.688569,-0.148125 0.747701,-0.337502 1.046782,-1.120629 1.078054,-1.209378 L 27.422514,4.8443088 C 27.649952,3.7068052 27.333814,3.1280535 27.02791,2.8436777 Z M 13.30375,18.748726 11.597968,23.748742 9.8921849,17.498724 22.969852,6.8736899 Z"
     id="path254"
     style="stroke-width:0.596131;fill:#cccccc" />
</svg>
