<svg id="Layer_1" data-name="Layer 1" xmlns="http://www.w3.org/2000/svg" viewBox="0 0 54.63789 55.65974"><defs><style>.cls-1{fill:none;}</style></defs><path d="M59.03293,35.17563c-.40113-.05411-.80481-.09387-1.203-.16468a10.38239,10.38239,0,0,1-6.1053-3.42792,10.54183,10.54183,0,0,1-.48542-13.37585,10.20991,10.20991,0,0,1,6.24294-3.95378A10.33234,10.33234,0,0,1,66.046,16.17761a12.4629,12.4629,0,0,1,1.0435.90664.88014.88014,0,1,1-1.2077,1.27435,8.793,8.793,0,0,0-10.70129-1.336,8.7822,8.7822,0,0,0-2.63291,12.7608,8.55067,8.55067,0,0,0,5.72007,3.514,8.4599,8.4599,0,0,0,5.873-1.12985A8.72908,8.72908,0,0,0,68.172,26.84248a8.07146,8.07146,0,0,0,.28544-1.97644,3.3155,3.3155,0,0,1,.02307-.37051.859.859,0,0,1,.74646-.7663.87662.87662,0,0,1,.94818.57082c.01751.04427.03575.08825.05365.13237v.78508c-.01689.14865-.03409.29725-.05062.44594a10.60949,10.60949,0,0,1-8.70385,9.34767c-.39791.07045-.80122.11045-1.202.16452Z" transform="translate(-15.59094 -14.01673)"/><path d="M59.21139,25.6194a2.241,2.241,0,0,1,.16978-.23162q1.77239-1.77684,3.54686-3.55161a.90905.90905,0,0,1,.93564-.28509.87772.87772,0,0,1,.45869,1.36549,2.08292,2.08292,0,0,1-.19453.2134q-2.088,2.08926-4.17726,4.17732a.91025.91025,0,0,1-1.48178-.00222q-1.01566-1.01456-2.02985-2.03059a.8947.8947,0,0,1-.15109-1.17918.8838.8838,0,0,1,1.38188-.08191c.46315.452.91738.91321,1.373,1.37289A2.1833,2.1833,0,0,1,59.21139,25.6194Z" transform="translate(-15.59094 -14.01673)"/><path class="cls-1" d="M43.92622,41.04518H56.715V38.046a14.20339,14.20339,0,0,1-2.0033-.57159,2.74341,2.74341,0,0,1-5.2948-.69946.97479.97479,0,0,1,.79334-1.18677c.54077-.06946.936.29925,1.03192.96271a.92627.92627,0,0,0,.90607.85864.87011.87011,0,0,0,.864-.66736,14.38667,14.38667,0,0,1-4.00213-3.04779,2.70958,2.70958,0,0,1-.51685.051,2.76758,2.76758,0,0,1-2.74365-2.495.96373.96373,0,0,1,.82019-1.16339l.00763.00073a14.21583,14.21583,0,0,1-.72528-1.81427h-1.926Z" transform="translate(-15.59094 -14.01673)"/><path class="cls-1" d="M38.10188,28.28468H21.11445V59.38h7.78968a1.71462,1.71462,0,0,0,.03271-.20532c.06275-2.48865.12934-4.97718.17243-7.46619A.67708.67708,0,0,0,28.822,51.261a4.34689,4.34689,0,0,1-1.83258-2.75354,12.18947,12.18947,0,0,1-.11676-2.14209.59873.59873,0,0,0-.35522-.59961,6.18533,6.18533,0,0,1-3.30212-5.31409,6.34419,6.34419,0,0,1,5.55731-6.63556.97617.97617,0,0,0,.80127-.5263A6.27016,6.27016,0,0,1,34.996,30.08748.912.912,0,0,1,36.02485,31.099c.00812.51917-.00286,1.03858.00275,1.5578a6.69251,6.69251,0,0,1-.96857,3.57514.6547.6547,0,0,0,.01545.55554,6.43365,6.43365,0,0,1,.351,6.10046.87669.87669,0,0,0,.01941.533,16.07643,16.07643,0,0,1,.55151,1.91718,14.01426,14.01426,0,0,1,.0293,2.05865,4.59327,4.59327,0,0,1-1.97626,3.87994.71691.71691,0,0,0-.26794.50312c.03924,2.38214.102,4.76385.1607,7.14563.00373.14929.02106.29822.03339.465h4.12628Z" transform="translate(-15.59094 -14.01673)"/><path class="cls-1" d="M28.69685,38.17164c-.00506-.82074-.00116-1.64148-.00116-2.4635a4.5124,4.5124,0,0,0-3.62585,3.86762,4.45706,4.45706,0,0,0,2.08056,4.39642,4.68877,4.68877,0,0,1,6.75153-2.21692,4.51763,4.51763,0,0,0-.32349-3.8667c-.15655.10486-.26855.18048-.3811.25525a6.40207,6.40207,0,0,1-3.39111,1.09552A.94068.94068,0,0,1,28.69685,38.17164Z" transform="translate(-15.59094 -14.01673)"/><path class="cls-1" d="M31.92183,52.086h-.97058c-.01221.2226-.02692.40369-.03131.585-.02564,1.06873-.0478,2.13752-.07319,3.20624q-.13019,5.4734-.26312,10.9466a.92084.92084,0,0,0,.47058.92071c.50568.27887,1.28449-.0556,1.25843-.97925-.13367-4.7323-.23359-9.46551-.34723-14.19836C31.96156,52.4073,31.937,52.24812,31.92183,52.086Z" transform="translate(-15.59094 -14.01673)"/><path class="cls-1" d="M34.18837,45.583a2.75458,2.75458,0,0,0-2.48291-2.66058A2.72533,2.72533,0,0,0,28.778,45.0721a11.62361,11.62361,0,0,0-.114,1.49847l.033.00208c0,.33538-.00818.671.00146,1.00616a2.74637,2.74637,0,0,0,5.48981.01636C34.20808,46.92494,34.20625,46.25331,34.18837,45.583Z" transform="translate(-15.59094 -14.01673)"/><path class="cls-1" d="M34.1432,32.04921a4.59333,4.59333,0,0,0-3.58642,5.22284A4.56753,4.56753,0,0,0,34.1432,32.04921Z" transform="translate(-15.59094 -14.01673)"/><path class="cls-1" d="M56.73665,52.9629a6.41435,6.41435,0,1,0-6.41773,6.44751A6.42672,6.42672,0,0,0,56.73665,52.9629Zm-7.32727,3.7262c-.01722-.53662.37555-.90588,1.00689-.94684a2.7539,2.7539,0,0,0,2.65229-2.642c.0418-.65442.42956-1.05621.98156-1.01709a.94766.94766,0,0,1,.84864,1.09662,4.60527,4.60527,0,0,1-4.37989,4.392C49.8639,57.5912,49.4272,57.24379,49.40938,56.6891Z" transform="translate(-15.59094 -14.01673)"/><path d="M60.67732,60.029a2.77792,2.77792,0,0,1-3.036,3.04791q-11.52255.00082-23.045.00024H34.056V61.244h.4513q2.15331,0,4.30664-.00055c.82153-.0011,1.15228-.32147,1.15234-1.12549q.00174-16.29062.00006-32.58123c-.00012-.78748-.32989-1.12134-1.10943-1.12153q-9.25461-.00237-18.50934.00019c-.75336.00024-1.08966.33825-1.08978,1.09436q-.0022,16.31351-.00007,32.62707c.00007.77771.33515,1.10572,1.12476,1.10639q3.963.0031,7.926.00079h.53277v1.83319h-.52038q-3.963-.00009-7.926-.00049a2.76409,2.76409,0,0,1-2.9704-2.97448q-.00146-16.26774-.00006-32.5354a2.7642,2.7642,0,0,1,3.00434-2.98536q7.03262-.00146,14.0653-.00048c.15271,0,.306.00695.45795-.00452a.9123.9123,0,0,0,.0199-1.82318c-.12128-.0108-.2442-.00513-.36634-.00513q-7.0784-.00027-14.15692.00018a4.59142,4.59142,0,0,0-4.857,4.84992q-.00156,16.22186-.00012,32.44372a4.59816,4.59816,0,0,0,4.88629,4.86817q3.87139.00127,7.7428.00018h.54559c0,.48657.0097.95313-.00165,1.41919-.04755,1.94965.4195,2.65717,2.222,3.347H31.903a2.74231,2.74231,0,0,0,2.2174-2.47461c.03418-.36249-.001-.73151-.00231-1.09748-.00141-.3789-.00031-.75781-.00031-1.19409h.54541q11.42,0,22.8399-.00006a4.59186,4.59186,0,0,0,4.95118-3.87244c.00659-.026.03686-.046.056-.06878V38.02156a14.378,14.378,0,0,1-1.83295.251Q60.67741,49.1508,60.67732,60.029ZM31.05421,67.74452a.92084.92084,0,0,1-.47058-.92071q.13431-5.47321.26312-10.9466c.02539-1.06872.04755-2.13751.07319-3.20624.00439-.18127.0191-.36236.03131-.585h.97058c.01519.16211.03973.32129.04358.4809.11364,4.73285.21356,9.46606.34723,14.19836C32.3387,67.68892,31.55989,68.02339,31.05421,67.74452Zm.359-17.50061a2.74471,2.74471,0,0,1-2.71466-2.6651c-.00964-.33514-.00146-.67078-.00146-1.00616l-.033-.00208a11.62361,11.62361,0,0,1,.114-1.49847,2.72533,2.72533,0,0,1,2.92743-2.14966A2.75458,2.75458,0,0,1,34.18837,45.583c.01788.67029.01971,1.34192,0,2.01215A2.73909,2.73909,0,0,1,31.41322,50.24391Zm1.78412-12.1001c.11255-.07477.22455-.15039.3811-.25525a4.51763,4.51763,0,0,1,.32349,3.8667,4.68877,4.68877,0,0,0-6.75153,2.21692,4.45706,4.45706,0,0,1-2.08056-4.39642,4.5124,4.5124,0,0,1,3.62585-3.86762c0,.822-.0039,1.64276.00116,2.4635a.94068.94068,0,0,0,1.10938,1.06769A6.40207,6.40207,0,0,0,33.19734,38.14381Zm.94586-6.0946a4.56753,4.56753,0,0,1-3.58642,5.22284A4.59333,4.59333,0,0,1,34.1432,32.04921Zm-.201,26.87616c-.05871-2.38178-.12146-4.76349-.1607-7.14563a.71691.71691,0,0,1,.26794-.50312,4.59327,4.59327,0,0,0,1.97626-3.87994,14.01426,14.01426,0,0,0-.0293-2.05865,16.07643,16.07643,0,0,0-.55151-1.91718.87669.87669,0,0,1-.01941-.533,6.43365,6.43365,0,0,0-.351-6.10046.6547.6547,0,0,1-.01545-.55554,6.69251,6.69251,0,0,0,.96857-3.57514c-.00561-.51922.00537-1.03863-.00275-1.5578A.912.912,0,0,0,34.996,30.08748a6.27016,6.27016,0,0,0-5.42205,3.20233.97617.97617,0,0,1-.80127.5263,6.34419,6.34419,0,0,0-5.55731,6.63556,6.18533,6.18533,0,0,0,3.30212,5.31409.59873.59873,0,0,1,.35522.59961,12.18947,12.18947,0,0,0,.11676,2.14209A4.34689,4.34689,0,0,0,28.822,51.261a.67708.67708,0,0,1,.28724.44745c-.04309,2.489-.10968,4.97754-.17243,7.46619a1.71462,1.71462,0,0,1-.03271.20532H21.11445V28.28468H38.10188V59.39039H33.9756C33.96327,59.22359,33.94594,59.07466,33.94221,58.92537Z" transform="translate(-15.59094 -14.01673)"/><path d="M45.25593,22.75093c-.654.00055-1.308-.0014-1.962-.001a.922.922,0,1,0,.01043,1.82947q.96039.00055,1.92084.00024c-.0086-.20373-.03082-.40393-.03082-.6098C45.19435,23.5583,45.222,23.15364,45.25593,22.75093Z" transform="translate(-15.59094 -14.01673)"/><path d="M56.715,41.04518H43.92622V28.27345h1.926a14.29562,14.29562,0,0,1-.4347-1.85913q-1.04076,0-2.08148.00006c-.97754.00012-1.26092.27948-1.261,1.24451q-.00055,7.00726,0,14.01446c.00006.94489.28955,1.23883,1.22149,1.239q7.02868.00072,14.05738,0c.91308-.00013,1.21545-.298,1.21557-1.19941q.00027-1.7166,0-3.43328A14.40541,14.40541,0,0,1,56.715,38.046Z" transform="translate(-15.59094 -14.01673)"/><path d="M58.56941,53.02449a8.24713,8.24713,0,1,0-8.27722,8.21905A8.26092,8.26092,0,0,0,58.56941,53.02449Zm-14.66138-.022a6.41435,6.41435,0,1,1,6.41089,6.40789A6.42594,6.42594,0,0,1,43.908,53.00252Z" transform="translate(-15.59094 -14.01673)"/><path d="M46.56984,30.087a.96373.96373,0,0,0-.82019,1.16339,2.76758,2.76758,0,0,0,2.74365,2.495,2.70958,2.70958,0,0,0,.51685-.051,14.362,14.362,0,0,1-2.43268-3.60669Z" transform="translate(-15.59094 -14.01673)"/><path d="M52.14827,37.40956a.92627.92627,0,0,1-.90607-.85864c-.09589-.66346-.49115-1.03217-1.03192-.96271a.97479.97479,0,0,0-.79334,1.18677,2.74341,2.74341,0,0,0,5.2948.69946,14.26012,14.26012,0,0,1-1.69946-.73224A.87011.87011,0,0,1,52.14827,37.40956Z" transform="translate(-15.59094 -14.01673)"/><path d="M54.89876,53.17976a.94766.94766,0,0,0-.84864-1.09662c-.552-.03912-.93976.36267-.98156,1.01709a2.7539,2.7539,0,0,1-2.65229,2.642c-.63134.041-1.02411.41022-1.00689.94684.01782.55469.45452.9021,1.10949.88269A4.60527,4.60527,0,0,0,54.89876,53.17976Z" transform="translate(-15.59094 -14.01673)"/></svg>