<?xml version="1.0" encoding="UTF-8" standalone="no"?>
<svg
   fill="#000000"
   viewBox="0 0 30 30"
   width="30px"
   height="30px"
   version="1.1"
   id="svg131"
   sodipodi:docname="sm-instagram.svg"
   inkscape:version="1.2 (dc2aedaf03, 2022-05-15)"
   xmlns:inkscape="http://www.inkscape.org/namespaces/inkscape"
   xmlns:sodipodi="http://sodipodi.sourceforge.net/DTD/sodipodi-0.dtd"
   xmlns="http://www.w3.org/2000/svg"
   xmlns:svg="http://www.w3.org/2000/svg">
  <defs
     id="defs135" />
  <sodipodi:namedview
     id="namedview133"
     pagecolor="#505050"
     bordercolor="#eeeeee"
     borderopacity="1"
     inkscape:showpageshadow="0"
     inkscape:pageopacity="0"
     inkscape:pagecheckerboard="0"
     inkscape:deskcolor="#505050"
     showgrid="false"
     inkscape:zoom="7.8666667"
     inkscape:cx="13.538136"
     inkscape:cy="15.063559"
     inkscape:current-layer="svg131" />
  <path
     d="M 9.789632,2.5 C 5.7698405,2.5 2.5,5.7728678 2.5,9.793701 V 20.210368 C 2.5,24.230159 5.7728678,27.5 9.793701,27.5 H 20.210368 C 24.230159,27.5 27.5,24.227132 27.5,20.206299 V 9.789632 C 27.5,5.7698405 24.227132,2.5 20.206299,2.5 Z m 12.502035,4.1666667 c 0.575,0 1.041666,0.4666666 1.041666,1.0416666 0,0.575 -0.466666,1.0416667 -1.041666,1.0416667 -0.575,0 -1.041667,-0.4666667 -1.041667,-1.0416667 0,-0.575 0.466667,-1.0416666 1.041667,-1.0416666 z M 15,8.75 c 3.446875,0 6.25,2.803125 6.25,6.25 0,3.446875 -2.803125,6.25 -6.25,6.25 -3.446875,0 -6.25,-2.803125 -6.25,-6.25 0,-3.446875 2.803125,-6.25 6.25,-6.25 z m 0,2.083333 A 4.1666667,4.1666667 0 0 0 10.833333,15 4.1666667,4.1666667 0 0 0 15,19.166667 4.1666667,4.1666667 0 0 0 19.166667,15 4.1666667,4.1666667 0 0 0 15,10.833333 Z"
     id="path129"
     style="stroke-width:1.04167;fill:#e7beb8;fill-opacity:1" />
</svg>
