<svg width="150" height="205" viewBox="0 0 150 205" fill="none" xmlns="http://www.w3.org/2000/svg">
<path d="M150 75.0206C150 100.916 136.884 123.746 116.934 137.228C116.315 137.647 115.736 138.122 115.156 138.594C115.04 138.688 114.923 138.78 114.804 138.871L21.8831 202.202C12.8387 209.091 7.9981e-06 202.473 7.24478e-06 190.921L4.87894e-06 154.643C4.34535e-06 146.461 13.3972 139.021 20.0043 134.195L84.1582 87.3317C91.1254 82.2424 92.6492 72.4675 87.5617 65.499C82.4741 58.5305 72.7018 57.0071 65.7346 62.0965L1.58066 108.959C0.953805 109.417 1.90201e-06 108.995 1.85138e-06 108.219L0 79.8296C0 79.3178 0.0243212 78.8169 0.0715543 78.3274C0.0240155 77.231 0 76.1286 0 75.0206C0 33.5878 33.5786 0 75 0C116.421 0 150 33.5878 150 75.0206Z" fill="url(#paint0_linear_2564_133)"/>
<path d="M124.848 161.136C121.331 156.962 115.156 156.239 110.763 159.488L74.3044 186.451C66.3115 192.362 70.5117 204.999 80.4692 204.999H139.643C148.422 204.999 153.205 194.794 147.564 188.098L124.848 161.136Z" fill="url(#paint1_linear_2564_133)"/>
<defs>
<linearGradient id="paint0_linear_2564_133" x1="110.056" y1="157.458" x2="110.056" y2="205" gradientUnits="userSpaceOnUse">
<stop stop-color="#49EBE1"/>
<stop offset="1" stop-color="#62EB94"/>
</linearGradient>
<linearGradient id="paint1_linear_2564_133" x1="110.056" y1="157.458" x2="110.056" y2="205" gradientUnits="userSpaceOnUse">
<stop stop-color="#49EBE1"/>
<stop offset="1" stop-color="#62EB94"/>
</linearGradient>
</defs>
</svg>
