<?xml version="1.0" encoding="UTF-8" standalone="no"?>
<!DOCTYPE svg PUBLIC "-//W3C//DTD SVG 1.1//EN" "http://www.w3.org/Graphics/SVG/1.1/DTD/svg11.dtd">
<svg width="100%" height="100%" viewBox="0 0 350 60" version="1.1" xmlns="http://www.w3.org/2000/svg" xmlns:xlink="http://www.w3.org/1999/xlink" xml:space="preserve" xmlns:serif="http://www.serif.com/" style="fill-rule:evenodd;clip-rule:evenodd;stroke-linejoin:round;stroke-miterlimit:2;">
    <g transform="matrix(1.25,0,0,0.888889,-16.2438,-102.018)">
        <rect id="Prancheta1" x="12.995" y="114.77" width="280" height="67.5" style="fill:none;"/>
        <g id="Prancheta11" serif:id="Prancheta1">
            <g transform="matrix(0.73574,0,0,1.03464,-7.83032,-6.8561)">
                <path d="M56.99,124.933C57.669,123.451 59.15,122.5 60.781,122.5C62.412,122.5 63.893,123.451 64.572,124.933L70.895,138.736L85.976,140.484C87.596,140.672 88.958,141.786 89.462,143.337C89.966,144.888 89.519,146.591 88.319,147.695L77.146,157.973L80.143,172.856C80.466,174.455 79.826,176.095 78.507,177.053C77.187,178.012 75.43,178.113 74.009,177.313L60.781,169.863L47.553,177.313C46.132,178.113 44.375,178.012 43.056,177.053C41.736,176.095 41.097,174.455 41.419,172.856L44.417,157.973L33.244,147.695C32.043,146.591 31.597,144.888 32.101,143.337C32.605,141.786 33.967,140.672 35.587,140.484L50.668,138.736L56.99,124.933Z" style="fill:rgb(243,211,77);"/>
            </g>
            <g transform="matrix(0.73574,0,0,1.03464,49.3477,-6.8561)">
                <path d="M56.99,124.933C57.669,123.451 59.15,122.5 60.781,122.5C62.412,122.5 63.893,123.451 64.572,124.933L70.895,138.736L85.976,140.484C87.596,140.672 88.958,141.786 89.462,143.337C89.966,144.888 89.519,146.591 88.319,147.695L77.146,157.973L80.143,172.856C80.466,174.455 79.826,176.095 78.507,177.053C77.187,178.012 75.43,178.113 74.009,177.313L60.781,169.863L47.553,177.313C46.132,178.113 44.375,178.012 43.056,177.053C41.736,176.095 41.097,174.455 41.419,172.856L44.417,157.973L33.244,147.695C32.043,146.591 31.597,144.888 32.101,143.337C32.605,141.786 33.967,140.672 35.587,140.484L50.668,138.736L56.99,124.933Z" style="fill:rgb(243,211,77);"/>
            </g>
            <g transform="matrix(0.73574,0,0,1.03464,106.526,-6.8561)">
                <path d="M56.99,124.933C57.669,123.451 59.15,122.5 60.781,122.5C62.412,122.5 63.893,123.451 64.572,124.933L70.895,138.736L85.976,140.484C87.596,140.672 88.958,141.786 89.462,143.337C89.966,144.888 89.519,146.591 88.319,147.695L77.146,157.973L80.143,172.856C80.466,174.455 79.826,176.095 78.507,177.053C77.187,178.012 75.43,178.113 74.009,177.313L60.781,169.863L47.553,177.313C46.132,178.113 44.375,178.012 43.056,177.053C41.736,176.095 41.097,174.455 41.419,172.856L44.417,157.973L33.244,147.695C32.043,146.591 31.597,144.888 32.101,143.337C32.605,141.786 33.967,140.672 35.587,140.484L50.668,138.736L56.99,124.933Z" style="fill:rgb(243,211,77);"/>
            </g>
            <g transform="matrix(0.73574,0,0,1.03464,163.704,-6.8561)">
                <path d="M56.99,124.933C57.669,123.451 59.15,122.5 60.781,122.5C62.412,122.5 63.893,123.451 64.572,124.933L70.895,138.736L85.976,140.484C87.596,140.672 88.958,141.786 89.462,143.337C89.966,144.888 89.519,146.591 88.319,147.695L77.146,157.973L80.143,172.856C80.466,174.455 79.826,176.095 78.507,177.053C77.187,178.012 75.43,178.113 74.009,177.313L60.781,169.863L47.553,177.313C46.132,178.113 44.375,178.012 43.056,177.053C41.736,176.095 41.097,174.455 41.419,172.856L44.417,157.973L33.244,147.695C32.043,146.591 31.597,144.888 32.101,143.337C32.605,141.786 33.967,140.672 35.587,140.484L50.668,138.736L56.99,124.933Z" style="fill:rgb(243,211,77);"/>
            </g>
            <g transform="matrix(0.73574,0,0,1.03464,220.882,-6.8561)">
                <path d="M56.99,124.933C57.669,123.451 59.15,122.5 60.781,122.5C62.412,122.5 63.893,123.451 64.572,124.933L70.895,138.736L85.976,140.484C87.596,140.672 88.958,141.786 89.462,143.337C89.966,144.888 89.519,146.591 88.319,147.695L77.146,157.973L80.143,172.856C80.466,174.455 79.826,176.095 78.507,177.053C77.187,178.012 75.43,178.113 74.009,177.313L60.781,169.863L47.553,177.313C46.132,178.113 44.375,178.012 43.056,177.053C41.736,176.095 41.097,174.455 41.419,172.856L44.417,157.973L33.244,147.695C32.043,146.591 31.597,144.888 32.101,143.337C32.605,141.786 33.967,140.672 35.587,140.484L50.668,138.736L56.99,124.933Z" style="fill:rgb(243,211,77);"/>
            </g>
        </g>
    </g>
</svg>
