<?xml version="1.0" encoding="UTF-8" standalone="no"?>
<!DOCTYPE svg PUBLIC "-//W3C//DTD SVG 1.1//EN" "http://www.w3.org/Graphics/SVG/1.1/DTD/svg11.dtd">
<svg width="100%" height="100%" viewBox="0 0 130 130" version="1.1" xmlns="http://www.w3.org/2000/svg" xmlns:xlink="http://www.w3.org/1999/xlink" xml:space="preserve" xmlns:serif="http://www.serif.com/" style="fill-rule:evenodd;clip-rule:evenodd;stroke-linejoin:round;stroke-miterlimit:2;">
    <g transform="matrix(0.663919,0,0,0.666387,-113.653,-21.6815)">
        <rect id="Prancheta1" x="171.185" y="32.536" width="195.807" height="195.082" style="fill:none;"/>
        <clipPath id="_clip1">
            <rect id="Prancheta11" serif:id="Prancheta1" x="171.185" y="32.536" width="195.807" height="195.082"/>
        </clipPath>
        <g clip-path="url(#_clip1)">
            <g transform="matrix(1,0,0,1,6.65613,-9.39565)">
                <g transform="matrix(1.36417,-1.35912,1.36417,1.35911,171.05,139.473)">
                    <path d="M34.2,0L19.619,0C8.784,-0 0,8.784 0,19.619C0,27.252 0,34.2 0,34.2L34.2,34.2L34.2,0Z" style="fill:rgb(39,161,68);"/>
                </g>
                <g transform="matrix(1.36417,1.35912,-1.36417,1.35911,217.704,-9.7587)">
                    <path d="M72,17.096C72,12.562 70.199,8.214 66.993,5.007C63.786,1.801 59.438,0 54.904,-0L37.8,0L37.8,34.2L54.897,34.2C64.343,34.2 72,26.543 72,17.097L72,17.096Z" style="fill:rgb(255,134,0);"/>
                </g>
                <g transform="matrix(1.36417,-1.35912,1.36417,1.35911,171.05,139.473)">
                    <path d="M34.2,57.35C34.2,52.165 32.14,47.192 28.474,43.526C24.808,39.86 19.835,37.8 14.651,37.8C6.99,37.8 0,37.8 0,37.8L0,72L34.2,72L34.2,57.35Z" style="fill:rgb(45,104,192);"/>
                </g>
                <g transform="matrix(1.36417,-1.35912,1.36417,1.35911,171.05,139.473)">
                    <path d="M72,54.886C72,50.355 70.2,46.009 66.996,42.805C63.791,39.6 59.445,37.8 54.914,37.8C54.902,37.8 54.89,37.8 54.878,37.8C45.446,37.8 37.8,45.446 37.8,54.878L37.8,72L54.888,72C64.339,72 72,64.339 72,54.888L72,54.886Z" style="fill:rgb(239,208,0);"/>
                </g>
            </g>
        </g>
    </g>
</svg>
