<?xml version="1.0" encoding="UTF-8" standalone="no"?>
<svg
   height="48"
   viewBox="0 -960 960 960"
   width="48"
   version="1.1"
   id="svg1"
   sodipodi:docname="shopping_bag.svg"
   inkscape:version="1.3 (0e150ed6c4, 2023-07-21)"
   xmlns:inkscape="http://www.inkscape.org/namespaces/inkscape"
   xmlns:sodipodi="http://sodipodi.sourceforge.net/DTD/sodipodi-0.dtd"
   xmlns="http://www.w3.org/2000/svg"
   xmlns:svg="http://www.w3.org/2000/svg">
  <defs
     id="defs1">
    <inkscape:path-effect
       effect="perspective-envelope"
       up_left_point="164.4,-880"
       up_right_point="800,-880"
       down_left_point="160,-80"
       down_right_point="800,-80"
       id="path-effect1"
       is_visible="true"
       lpeversion="1"
       deform_type="perspective"
       horizontal_mirror="false"
       vertical_mirror="false"
       overflow_perspective="false" />
  </defs>
  <sodipodi:namedview
     id="namedview1"
     pagecolor="#505050"
     bordercolor="#eeeeee"
     borderopacity="1"
     inkscape:showpageshadow="0"
     inkscape:pageopacity="0"
     inkscape:pagecheckerboard="0"
     inkscape:deskcolor="#d1d1d1"
     inkscape:zoom="11.8125"
     inkscape:cx="24.042328"
     inkscape:cy="24"
     inkscape:window-width="1366"
     inkscape:window-height="745"
     inkscape:window-x="-8"
     inkscape:window-y="-8"
     inkscape:window-maximized="1"
     inkscape:current-layer="svg1" />
  <path
     d="m 216.61375,-135.3439 c -14.91723,-2.45474 -31.69312,-6.26456 -43.69312,-15.66138 -12,-9.39683 -18,-22.09524 -18,-38.09524 v -438.73016 c 0,-16 0.92063,-39.7672 12.92063,-54.37037 12,-14.60318 31.07937,-15.1746 47.07937,-18.6455 l 110,-23.86244 v -10 c 0,-42 14.5,-80.6455 43.5,-115.93651 29,-35.291 64.5,-57.49206 106.5,-66.60317 42,-9.11111 77.5,-2.31217 106.5,20.39683 29,22.70899 43.5,55.06349 43.5,97.06349 v 10 l 110,-23.86244 c 16,-3.4709 30,-0.50793 42,8.88889 12,9.39683 18,22.09524 18,38.09524 v 643.59788 c 0,16 5.85185,44.846561 -6.14815,59.449737 -12,14.603175 -38.93462,16.020872 -53.85185,13.566138 z m -1.69312,-66.77249 520,92.06349 v -643.59789 l -110,23.86244 v 90 c 0,8.5 -2.89167,16.25229 -8.675,23.25688 -5.784,7.00473 -12.95067,11.4344 -21.5,13.28902 -8.55,1.85476 -15.65833,0.52178 -21.325,-3.99894 -5.66667,-4.52073 -8.5,-11.03109 -8.5,-19.53109 v -90 l -180,39.04762 v 90 c 0,8.5 -2.89167,16.25229 -8.675,23.25688 -5.784,7.00473 -12.95067,11.4344 -21.5,13.28902 -8.55,1.85476 -15.65833,0.52178 -21.325,-3.99894 -5.66667,-4.52073 -8.5,-11.03109 -8.5,-19.53109 v -90 l -110,23.86244 z m 170,-535.60847 180,-39.04762 v -10 c 0,-25.33333 -8.66667,-44.7866 -26,-58.35979 -17.33333,-13.57319 -38.66667,-17.61199 -64,-12.1164 -25.33333,5.49559 -46.66667,18.79013 -64,39.8836 -17.33333,21.09347 -26,44.30688 -26,69.64021 z m -170,535.60847 v -438.73016 z"
     id="path1"
     style="fill:#ffffff"
     sodipodi:nodetypes="sssssscssssscsssssssccccscsssccscssscccccssssscccc" />
</svg>
