<svg width="32" height="32" viewBox="0 0 32 32" fill="none" xmlns="http://www.w3.org/2000/svg">
<path d="M7.03143 21.4994C6.86654 21.5818 6.72311 21.7015 6.6125 21.849L0.9875 29.349C0.855181 29.5254 0.774604 29.7352 0.754799 29.9549C0.734994 30.1745 0.776743 30.3953 0.875368 30.5926C0.973994 30.7898 1.1256 30.9557 1.31319 31.0717C1.50079 31.1876 1.71697 31.249 1.9375 31.249H30.0625C30.283 31.249 30.4992 31.1876 30.6868 31.0717C30.8744 30.9557 31.026 30.7898 31.1246 30.5926C31.2233 30.3953 31.265 30.1745 31.2452 29.9549C31.2254 29.7352 31.1448 29.5254 31.0125 29.349L25.3875 21.849C25.2769 21.7015 25.1335 21.5818 24.9686 21.4994C24.8037 21.4169 24.6219 21.374 24.4375 21.374H19.75C19.4351 21.374 19.133 21.4991 18.9103 21.7218C18.6876 21.9445 18.5625 22.2466 18.5625 22.5615C18.5625 22.8765 18.6876 23.1785 18.9103 23.4012C19.133 23.6239 19.4351 23.749 19.75 23.749H23.8438L27.6875 28.874H4.3125L8.15625 23.749H12.25C12.5649 23.749 12.867 23.6239 13.0897 23.4012C13.3124 23.1785 13.4375 22.8765 13.4375 22.5615C13.4375 22.2466 13.3124 21.9445 13.0897 21.7218C12.867 21.4991 12.5649 21.374 12.25 21.374H7.5625C7.37815 21.374 7.19632 21.4169 7.03143 21.4994Z" fill="black" stroke="black" stroke-width="0.5"/>
<mask id="path-2-outside-1_1893_12" maskUnits="userSpaceOnUse" x="7.5" y="0" width="17" height="28" fill="black">
<rect fill="white" x="7.5" width="17" height="28"/>
<path fill-rule="evenodd" clip-rule="evenodd" d="M8.5 8.4993C8.50014 7.05598 8.91673 5.64335 9.6998 4.43091C10.4829 3.21848 11.5992 2.25775 12.9147 1.664C14.2302 1.07026 15.6892 0.868715 17.1164 1.08356C18.5437 1.29841 19.8786 1.92051 20.961 2.87524C22.0435 3.82996 22.8275 5.07674 23.2189 6.46597C23.6104 7.8552 23.5926 9.32788 23.1678 10.7073C22.7431 12.0867 21.9293 13.3142 20.8242 14.2426C19.719 15.171 18.3695 15.7608 16.9375 15.9412V26.3118C16.9375 26.5604 16.8387 26.7989 16.6629 26.9747C16.4871 27.1505 16.2486 27.2493 16 27.2493C15.7514 27.2493 15.5129 27.1505 15.3371 26.9747C15.1613 26.7989 15.0625 26.5604 15.0625 26.3118V15.9431C13.2493 15.7146 11.5819 14.832 10.3735 13.461C9.16514 12.09 8.49892 10.325 8.5 8.49743V8.4993Z"/>
</mask>
<path fill-rule="evenodd" clip-rule="evenodd" d="M8.5 8.4993C8.50014 7.05598 8.91673 5.64335 9.6998 4.43091C10.4829 3.21848 11.5992 2.25775 12.9147 1.664C14.2302 1.07026 15.6892 0.868715 17.1164 1.08356C18.5437 1.29841 19.8786 1.92051 20.961 2.87524C22.0435 3.82996 22.8275 5.07674 23.2189 6.46597C23.6104 7.8552 23.5926 9.32788 23.1678 10.7073C22.7431 12.0867 21.9293 13.3142 20.8242 14.2426C19.719 15.171 18.3695 15.7608 16.9375 15.9412V26.3118C16.9375 26.5604 16.8387 26.7989 16.6629 26.9747C16.4871 27.1505 16.2486 27.2493 16 27.2493C15.7514 27.2493 15.5129 27.1505 15.3371 26.9747C15.1613 26.7989 15.0625 26.5604 15.0625 26.3118V15.9431C13.2493 15.7146 11.5819 14.832 10.3735 13.461C9.16514 12.09 8.49892 10.325 8.5 8.49743V8.4993Z" fill="black"/>
<path d="M8.5 8.4993H8L9 8.49935L8.5 8.4993ZM16.9375 15.9412L16.875 15.4451L16.4375 15.5002V15.9412H16.9375ZM15.0625 15.9431H15.5625V15.5021L15.125 15.447L15.0625 15.9431ZM8.5 8.49743H9L8 8.49713L8.5 8.49743ZM9 8.49935C9.00013 7.15225 9.38895 5.83379 10.1198 4.70219L9.27979 4.15964C8.44451 5.4529 8.00014 6.95971 8 8.49926L9 8.49935ZM10.1198 4.70219C10.8507 3.57058 11.8925 2.6739 13.1204 2.11974L12.709 1.20827C11.3058 1.8416 10.1151 2.86638 9.27979 4.15964L10.1198 4.70219ZM13.1204 2.11974C14.3482 1.56557 15.7099 1.37747 17.042 1.57799L17.1908 0.589132C15.6684 0.359963 14.1123 0.574941 12.709 1.20827L13.1204 2.11974ZM17.042 1.57799C18.3741 1.77851 19.62 2.35915 20.6303 3.25022L21.2918 2.50025C20.1372 1.48188 18.7132 0.818301 17.1908 0.589132L17.042 1.57799ZM20.6303 3.25022C21.6406 4.14129 22.3723 5.30495 22.7377 6.60157L23.7002 6.33037C23.2826 4.84852 22.4464 3.51862 21.2918 2.50025L20.6303 3.25022ZM22.7377 6.60157C23.103 7.89819 23.0864 9.27268 22.69 10.5601L23.6457 10.8544C24.0988 9.38307 24.1177 7.81221 23.7002 6.33037L22.7377 6.60157ZM22.69 10.5601C22.2935 11.8476 21.534 12.9933 20.5026 13.8598L21.1458 14.6254C22.3246 13.6352 23.1926 12.3258 23.6457 10.8544L22.69 10.5601ZM20.5026 13.8598C19.4711 14.7263 18.2115 15.2767 16.875 15.4451L17 16.4373C18.5275 16.2448 19.967 15.6157 21.1458 14.6254L20.5026 13.8598ZM16.4375 15.9412V26.3118H17.4375V15.9412H16.4375ZM16.4375 26.3118C16.4375 26.4278 16.3914 26.5391 16.3094 26.6212L17.0165 27.3283C17.2861 27.0587 17.4375 26.6931 17.4375 26.3118H16.4375ZM16.3094 26.6212C16.2273 26.7032 16.116 26.7493 16 26.7493V27.7493C16.3812 27.7493 16.7469 27.5979 17.0165 27.3283L16.3094 26.6212ZM16 26.7493C15.884 26.7493 15.7727 26.7032 15.6906 26.6212L14.9835 27.3283C15.2531 27.5979 15.6188 27.7493 16 27.7493V26.7493ZM15.6906 26.6212C15.6086 26.5391 15.5625 26.4278 15.5625 26.3118H14.5625C14.5625 26.6931 14.714 27.0587 14.9835 27.3283L15.6906 26.6212ZM15.5625 26.3118V15.9431H14.5625V26.3118H15.5625ZM15.125 15.447C13.4327 15.2338 11.8765 14.41 10.7486 13.1304L9.99843 13.7916C11.2874 15.254 13.0659 16.1955 15 16.4391L15.125 15.447ZM10.7486 13.1304C9.6208 11.8508 8.99899 10.2034 9 8.49773L8 8.49713C7.99884 10.4465 8.70948 12.3292 9.99843 13.7916L10.7486 13.1304ZM8 8.49743V8.4993H9V8.49743H8Z" fill="black" mask="url(#path-2-outside-1_1893_12)"/>
</svg>
