<?xml version="1.0" encoding="UTF-8" standalone="no"?>
<svg
   width="66"
   height="66"
   viewBox="0 0 66 66"
   fill="none"
   version="1.1"
   id="svg6"
   sodipodi:docname="prev.svg"
   inkscape:version="1.2 (dc2aedaf03, 2022-05-15)"
   xmlns:inkscape="http://www.inkscape.org/namespaces/inkscape"
   xmlns:sodipodi="http://sodipodi.sourceforge.net/DTD/sodipodi-0.dtd"
   xmlns="http://www.w3.org/2000/svg"
   xmlns:svg="http://www.w3.org/2000/svg">
  <defs
     id="defs10" />
  <sodipodi:namedview
     id="namedview8"
     pagecolor="#505050"
     bordercolor="#eeeeee"
     borderopacity="1"
     inkscape:showpageshadow="0"
     inkscape:pageopacity="0"
     inkscape:pagecheckerboard="0"
     inkscape:deskcolor="#505050"
     showgrid="false"
     inkscape:zoom="3.5757576"
     inkscape:cx="32.860169"
     inkscape:cy="33.139831"
     inkscape:current-layer="svg6" />
  <path
     d="m 40.1562,17.8682 c 0.2675,0.2734 0.4797,0.5982 0.6245,0.9557 0.1448,0.3576 0.2193,0.7408 0.2193,1.1279 0,0.3871 -0.0745,0.7703 -0.2193,1.1279 -0.1448,0.3575 -0.357,0.6823 -0.6245,0.9557 L 28.9609,33.5026 40.1562,44.9698 c 0.5395,0.5526 0.8426,1.302 0.8426,2.0835 0,0.7815 -0.3031,1.531 -0.8426,2.0836 C 39.6167,49.6896 38.885,50 38.122,50 37.359,50 36.6273,49.6896 36.0878,49.1369 L 22.8438,35.5714 C 22.5763,35.298 22.3641,34.9732 22.2193,34.6157 22.0745,34.2581 22,33.8749 22,33.4878 c 0,-0.3871 0.0745,-0.7703 0.2193,-1.1279 0.1448,-0.3575 0.357,-0.6823 0.6245,-0.9557 l 13.244,-13.5656 c 1.0964,-1.123 2.9431,-1.123 4.0684,0.0296 z"
     fill="#000000"
     id="path2"
     style="fill:#cccccc" />
  <path
     d="M 3,33 C 3,40.9565 6.1607,48.5871 11.7868,54.2132 17.4129,59.8393 25.0435,63 33,63 40.9565,63 48.5871,59.8393 54.2132,54.2132 59.83929,48.5871 63,40.9565 63,33 63,25.0435 59.83929,17.4129 54.2132,11.7868 48.5871,6.16071 40.9565,3 33,3 25.0435,3 17.4129,6.16071 11.7868,11.7868 6.1607,17.4129 3,25.0435 3,33 Z"
     stroke="#000000"
     stroke-width="4.16667"
     stroke-linecap="round"
     id="path4"
     style="stroke:#cccccc" />
</svg>
