<svg id="Layer_1" data-name="Layer 1" xmlns="http://www.w3.org/2000/svg" viewBox="0 0 51.96546 40.84628"><path d="M15.01727,20.89044a7.14161,7.14161,0,0,1,.4105-.69061,2.269,2.269,0,0,1,3.31725-.4324c1.48067-.68423,2.05-.67908,3.05455-.00659a6.86454,6.86454,0,0,1,1.3461-.47453,2.27875,2.27875,0,0,1,2.58769,2.318c-.00023,2.31744-.02167,4.635-.008,6.9523a8.01186,8.01186,0,0,1-1.6923,5.096,5.56821,5.56821,0,0,0-1.14029,3.84117c.17144,3.53067.28628,7.06406.42788,10.5962.01684.42-.05048.83241-.50067.93479a1.13165,1.13165,0,0,1-.808-.20336c-.1479-.1058-.19552-.41683-.20579-.63992-.10579-2.2978-.19471-4.59637-.2887-6.89472-.00612-.14968-.01526-.29923-.02493-.48643H19.21106c-.03313.51762-.07507,1.05034-.10015,1.58386q-.33233,7.07025-.657,14.14086a1.83955,1.83955,0,1,0,3.66065.02171c-.03423-1.35248-.10789-2.70395-.16147-4.056a3.2255,3.2255,0,0,1,.00244-.7078.70867.70867,0,0,1,.74457-.62954.66844.66844,0,0,1,.73149.63409c.08583,1.73941.23922,3.48483.16931,5.22006a3.30017,3.30017,0,0,1-3.66207,3.06668,3.388,3.388,0,0,1-3.009-3.48614c.21555-4.883.45685-9.76491.68848-14.64723.07615-1.60493.15713-3.20964.22974-4.81473a4.41246,4.41246,0,0,0-.72609-2.85074,10.38538,10.38538,0,0,1-2.1047-4.75652Zm6.36444,18.32469c0-.59622.03274-1.13824-.006-1.6751a6.76551,6.76551,0,0,1,1.43383-4.78885A6.58289,6.58289,0,0,0,24.203,28.55449c-.01427-2.2662.00455-4.53261.00751-6.79893.00079-.60383-.29339-.96379-.78382-.96933-.48174-.00544-.79571.36811-.79784.965-.00373,1.04858-.001,2.09719-.00112,3.14578-.0001,1.60672.00486,3.21347-.00334,4.82015a.76135.76135,0,0,1-.7413.85148c-.4683.01128-.76484-.31342-.77632-.863-.00743-.355-.00169-.71031-.00169-1.06548q-.00006-3.47559-.00154-6.95118c-.00107-.65023-.432-1.03895-.99-.88418-.47428.13154-.57484.50459-.57367.95081q.01014,3.88147.00217,7.763c-.00068.699-.25113,1.0411-.75039,1.04943-.50975.00851-.76356-.32774-.77094-1.02229-.00125-.11837-.00026-.23677-.00026-.35517q-.00012-3.72929-.002-7.45856c-.00108-.62055-.26372-.94072-.74459-.94608-.51621-.00575-.7335.26389-.73332.91737.00066,2.2832.01181,4.56645.00074,6.84959a6.3945,6.3945,0,0,0,1.31639,4.0685,7.10783,7.10783,0,0,1,1.47763,5.27922,13.07111,13.07111,0,0,0-.00643,1.31452Z" transform="translate(-15.01727 -19.2464)"/><path d="M41.40326,57.26875a16.86936,16.86936,0,0,1-5.52576-32.785,16.77942,16.77942,0,0,1,10.94871-.05162c.06408.0212.12906.03988.19243.063.62939.22979.85751.56161.70832,1.029-.15494.4854-.57657.6342-1.20945.41525a14.591,14.591,0,0,0-10.23265.037c-5.68671,2.17237-9.14476,6.30389-9.9878,12.34821A15.27893,15.27893,0,1,0,49.97663,27.67408c-.18979-.1293-.45568-.30271-.47989-.48322a1.23309,1.23309,0,0,1,.18743-.86106.69078.69078,0,0,1,.96795-.02953,16.46559,16.46559,0,0,1,3.46782,3.02649A16.8308,16.8308,0,0,1,45.014,56.7851C43.83262,57.04673,42.60786,57.11221,41.40326,57.26875Z" transform="translate(-15.01727 -19.2464)"/><path d="M64.90509,44.06234H62.84468c-.07115.95742-.14409,1.91169-.21253,2.86627-.09554,1.33267-.1827,2.666-.28339,3.99823-.05211.68939-.33875.99329-.85414.94195-.48843-.04866-.7078-.41487-.66173-1.06248.16443-2.3112.33209-4.62227.47292-6.93494a3.091,3.091,0,0,0-.1478-1.08723,35.1116,35.1116,0,0,1-1.61766-9.769,22.20775,22.20775,0,0,1,2.21493-9.80039,10.35891,10.35891,0,0,1,1.21711-2.03642,4.39892,4.39892,0,0,1,1.36807-1.1735,1.765,1.765,0,0,1,2.64218,1.654c-.01363,1.59-.072,3.1796-.11589,4.76924-.15223,5.513-.36369,11.0251-.43541,16.53907-.03426,2.63452.1946,5.27248.30529,7.90885.083,1.97736.20313,3.954.24049,5.9322a3.27442,3.27442,0,0,1-2.793,3.25042,3.30929,3.30929,0,0,1-3.61113-2.30951,2.98906,2.98906,0,0,1-.14425-.94593c.02234-.70926.08864-1.41776.15579-2.12478a.725.725,0,0,1,.79809-.73024.74734.74734,0,0,1,.70984.8277c-.02289.59117-.07253,1.18172-.12518,1.77123A1.78271,1.78271,0,0,0,63.58079,58.559,1.75545,1.75545,0,0,0,65.45952,56.694c-.05123-1.79221-.14247-3.5833-.2194-5.37475q-.14372-3.34626-.29237-6.69229C64.93971,44.44489,64.92055,44.26329,64.90509,44.06234Zm-.01542-1.54659c.01716-.31578.03684-.56714.04362-.81884q.149-5.52888.295-11.05783c.07754-2.90819.15941-5.81628.22527-8.72473a2.15593,2.15593,0,0,0-.1677-.60077c-.19771.07719-.45612.10026-.582.24148A7.83985,7.83985,0,0,0,63.556,23.02332a21.37788,21.37788,0,0,0-2.34481,7.1882A21.67317,21.67317,0,0,0,61.344,36.633c.3093,1.86095.80046,3.69213,1.23422,5.531a.54417.54417,0,0,0,.38071.33586C63.58124,42.53611,64.20686,42.51575,64.88967,42.51575Z" transform="translate(-15.01727 -19.2464)"/><path d="M41.52827,53.43686a13.12531,13.12531,0,0,1-12.87949-10.2714c-.01081-.04951-.01755-.09989-.02688-.14974q-.18887-1.00857.5506-1.162c.47918-.09927.80464.20155.95164.87464a11.20249,11.20249,0,0,0,5.6355,7.68972A11.53631,11.53631,0,1,0,29.95017,38.9854c-.07681.59043-.39348.91624-.84466.869-.48477-.05074-.7403-.45687-.66677-1.05978a13.069,13.069,0,1,1,14.43493,14.559C42.38715,53.40958,41.89483,53.41514,41.52827,53.43686Z" transform="translate(-15.01727 -19.2464)"/><path d="M48.21289,35.08154a5.06674,5.06674,0,0,0-6.36328-.39795c-.13135.09375-.25732.19532-.38525.29834l-.00977.00782c-.0752-.06543-.15039-.1294-.23-.188a4.91132,4.91132,0,0,0-4.95068-.69824A5.027,5.027,0,0,0,33.166,37.584a6.00954,6.00954,0,0,0-.148.73877c-.01661.10791-.03321.21534-.05323.32276l-.0039.689.03125.10254a4.48366,4.48366,0,0,0,.4497,1.42041A10.64025,10.64025,0,0,0,35.415,43.541a33.63308,33.63308,0,0,0,5.67529,4.6123.65616.65616,0,0,0,.36133.11719.67782.67782,0,0,0,.37646-.124,35.3342,35.3342,0,0,0,5.2754-4.208,12.32949,12.32949,0,0,0,2.19043-2.752,4.24021,4.24021,0,0,0,.64941-2.18115A5.24913,5.24913,0,0,0,48.21289,35.08154Zm.58594,3.97071a3.42055,3.42055,0,0,1-.55762,1.67334,10.60171,10.60171,0,0,1-1.63672,2.085,32.13775,32.13775,0,0,1-5.15088,4.21191,32.39135,32.39135,0,0,1-5.1582-4.22168A12.23946,12.23946,0,0,1,34.70117,40.792a3.44426,3.44426,0,0,1-.29785-3.32178,3.95089,3.95089,0,0,1,2.59326-2.41015,5.53789,5.53789,0,0,1,.81055-.16113c.05371-.00831.10693-.01612.16064-.02442l.19873.0083a3.89615,3.89615,0,0,1,2.72364,1.14746c.44287.4336.68457.43506,1.12548.00244a3.91659,3.91659,0,0,1,5.59571.05469A4.06918,4.06918,0,0,1,48.79883,39.05225Z" transform="translate(-15.01727 -19.2464)"/><path d="M45.82971,35.8811a.32268.32268,0,0,0-.44757.15985c-.08508.19391.015.364.26972.45826a2.55718,2.55718,0,0,1,1.66656,2.2929c.01257.3061.12872.45655.34454.44635.2121-.00994.30866-.15856.32685-.46624a7.49853,7.49853,0,0,0-.168-.81537A3.0843,3.0843,0,0,0,45.82971,35.8811Z" transform="translate(-15.01727 -19.2464)"/><path d="M44.4433,35.76965a.32.32,0,0,0-.31738.314.31132.31132,0,0,0,.305.32281.3187.3187,0,1,0,.01239-.63684Z" transform="translate(-15.01727 -19.2464)"/></svg>