<?xml version="1.0" standalone="no"?>
<!DOCTYPE svg PUBLIC "-//W3C//DTD SVG 20010904//EN"
 "http://www.w3.org/TR/2001/REC-SVG-20010904/DTD/svg10.dtd">
<svg version="1.0" xmlns="http://www.w3.org/2000/svg"
 width="500.000000pt" height="500.000000pt" viewBox="0 0 500.000000 500.000000"
 preserveAspectRatio="xMidYMid meet">

<g transform="translate(0.000000,500.000000) scale(0.100000,-0.100000)"
fill="#000000" stroke="none">
<path d="M303 3935 c-131 -40 -232 -155 -262 -293 -16 -75 -16 -2429 0 -2504
26 -122 95 -210 207 -265 l76 -38 2176 0 2176 0 76 38 c112 55 181 143 207
265 16 75 16 2409 0 2484 -27 125 -114 239 -224 294 l-60 29 -2165 2 c-1778 1
-2173 -1 -2207 -12z m3297 -1530 l0 -1405 -1623 2 -1624 3 -49 30 c-30 19 -60
49 -79 79 l-30 49 -3 1221 c-2 945 0 1231 10 1266 15 54 86 130 138 147 25 8
497 11 1648 12 l1612 1 0 -1405z m1029 1379 c37 -10 66 -29 96 -59 80 -79 75
3 75 -1335 0 -1339 5 -1254 -76 -1334 -75 -76 -84 -77 -569 -74 l-420 3 -3
1395 c-1 767 0 1401 3 1408 3 9 97 12 423 12 351 0 427 -3 471 -16z"/>
<path d="M696 3485 c-103 -42 -174 -115 -218 -222 l-23 -58 -3 -759 c-2 -503
1 -783 8 -829 26 -169 148 -297 312 -327 36 -7 437 -9 1154 -8 l1099 3 60 24
c83 33 183 133 216 216 l24 60 3 775 c2 553 0 792 -8 835 -24 125 -106 231
-218 283 l-57 27 -1145 2 -1145 3 -59 -25z m2340 -147 c46 -25 94 -77 115
-123 17 -38 19 -86 19 -813 0 -842 3 -802 -57 -880 -14 -19 -49 -45 -78 -58
l-52 -24 -1105 2 -1105 3 -49 30 c-30 19 -60 49 -79 79 l-30 49 -3 774 c-2
535 1 787 9 815 14 53 88 133 142 152 36 13 191 14 1142 13 1020 -2 1102 -3
1131 -19z"/>
<path d="M1795 2970 c-11 -4 -136 -125 -277 -267 -224 -225 -258 -263 -258
-289 0 -42 27 -64 80 -64 l44 0 244 243 c134 133 250 254 258 269 19 37 18 53
-8 82 -27 29 -55 38 -83 26z"/>
<path d="M1837 2463 c-257 -258 -450 -458 -454 -472 -3 -14 0 -43 8 -65 12
-36 18 -41 49 -44 34 -3 49 12 492 455 497 498 496 496 445 547 -18 17 -37 26
-59 26 -30 0 -73 -40 -481 -447z"/>
<path d="M2413 2454 c-6 -3 -124 -122 -262 -264 -267 -276 -273 -285 -235
-338 11 -16 25 -22 52 -22 35 0 51 14 294 258 243 243 258 260 258 294 0 55
-56 92 -107 72z"/>
<path d="M3965 3555 c-16 -15 -25 -36 -25 -55 0 -19 9 -40 25 -55 l24 -25 274
0 c262 0 275 1 301 21 20 16 26 29 26 59 0 30 -6 43 -26 59 -26 20 -39 21
-301 21 l-274 0 -24 -25z"/>
<path d="M3960 3290 c-12 -12 -20 -33 -20 -55 0 -22 8 -43 20 -55 19 -19 33
-20 305 -20 272 0 286 1 305 20 26 26 26 70 -1 104 l-20 26 -285 0 c-271 0
-285 -1 -304 -20z"/>
<path d="M4017 2889 c-9 -5 -24 -23 -32 -39 -41 -79 9 -160 98 -160 92 0 136
118 69 185 -19 20 -35 25 -71 25 -25 0 -54 -5 -64 -11z"/>
<path d="M4407 2889 c-24 -14 -47 -62 -47 -100 0 -47 56 -99 107 -99 45 0 77
20 98 60 23 45 18 69 -24 111 -32 32 -46 39 -77 39 -22 0 -47 -5 -57 -11z"/>
<path d="M4034 2490 c-34 -14 -64 -59 -64 -98 0 -27 8 -42 35 -67 19 -19 48
-36 64 -40 42 -9 89 18 108 63 38 91 -51 179 -143 142z"/>
<path d="M4424 2490 c-52 -21 -77 -86 -54 -144 11 -31 65 -66 100 -66 72 0
127 84 100 151 -23 55 -90 82 -146 59z"/>
<path d="M4017 2109 c-9 -5 -24 -23 -32 -39 -41 -79 8 -160 96 -160 45 0 69
17 89 63 23 53 16 90 -22 122 -32 27 -97 34 -131 14z"/>
<path d="M4425 2101 c-63 -26 -83 -125 -36 -175 53 -56 148 -40 178 31 37 91
-51 181 -142 144z"/>
<path d="M4233 1680 c-31 -13 -43 -41 -43 -98 0 -46 -2 -51 -30 -62 -16 -7
-47 -31 -69 -55 -79 -86 -78 -210 2 -301 50 -57 105 -84 172 -84 84 0 170 54
213 134 22 42 23 160 0 202 -22 40 -73 90 -109 104 -27 12 -29 16 -29 70 0 42
-5 61 -17 73 -24 21 -63 28 -90 17z m87 -310 c20 -20 26 -63 14 -95 -10 -24
-60 -46 -89 -39 -54 13 -73 88 -33 131 27 29 80 31 108 3z"/>
</g>
</svg>
