<?xml version="1.0" encoding="UTF-8" standalone="no"?>
<!-- Created with Inkscape (http://www.inkscape.org/) -->

<svg
   width="117.1897mm"
   height="128.9297mm"
   viewBox="0 0 117.1897 128.9297"
   version="1.1"
   id="svg1226"
   xml:space="preserve"
   inkscape:export-filename="bitmap.svg"
   inkscape:export-xdpi="96"
   inkscape:export-ydpi="96"
   xmlns:inkscape="http://www.inkscape.org/namespaces/inkscape"
   xmlns:sodipodi="http://sodipodi.sourceforge.net/DTD/sodipodi-0.dtd"
   xmlns="http://www.w3.org/2000/svg"
   xmlns:svg="http://www.w3.org/2000/svg"><sodipodi:namedview
     id="namedview1228"
     pagecolor="#505050"
     bordercolor="#eeeeee"
     borderopacity="1"
     inkscape:showpageshadow="0"
     inkscape:pageopacity="0"
     inkscape:pagecheckerboard="0"
     inkscape:deskcolor="#505050"
     inkscape:document-units="mm"
     showgrid="false" /><defs
     id="defs1223" /><g
     inkscape:label="Camada 1"
     inkscape:groupmode="layer"
     id="layer1"
     transform="translate(-50.45651,-72.61687)"><path
       style="fill:#ff4500;fill-opacity:1;stroke-width:1.43255"
       d="m 93.843307,183.42776 c 0.871443,-15.29674 0.721194,-17.93532 -0.96457,-16.94049 -1.098197,0.64805 -6.88865,4.93363 -12.867631,9.5235 -5.979035,4.58982 -11.458541,8.32389 -12.176703,8.29791 -1.786038,-0.0644 -18.340016,-22.79131 -17.333864,-23.79746 1.653116,-1.65306 30.338966,-19.13184 31.398883,-19.13184 0.606951,0 1.103503,-0.91552 1.103503,-2.03451 0,-1.11893 -7.109664,-6.36773 -15.799296,-11.66396 -8.689659,-5.29623 -16.137829,-10.17712 -16.551487,-10.84645 -0.849352,-1.37427 5.278037,-10.62732 12.601,-19.028909 l 4.890801,-5.611129 12.699514,9.579048 c 6.984701,5.26846 13.074676,8.97199 13.533219,8.23001 0.458598,-0.74193 0.399581,-7.04004 -0.131569,-13.995717 -0.530608,-6.955733 -1.02115,-15.064186 -1.08975,-18.018862 L 93.030826,72.61687 h 15.758034 c 14.05311,0 15.75799,0.27126 15.75691,2.506962 -6.5e-4,1.378824 -0.66841,9.542774 -1.48387,18.142094 -0.82076,8.655524 -0.93587,16.181934 -0.25772,16.859974 0.67804,0.67804 6.55512,-2.62446 13.16526,-7.39798 6.56725,-4.742504 12.67417,-8.622766 13.57101,-8.622766 0.89678,0 5.33749,4.996002 9.86818,11.102276 l 8.23758,11.10227 -3.12956,2.54297 c -1.72123,1.39864 -9.1623,6.09339 -16.53565,10.43284 -7.37334,4.33946 -13.40609,8.47236 -13.40609,9.18418 0,0.71183 7.07106,5.55466 15.71343,10.76177 8.64236,5.20716 16.03677,9.99076 16.43202,10.63036 1.19451,1.93271 -16.49077,24.59743 -18.32359,23.48272 -0.90485,-0.55026 -6.72665,-4.76005 -12.93737,-9.355 -6.21066,-4.59496 -11.62351,-8.02318 -12.02845,-7.61824 -0.93956,0.93961 -0.53169,21.08973 0.58848,29.08692 l 0.85293,6.08835 h -16.0306 -16.030595 z"
       id="path1467" /></g></svg>
