<svg width="445" height="608" viewBox="0 0 445 608" fill="none" xmlns="http://www.w3.org/2000/svg">
<path fill-rule="evenodd" clip-rule="evenodd" d="M445 222.5C445 299.173 406.218 366.787 347.201 406.798C345.168 408.176 343.268 409.741 341.35 411.274C341.098 411.476 340.843 411.675 340.585 411.871L64.9199 599.701C38.0883 620.133 2.37277e-05 600.505 2.14929e-05 566.245L1.44749e-05 458.661C1.28915e-05 434.387 39.7403 412.319 59.3435 398.003V398.003L249.673 259.01C270.341 243.917 274.86 214.927 259.767 194.26C244.674 173.592 215.684 169.073 195.017 184.166L4.68679 323.159V323.159C2.82788 324.516 5.64268e-06 323.264 5.49252e-06 320.962L0 236.763C0 235.245 0.0721529 233.759 0.212278 232.308C0.0712461 229.056 0 225.786 0 222.5C0 99.6166 99.6166 0 222.5 0C345.383 0 445 99.6166 445 222.5Z" fill="url(#paint0_linear_1055_17)"/>
<path d="M370.383 477.909C359.95 465.529 341.629 463.386 328.596 473.022L220.437 552.989C196.724 570.52 209.185 608 238.725 608H414.275C440.32 608 454.508 577.734 437.773 557.876L370.383 477.909Z" fill="url(#paint1_linear_1055_17)"/>
<path d="M370.383 477.909C359.95 465.529 341.629 463.386 328.596 473.022L220.437 552.989C196.724 570.52 209.185 608 238.725 608H414.275C440.32 608 454.508 577.734 437.773 557.876L370.383 477.909Z" stroke="url(#paint2_linear_1055_17)"/>
<defs>
<linearGradient id="paint0_linear_1055_17" x1="223" y1="8.89085e-08" x2="223" y2="608" gradientUnits="userSpaceOnUse">
<stop stop-color="#47B6F4"/>
<stop offset="1" stop-color="#63ED92"/>
</linearGradient>
<linearGradient id="paint1_linear_1055_17" x1="326.5" y1="467" x2="326.5" y2="608" gradientUnits="userSpaceOnUse">
<stop stop-color="#49EBE1"/>
<stop offset="1" stop-color="#62EB94"/>
</linearGradient>
<linearGradient id="paint2_linear_1055_17" x1="326.5" y1="467" x2="326.5" y2="608" gradientUnits="userSpaceOnUse">
<stop stop-color="#2E7085" stop-opacity="0.54"/>
<stop offset="1" stop-color="#6983C7" stop-opacity="0.98"/>
</linearGradient>
</defs>
</svg>
