<?xml version="1.0" encoding="UTF-8" standalone="no"?>
<svg
   fill="#228BE6"
   viewBox="0 0 50 50"
   width="50px"
   height="50px"
   version="1.1"
   id="svg4"
   sodipodi:docname="ico-pesquisar.svg"
   inkscape:version="1.2 (dc2aedaf03, 2022-05-15)"
   xmlns:inkscape="http://www.inkscape.org/namespaces/inkscape"
   xmlns:sodipodi="http://sodipodi.sourceforge.net/DTD/sodipodi-0.dtd"
   xmlns="http://www.w3.org/2000/svg"
   xmlns:svg="http://www.w3.org/2000/svg">
  <defs
     id="defs8" />
  <sodipodi:namedview
     id="namedview6"
     pagecolor="#505050"
     bordercolor="#eeeeee"
     borderopacity="1"
     inkscape:showpageshadow="0"
     inkscape:pageopacity="0"
     inkscape:pagecheckerboard="0"
     inkscape:deskcolor="#505050"
     showgrid="false"
     inkscape:zoom="4.72"
     inkscape:cx="22.457627"
     inkscape:cy="25.105932"
     inkscape:current-layer="svg4" />
  <path
     d="m 20.280727,1.1300548 c -10.2849375,0 -18.6035103,8.318574 -18.6035103,18.6035102 0,10.284937 8.3185729,18.603511 18.6035103,18.603511 3.671971,0 7.070361,-1.077226 9.951509,-2.906799 l 13.43967,13.439668 4.650877,-4.650877 -13.26868,-13.234483 c 2.385285,-3.129083 3.830135,-7.006238 3.830135,-11.25102 0,-10.2849363 -8.318573,-18.6035103 -18.603511,-18.6035102 z m 0,4.3772966 c 7.878279,0 14.226214,6.3479346 14.226214,14.2262136 0,7.878279 -6.347935,14.226215 -14.226214,14.226215 -7.87828,0 -14.2262138,-6.347936 -14.2262138,-14.226215 0,-7.878279 6.3479338,-14.2262137 14.2262138,-14.2262136 z"
     id="path2"
     style="fill:#ffffff;stroke-width:1.09433" />
</svg>
