<?xml version="1.0" encoding="UTF-8" standalone="no"?>
<svg
   fill="#000000"
   viewBox="0 0 30 30"
   width="30px"
   height="30px"
   version="1.1"
   id="svg381"
   sodipodi:docname="sm-twitter.svg"
   inkscape:version="1.2 (dc2aedaf03, 2022-05-15)"
   xmlns:inkscape="http://www.inkscape.org/namespaces/inkscape"
   xmlns:sodipodi="http://sodipodi.sourceforge.net/DTD/sodipodi-0.dtd"
   xmlns="http://www.w3.org/2000/svg"
   xmlns:svg="http://www.w3.org/2000/svg">
  <defs
     id="defs385" />
  <sodipodi:namedview
     id="namedview383"
     pagecolor="#505050"
     bordercolor="#eeeeee"
     borderopacity="1"
     inkscape:showpageshadow="0"
     inkscape:pageopacity="0"
     inkscape:pagecheckerboard="0"
     inkscape:deskcolor="#505050"
     showgrid="false"
     showguides="true"
     inkscape:zoom="8"
     inkscape:cx="13.5"
     inkscape:cy="12.5625"
     inkscape:current-layer="svg381" />
  <path
     d="m 28.400366,5.4591999 c -0.986435,0.5028633 -2.046053,0.8412608 -3.158242,0.9938946 1.135895,-0.7809172 2.006886,-2.0173695 2.417127,-3.4916466 -1.06168,0.72294 -2.238806,1.2482844 -3.492207,1.5322544 -1.002928,-1.2269868 -2.431558,-1.9937055 -4.01274,-1.9937055 -3.036613,0 -5.498063,2.8266837 -5.498063,6.3112313 0,0.4945802 0.04947,0.9773292 0.142245,1.4375979 C 10.229136,9.9861533 6.1782583,7.4730198 3.4653037,3.6536245 2.9932166,4.5859923 2.7221273,5.6698109 2.7221273,6.8281714 c 0,2.1889351 0.9699431,4.1211116 2.4449575,5.2522586 -0.9008823,-0.03313 -1.749196,-0.317098 -2.4903109,-0.789199 0,0.02721 0,0.05206 0,0.07928 0,3.058592 1.894533,5.609588 4.4106128,6.188177 -0.4607488,0.144352 -0.9472665,0.22126 -1.4492455,0.22126 -0.3535499,0 -0.6988538,-0.04023 -1.0338501,-0.112404 0.6998845,2.507218 2.7304774,4.332907 5.1362659,4.383785 -1.8811327,1.69317 -4.2518757,2.702447 -6.8287703,2.702447 -0.4432259,0 -0.8812979,-0.02958 -1.3121547,-0.08874 2.4336192,1.790193 5.3228334,2.834967 8.428507,2.834967 10.113795,0 15.642781,-9.617115 15.642781,-17.9575465 0,-0.2733209 -0.0051,-0.5454595 -0.01546,-0.8164138 1.07508,-0.8909555 2.007915,-2.0019878 2.744908,-3.266837 z"
     id="path379"
     style="fill:#ffffff;stroke-width:1.10435" />
</svg>
